<svg width="1440" height="241" viewBox="0 0 1440 241" fill="none" xmlns="http://www.w3.org/2000/svg">
<path d="M303.899 4.84493V323.64H190.877L74.2164 99.0783H72.2761C75.0249 135.577 76.3993 162.547 76.3993 179.988V323.64H0V4.84493H112.78L228.713 226.499H230.168C228.066 195.492 227.015 169.652 227.015 148.981V4.84493H303.899Z" fill="#F9FBFF" fill-opacity="0.4"/>
<path d="M516.747 70.4934C473.575 70.4934 451.989 101.501 451.989 163.516C451.989 225.369 473.413 256.295 516.262 256.295C538.252 256.295 554.502 248.786 565.012 233.767C575.522 218.747 580.777 195.411 580.777 163.758C580.777 132.104 575.441 108.687 564.769 93.5067C554.259 78.1645 538.252 70.4934 516.747 70.4934ZM361.28 163.758C361.28 110.464 374.539 69.8474 401.056 41.9084C427.574 13.9695 466.137 0 516.747 0C567.518 0 606.001 13.8887 632.195 41.6662C658.389 69.2821 671.486 109.979 671.486 163.758C671.486 217.536 658.308 258.395 631.952 286.334C605.758 314.111 567.356 328 516.747 328C466.299 328 427.736 313.95 401.056 285.849C374.539 257.749 361.28 217.052 361.28 163.758Z" fill="#F9FBFF" fill-opacity="0.4"/>
<path d="M857.243 75.3383V323.64H770.9V75.3383H693.045V4.84493H934.855V75.3383H857.243Z" fill="#F9FBFF" fill-opacity="0.4"/>
<path d="M1067.15 323.64H980.56V4.84493H1067.15V323.64Z" fill="#F9FBFF" fill-opacity="0.4"/>
<path d="M1440 4.84493V323.64H1326.98L1210.32 99.0783H1208.38C1211.13 135.577 1212.5 162.547 1212.5 179.988V323.64H1136.1V4.84493H1248.88L1364.81 226.499H1366.27C1364.17 195.492 1363.12 169.652 1363.12 148.981V4.84493H1440Z" fill="#F9FBFF" fill-opacity="0.4"/>
</svg>
