<svg width="196" height="49" viewBox="0 0 196 49" fill="none" xmlns="http://www.w3.org/2000/svg">
<path d="M77.7716 36.3672C77.7716 43.3441 72.0893 49 65.0799 49C58.0705 49 52.3883 43.3441 52.3883 36.3672C52.3883 29.3903 58.0705 23.7344 65.0799 23.7344C72.0893 23.7344 77.7716 29.3903 77.7716 36.3672Z" fill="#57AEF5"/>
<path d="M46.7768 0.0990911V49H29.3802L11.4235 14.5538H11.1249C11.548 20.1524 11.7595 24.2894 11.7595 26.9649V49H0V0.0990911H17.3593L35.2039 34.0993H35.4279C35.1044 29.343 34.9426 25.3794 34.9426 22.2085V0.0990911H46.7768Z" fill="#F9FCFF"/>
<path d="M196 0.0990911V49H178.603L160.647 14.5538H160.348C160.771 20.1524 160.983 24.2894 160.983 26.9649V49H149.223V0.0990911H166.583L184.427 34.0993H184.651C184.328 29.343 184.166 25.3794 184.166 22.2085V0.0990911H196Z" fill="#F9FCFF"/>
<path d="M97.8398 10.9123V49H84.5496V10.9123H72.5661V0.0990911H109.786V10.9123H97.8398Z" fill="#F9FCFF"/>
<path d="M141.614 12.6328C141.614 19.6097 135.932 25.2656 128.923 25.2656C121.913 25.2656 116.231 19.6097 116.231 12.6328C116.231 5.6559 121.913 0 128.923 0C135.932 0 141.614 5.6559 141.614 12.6328Z" fill="#F55757"/>
<path d="M122.385 30.625H136.23V49H122.385V30.625Z" fill="#F9FCFF"/>
</svg>
