<svg width="1075" height="468" viewBox="0 0 1075 468" fill="none" xmlns="http://www.w3.org/2000/svg">
<rect x="92.1494" y="-231" width="1256.01" height="245.99" transform="rotate(22 92.1494 -231)" fill="#F9FCFF"/>
<mask id="mask0_47_640" style="mask-type:alpha" maskUnits="userSpaceOnUse" x="0" y="-231" width="1257" height="699">
<rect x="92.1493" y="-231" width="1256.01" height="245.99" transform="rotate(22 92.1493 -231)" fill="#F9FCFF"/>
</mask>
<g mask="url(#mask0_47_640)">
<path d="M25.5709 -43.0545C27.5966 -44.4486 30.9545 -46.5893 35.6446 -49.4767L35.4979 -49.6899L5.42238 -39.4004L-0.796014 -48.4361L19.5375 -72.9954L19.3907 -73.2087C15.4473 -69.9973 12.214 -67.5233 9.69074 -65.7868L-5.5286 -55.3128L-11.3068 -63.7087L23.7697 -87.8486L32.4644 -75.2146L12.5958 -50.7788L12.7242 -50.5922L42.5533 -60.555L51.2664 -47.8944L16.1899 -23.7546L10.1917 -32.4704L25.5709 -43.0545ZM43.3363 15.6905L36.2008 5.32217L41.6103 -0.914479L33.7593 -12.3223L25.9652 -9.55067L18.7929 -19.9723L61.8719 -32.7694L70.585 -20.1088L43.3363 15.6905ZM42.873 -15.6878L48.0091 -8.22477C54.8088 -16.1513 58.9692 -20.8737 60.4905 -22.392C58.0425 -21.231 52.17 -18.9963 42.873 -15.6878ZM52.5011 29.0075L45.9526 19.4921L81.029 -4.64777L87.5776 4.86765L52.5011 29.0075ZM115.777 45.8427L80.7005 69.9826L72.1525 57.5619L88.0374 27.7371L87.8907 27.5239C84.0827 30.5897 81.2192 32.7829 79.3001 34.1037L63.4944 44.9813L57.7162 36.5853L92.7927 12.4455L101.322 24.8395L85.7022 54.3642L85.8123 54.5241C89.065 51.9452 91.8286 49.873 94.103 48.3077L109.962 37.3935L115.777 45.8427ZM115.252 91.9936L102.085 101.055L95.6647 91.7264L130.741 67.5866L145.012 88.3233L137.389 93.5695L129.538 82.1616L122.848 86.7658L130.076 97.2674L122.479 102.495L115.252 91.9936ZM135.968 133.739L128.239 139.058L113.913 118.242L148.989 94.1017L163.315 114.918L155.692 120.165L147.896 108.837L142.379 112.634L149.606 123.135L142.01 128.363L134.783 117.862L128.172 122.411L135.968 133.739ZM154.418 177.098L147.282 166.73L152.692 160.493L144.841 149.085L137.047 151.857L129.875 141.435L172.954 128.638L181.667 141.299L154.418 177.098ZM153.955 145.72L159.091 153.183C165.89 145.256 170.051 140.534 171.572 139.016C169.124 140.177 163.252 142.411 153.955 145.72ZM192.638 174.134L165.318 192.936L158.787 183.447L186.108 164.645L180.219 156.089L187.976 150.751L206.264 177.325L198.508 182.663L192.638 174.134ZM223.717 202.685L230.247 212.174L209.137 226.702C204.535 229.869 200.079 231.024 195.771 230.166C191.48 229.296 187.671 226.444 184.345 221.611C181.019 216.778 179.68 212.226 180.329 207.957C181.02 203.71 183.667 200.003 188.269 196.836L209.592 182.161L216.141 191.677L195.564 205.838C193.112 207.526 191.629 209.214 191.116 210.903C190.614 212.609 191.012 214.404 192.308 216.288C193.604 218.171 195.112 219.163 196.83 219.264C198.549 219.364 200.661 218.552 203.167 216.828L223.717 202.685ZM219.524 244.363L206.757 253.149L200.227 243.661L235.303 219.521L243.209 231.008C249.776 240.551 249.603 247.7 242.691 252.457C238.622 255.258 234.107 255.432 229.147 252.98L220.918 273.726L213.526 262.985L221.175 246.762L219.524 244.363ZM234.664 233.944L226.641 239.465L227.851 241.224C230.138 244.547 232.748 245.2 235.68 243.182C238.096 241.519 238.185 239.061 235.948 235.81L234.664 233.944ZM245.172 292.417L237.442 297.737L223.116 276.92L258.193 252.78L272.519 273.597L264.896 278.843L257.1 267.515L251.583 271.312L258.81 281.814L251.214 287.042L243.986 276.54L237.376 281.089L245.172 292.417ZM250.746 295.266C251.065 297.822 251.636 300.231 252.459 302.492C253.282 304.754 254.201 306.622 255.216 308.097C256.244 309.589 257.221 310.514 258.147 310.871C259.104 311.234 259.982 311.14 260.782 310.59C261.261 310.26 261.587 309.839 261.759 309.328C261.919 308.799 261.984 308.152 261.955 307.387C261.956 306.627 261.669 304.612 261.094 301.341C260.519 298.071 260.321 295.576 260.499 293.856C260.877 290.297 262.701 287.392 265.97 285.142C269.24 282.891 272.588 282.315 276.015 283.414C279.454 284.53 282.586 287.14 285.41 291.245C287.893 294.852 289.599 299.138 290.527 304.102L281.225 306.223C280.467 301.926 279.263 298.578 277.612 296.179C276.805 295.007 275.995 294.268 275.183 293.962C274.371 293.657 273.618 293.743 272.925 294.22C272.25 294.685 271.882 295.462 271.82 296.552C271.771 297.66 272.102 300.234 272.814 304.274C273.543 308.302 273.53 311.44 272.773 313.689C272.064 315.931 270.519 317.872 268.138 319.51C264.858 321.82 261.303 322.42 257.476 321.31C253.66 320.218 250.346 317.589 247.532 313.424C245.905 311.061 244.704 308.955 243.929 307.105C243.184 305.262 242.64 303.253 242.297 301.08L250.746 295.266Z" fill="#000306"/>
<path d="M25.5709 -133.055C27.5966 -134.449 30.9545 -136.589 35.6446 -139.477L35.4979 -139.69L5.42238 -129.4L-0.796014 -138.436L19.5375 -162.995L19.3907 -163.209C15.4473 -159.997 12.214 -157.523 9.69074 -155.787L-5.5286 -145.313L-11.3068 -153.709L23.7697 -177.849L32.4644 -165.215L12.5958 -140.779L12.7242 -140.592L42.5533 -150.555L51.2664 -137.894L16.1899 -113.755L10.1917 -122.47L25.5709 -133.055ZM43.3363 -74.3095L36.2008 -84.6778L41.6103 -90.9145L33.7593 -102.322L25.9652 -99.5507L18.7929 -109.972L61.8719 -122.769L70.585 -110.109L43.3363 -74.3095ZM42.873 -105.688L48.0091 -98.2248C54.8088 -106.151 58.9692 -110.874 60.4905 -112.392C58.0425 -111.231 52.17 -108.996 42.873 -105.688ZM52.5011 -60.9925L45.9526 -70.5079L81.029 -94.6478L87.5776 -85.1324L52.5011 -60.9925ZM115.777 -44.1573L80.7005 -20.0174L72.1525 -32.4381L88.0374 -62.2629L87.8907 -62.4761C84.0827 -59.4103 81.2192 -57.2171 79.3001 -55.8963L63.4944 -45.0187L57.7162 -53.4147L92.7927 -77.5545L101.322 -65.1605L85.7022 -35.6358L85.8123 -35.4759C89.065 -38.0548 91.8286 -40.127 94.103 -41.6923L109.962 -52.6065L115.777 -44.1573ZM115.252 1.99364L102.085 11.0553L95.6647 1.72641L130.741 -22.4134L145.012 -1.67674L137.389 3.56945L129.538 -7.83839L122.848 -3.23421L130.076 7.2674L122.479 12.4953L115.252 1.99364ZM135.968 43.7386L128.239 49.0582L113.913 28.2415L148.989 4.10167L163.315 24.9183L155.692 30.1645L147.896 18.8366L142.379 22.6337L149.606 33.1353L142.01 38.3632L134.783 27.8616L128.172 32.4107L135.968 43.7386ZM154.418 87.098L147.282 76.7296L152.692 70.493L144.841 59.0851L137.047 61.8568L129.875 51.4351L172.954 38.6381L181.667 51.2986L154.418 87.098ZM153.955 55.7196L159.091 63.1827C165.89 55.2562 170.051 50.5338 171.572 49.0155C169.124 50.1765 163.252 52.4112 153.955 55.7196ZM192.638 84.1339L165.318 102.936L158.787 93.4471L186.108 74.6452L180.219 66.0893L187.976 60.7514L206.264 87.3253L198.508 92.6632L192.638 84.1339ZM223.717 112.685L230.247 122.174L209.137 136.702C204.535 139.869 200.079 141.024 195.771 140.166C191.48 139.296 187.671 136.444 184.345 131.611C181.019 126.778 179.68 122.226 180.329 117.957C181.02 113.71 183.667 110.003 188.269 106.836L209.592 92.1615L216.141 101.677L195.564 115.838C193.112 117.526 191.629 119.214 191.116 120.903C190.614 122.609 191.012 124.404 192.308 126.288C193.604 128.171 195.112 129.163 196.83 129.264C198.549 129.364 200.661 128.552 203.167 126.828L223.717 112.685ZM219.524 154.363L206.757 163.149L200.227 153.661L235.303 129.521L243.209 141.008C249.776 150.551 249.603 157.7 242.691 162.457C238.622 165.258 234.107 165.432 229.147 162.98L220.918 183.726L213.526 172.985L221.175 156.762L219.524 154.363ZM234.664 143.944L226.641 149.465L227.851 151.224C230.138 154.547 232.748 155.2 235.68 153.182C238.096 151.519 238.185 149.061 235.948 145.81L234.664 143.944ZM245.172 202.417L237.442 207.737L223.116 186.92L258.193 162.78L272.519 183.597L264.896 188.843L257.1 177.515L251.583 181.312L258.81 191.814L251.214 197.042L243.986 186.54L237.376 191.089L245.172 202.417ZM250.746 205.266C251.065 207.822 251.636 210.231 252.459 212.492C253.282 214.754 254.201 216.622 255.216 218.097C256.244 219.589 257.221 220.514 258.147 220.871C259.104 221.234 259.982 221.14 260.782 220.59C261.261 220.26 261.587 219.839 261.759 219.328C261.919 218.799 261.984 218.152 261.955 217.387C261.956 216.627 261.669 214.612 261.094 211.341C260.519 208.071 260.321 205.576 260.499 203.856C260.877 200.297 262.701 197.392 265.97 195.142C269.24 192.891 272.588 192.315 276.015 193.414C279.454 194.53 282.586 197.14 285.41 201.245C287.893 204.852 289.599 209.138 290.527 214.102L281.225 216.223C280.467 211.926 279.263 208.578 277.612 206.179C276.805 205.007 275.995 204.268 275.183 203.962C274.371 203.657 273.618 203.743 272.925 204.22C272.25 204.685 271.882 205.462 271.82 206.552C271.771 207.66 272.102 210.234 272.814 214.274C273.543 218.302 273.53 221.44 272.773 223.689C272.064 225.931 270.519 227.872 268.138 229.51C264.858 231.82 261.303 232.42 257.476 231.31C253.66 230.218 250.346 227.589 247.532 223.424C245.905 221.061 244.704 218.955 243.929 217.105C243.184 215.262 242.64 213.253 242.297 211.08L250.746 205.266Z" fill="#000306"/>
<path d="M97.5709 -125.055C99.5966 -126.449 102.955 -128.589 107.645 -131.477L107.498 -131.69L77.4224 -121.4L71.204 -130.436L91.5375 -154.995L91.3907 -155.209C87.4473 -151.997 84.214 -149.523 81.6907 -147.787L66.4714 -137.313L60.6932 -145.709L95.7697 -169.849L104.464 -157.215L84.5958 -132.779L84.7242 -132.592L114.553 -142.555L123.266 -129.894L88.1899 -105.755L82.1917 -114.47L97.5709 -125.055ZM115.336 -66.3095L108.201 -76.6778L113.61 -82.9145L105.759 -94.3223L97.9652 -91.5507L90.7929 -101.972L133.872 -114.769L142.585 -102.109L115.336 -66.3095ZM114.873 -97.6878L120.009 -90.2248C126.809 -98.1513 130.969 -102.874 132.49 -104.392C130.042 -103.231 124.17 -100.996 114.873 -97.6878ZM124.501 -52.9925L117.953 -62.5079L153.029 -86.6478L159.578 -77.1324L124.501 -52.9925ZM187.777 -36.1573L152.7 -12.0174L144.152 -24.4381L160.037 -54.2629L159.891 -54.4761C156.083 -51.4103 153.219 -49.2171 151.3 -47.8963L135.494 -37.0187L129.716 -45.4147L164.793 -69.5545L173.322 -57.1605L157.702 -27.6358L157.812 -27.4759C161.065 -30.0548 163.829 -32.127 166.103 -33.6923L181.962 -44.6065L187.777 -36.1573ZM187.252 9.99364L174.085 19.0553L167.665 9.72641L202.741 -14.4134L217.012 6.32326L209.389 11.5695L201.538 0.16161L194.848 4.76579L202.076 15.2674L194.479 20.4953L187.252 9.99364ZM207.968 51.7386L200.239 57.0582L185.913 36.2415L220.989 12.1017L235.315 32.9183L227.692 38.1645L219.896 26.8366L214.379 30.6337L221.606 41.1353L214.01 46.3632L206.783 35.8616L200.172 40.4107L207.968 51.7386ZM226.418 95.098L219.282 84.7296L224.692 78.493L216.841 67.0851L209.047 69.8568L201.875 59.4351L244.954 46.6381L253.667 59.2986L226.418 95.098ZM225.955 63.7196L231.091 71.1827C237.89 63.2562 242.051 58.5338 243.572 57.0155C241.124 58.1765 235.252 60.4112 225.955 63.7196ZM264.638 92.1339L237.318 110.936L230.787 101.447L258.108 82.6452L252.219 74.0893L259.976 68.7514L278.264 95.3253L270.508 100.663L264.638 92.1339ZM295.717 120.685L302.247 130.174L281.137 144.702C276.535 147.869 272.079 149.024 267.771 148.166C263.48 147.296 259.671 144.444 256.345 139.611C253.019 134.778 251.68 130.226 252.329 125.957C253.02 121.71 255.667 118.003 260.269 114.836L281.592 100.161L288.141 109.677L267.564 123.838C265.112 125.526 263.629 127.214 263.116 128.903C262.614 130.609 263.012 132.404 264.308 134.288C265.604 136.171 267.112 137.163 268.83 137.264C270.549 137.364 272.661 136.552 275.167 134.828L295.717 120.685ZM291.524 162.363L278.757 171.149L272.227 161.661L307.303 137.521L315.209 149.008C321.776 158.551 321.603 165.7 314.691 170.457C310.622 173.258 306.107 173.432 301.147 170.98L292.918 191.726L285.526 180.985L293.175 164.762L291.524 162.363ZM306.664 151.944L298.641 157.465L299.851 159.224C302.138 162.547 304.748 163.2 307.68 161.182C310.096 159.519 310.185 157.061 307.948 153.81L306.664 151.944ZM317.172 210.417L309.442 215.737L295.116 194.92L330.193 170.78L344.519 191.597L336.896 196.843L329.1 185.515L323.583 189.312L330.81 199.814L323.214 205.042L315.986 194.54L309.376 199.089L317.172 210.417ZM322.746 213.266C323.065 215.822 323.636 218.231 324.459 220.492C325.282 222.754 326.201 224.622 327.216 226.097C328.244 227.589 329.221 228.514 330.147 228.871C331.104 229.234 331.982 229.14 332.782 228.59C333.261 228.26 333.587 227.839 333.759 227.328C333.919 226.799 333.984 226.152 333.955 225.387C333.956 224.627 333.669 222.612 333.094 219.341C332.519 216.071 332.321 213.576 332.499 211.856C332.877 208.297 334.701 205.392 337.97 203.142C341.24 200.891 344.588 200.315 348.015 201.414C351.454 202.53 354.586 205.14 357.41 209.245C359.893 212.852 361.599 217.138 362.527 222.102L353.225 224.223C352.467 219.926 351.263 216.578 349.612 214.179C348.805 213.007 347.995 212.268 347.183 211.962C346.371 211.657 345.618 211.743 344.925 212.22C344.25 212.685 343.882 213.462 343.82 214.552C343.771 215.66 344.102 218.234 344.814 222.274C345.543 226.302 345.53 229.44 344.773 231.689C344.064 233.931 342.519 235.872 340.138 237.51C336.858 239.82 333.303 240.42 329.476 239.31C325.66 238.218 322.346 235.589 319.532 231.424C317.905 229.061 316.704 226.955 315.929 225.105C315.184 223.262 314.64 221.253 314.297 219.08L322.746 213.266Z" fill="#000306"/>
<path d="M122.571 -185.055C124.597 -186.449 127.955 -188.589 132.645 -191.477L132.498 -191.69L102.422 -181.4L96.204 -190.436L116.537 -214.995L116.391 -215.209C112.447 -211.997 109.214 -209.523 106.691 -207.787L91.4714 -197.313L85.6932 -205.709L120.77 -229.849L129.464 -217.215L109.596 -192.779L109.724 -192.592L139.553 -202.555L148.266 -189.894L113.19 -165.755L107.192 -174.47L122.571 -185.055ZM140.336 -126.309L133.201 -136.678L138.61 -142.914L130.759 -154.322L122.965 -151.551L115.793 -161.972L158.872 -174.769L167.585 -162.109L140.336 -126.309ZM139.873 -157.688L145.009 -150.225C151.809 -158.151 155.969 -162.874 157.49 -164.392C155.042 -163.231 149.17 -160.996 139.873 -157.688ZM149.501 -112.993L142.953 -122.508L178.029 -146.648L184.578 -137.132L149.501 -112.993ZM212.777 -96.1573L177.7 -72.0174L169.152 -84.4381L185.037 -114.263L184.891 -114.476C181.083 -111.41 178.219 -109.217 176.3 -107.896L160.494 -97.0187L154.716 -105.415L189.793 -129.555L198.322 -117.161L182.702 -87.6358L182.812 -87.4759C186.065 -90.0548 188.829 -92.127 191.103 -93.6923L206.962 -104.607L212.777 -96.1573ZM212.252 -50.0064L199.085 -40.9447L192.665 -50.2736L227.741 -74.4134L242.012 -53.6767L234.389 -48.4305L226.538 -59.8384L219.848 -55.2342L227.076 -44.7326L219.479 -39.5047L212.252 -50.0064ZM232.968 -8.26141L225.239 -2.94184L210.913 -23.7585L245.989 -47.8983L260.315 -27.0817L252.692 -21.8355L244.896 -33.1634L239.379 -29.3663L246.606 -18.8647L239.01 -13.6368L231.783 -24.1384L225.172 -19.5893L232.968 -8.26141ZM251.418 35.098L244.282 24.7296L249.692 18.493L241.841 7.08514L234.047 9.85679L226.875 -0.564862L269.954 -13.3619L278.667 -0.701352L251.418 35.098ZM250.955 3.71961L256.091 11.1827C262.89 3.25617 267.051 -1.46622 268.572 -2.9845C266.124 -1.8235 260.252 0.411202 250.955 3.71961ZM289.638 32.1339L262.318 50.9359L255.787 41.4471L283.108 22.6452L277.219 14.0893L284.976 8.75138L303.264 35.3253L295.508 40.6632L289.638 32.1339ZM320.717 60.6849L327.247 70.1737L306.137 84.7016C301.535 87.8689 297.079 89.0236 292.771 88.1658C288.48 87.2958 284.671 84.4442 281.345 79.6109C278.019 74.7777 276.68 70.2263 277.329 65.9566C278.02 61.7102 280.667 58.0034 285.269 54.8361L306.592 40.1615L313.141 49.6769L292.564 63.8379C290.112 65.5255 288.629 67.2138 288.116 68.9026C287.614 70.6093 288.012 72.4044 289.308 74.2879C290.604 76.1715 292.112 77.1634 293.83 77.2636C295.549 77.3639 297.661 76.5519 300.167 74.8276L320.717 60.6849ZM316.524 102.363L303.757 111.149L297.227 101.661L332.303 77.5207L340.209 89.0085C346.776 98.5505 346.603 105.7 339.691 110.457C335.622 113.258 331.107 113.432 326.147 110.98L317.918 131.726L310.526 120.985L318.175 104.762L316.524 102.363ZM331.664 91.9438L323.641 97.4651L324.851 99.2243C327.138 102.547 329.748 103.2 332.68 101.182C335.096 99.5188 335.185 97.0613 332.948 93.8096L331.664 91.9438ZM342.172 150.417L334.442 155.737L320.116 134.92L355.193 110.78L369.519 131.597L361.896 136.843L354.1 125.515L348.583 129.312L355.81 139.814L348.214 145.042L340.986 134.54L334.376 139.089L342.172 150.417ZM347.746 153.266C348.065 155.822 348.636 158.231 349.459 160.492C350.282 162.754 351.201 164.622 352.216 166.097C353.244 167.589 354.221 168.514 355.147 168.871C356.104 169.234 356.982 169.14 357.782 168.59C358.261 168.26 358.587 167.839 358.759 167.328C358.919 166.799 358.984 166.152 358.955 165.387C358.956 164.627 358.669 162.612 358.094 159.341C357.519 156.071 357.321 153.576 357.499 151.856C357.877 148.297 359.701 145.392 362.97 143.142C366.24 140.891 369.588 140.315 373.015 141.414C376.454 142.53 379.586 145.14 382.41 149.245C384.893 152.852 386.599 157.138 387.527 162.102L378.225 164.223C377.467 159.926 376.263 156.578 374.612 154.179C373.805 153.007 372.995 152.268 372.183 151.962C371.371 151.657 370.618 151.743 369.925 152.22C369.25 152.685 368.882 153.462 368.82 154.552C368.771 155.66 369.102 158.234 369.814 162.274C370.543 166.302 370.53 169.44 369.773 171.689C369.064 173.931 367.519 175.872 365.138 177.51C361.858 179.82 358.303 180.42 354.476 179.31C350.66 178.218 347.346 175.589 344.532 171.424C342.905 169.061 341.704 166.955 340.929 165.105C340.184 163.262 339.64 161.253 339.297 159.08L347.746 153.266Z" fill="#000306"/>
<path d="M200.571 -169.055C202.597 -170.449 205.955 -172.589 210.645 -175.477L210.498 -175.69L180.422 -165.4L174.204 -174.436L194.537 -198.995L194.391 -199.209C190.447 -195.997 187.214 -193.523 184.691 -191.787L169.471 -181.313L163.693 -189.709L198.77 -213.849L207.464 -201.215L187.596 -176.779L187.724 -176.592L217.553 -186.555L226.266 -173.894L191.19 -149.755L185.192 -158.47L200.571 -169.055ZM218.336 -110.309L211.201 -120.678L216.61 -126.914L208.759 -138.322L200.965 -135.551L193.793 -145.972L236.872 -158.769L245.585 -146.109L218.336 -110.309ZM217.873 -141.688L223.009 -134.225C229.809 -142.151 233.969 -146.874 235.49 -148.392C233.042 -147.231 227.17 -144.996 217.873 -141.688ZM227.501 -96.9925L220.953 -106.508L256.029 -130.648L262.578 -121.132L227.501 -96.9925ZM290.777 -80.1573L255.7 -56.0174L247.152 -68.4381L263.037 -98.2629L262.891 -98.4761C259.083 -95.4103 256.219 -93.2171 254.3 -91.8963L238.494 -81.0187L232.716 -89.4147L267.793 -113.555L276.322 -101.161L260.702 -71.6358L260.812 -71.4759C264.065 -74.0548 266.829 -76.127 269.103 -77.6923L284.962 -88.6065L290.777 -80.1573ZM290.252 -34.0064L277.085 -24.9447L270.665 -34.2736L305.741 -58.4134L320.012 -37.6767L312.389 -32.4305L304.538 -43.8384L297.848 -39.2342L305.076 -28.7326L297.479 -23.5047L290.252 -34.0064ZM310.968 7.73859L303.239 13.0582L288.913 -7.75849L323.989 -31.8983L338.315 -11.0817L330.692 -5.83549L322.896 -17.1634L317.379 -13.3663L324.606 -2.86468L317.01 2.36317L309.783 -8.13844L303.172 -3.58929L310.968 7.73859ZM329.418 51.098L322.282 40.7296L327.692 34.493L319.841 23.0851L312.047 25.8568L304.875 15.4351L347.954 2.63808L356.667 15.2986L329.418 51.098ZM328.955 19.7196L334.091 27.1827C340.89 19.2562 345.051 14.5338 346.572 13.0155C344.124 14.1765 338.252 16.4112 328.955 19.7196ZM367.638 48.1339L340.318 66.9359L333.787 57.4471L361.108 38.6452L355.219 30.0893L362.976 24.7514L381.264 51.3253L373.508 56.6632L367.638 48.1339ZM398.717 76.6849L405.247 86.1737L384.137 100.702C379.535 103.869 375.079 105.024 370.771 104.166C366.48 103.296 362.671 100.444 359.345 95.6109C356.019 90.7777 354.68 86.2263 355.329 81.9566C356.02 77.7102 358.667 74.0034 363.269 70.8361L384.592 56.1615L391.141 65.6769L370.564 79.8379C368.112 81.5255 366.629 83.2138 366.116 84.9026C365.614 86.6093 366.012 88.4044 367.308 90.2879C368.604 92.1715 370.112 93.1634 371.83 93.2636C373.549 93.3639 375.661 92.5519 378.167 90.8276L398.717 76.6849ZM394.524 118.363L381.757 127.149L375.227 117.661L410.303 93.5207L418.209 105.008C424.776 114.551 424.603 121.7 417.691 126.457C413.622 129.258 409.107 129.432 404.147 126.98L395.918 147.726L388.526 136.985L396.175 120.762L394.524 118.363ZM409.664 107.944L401.641 113.465L402.851 115.224C405.138 118.547 407.748 119.2 410.68 117.182C413.096 115.519 413.185 113.061 410.948 109.81L409.664 107.944ZM420.172 166.417L412.442 171.737L398.116 150.92L433.193 126.78L447.519 147.597L439.896 152.843L432.1 141.515L426.583 145.312L433.81 155.814L426.214 161.042L418.986 150.54L412.376 155.089L420.172 166.417ZM425.746 169.266C426.065 171.822 426.636 174.231 427.459 176.492C428.282 178.754 429.201 180.622 430.216 182.097C431.244 183.589 432.221 184.514 433.147 184.871C434.104 185.234 434.982 185.14 435.782 184.59C436.261 184.26 436.587 183.839 436.759 183.328C436.919 182.799 436.984 182.152 436.955 181.387C436.956 180.627 436.669 178.612 436.094 175.341C435.519 172.071 435.321 169.576 435.499 167.856C435.877 164.297 437.701 161.392 440.97 159.142C444.24 156.891 447.588 156.315 451.015 157.414C454.454 158.53 457.586 161.14 460.41 165.245C462.893 168.852 464.599 173.138 465.527 178.102L456.225 180.223C455.467 175.926 454.263 172.578 452.612 170.179C451.805 169.007 450.995 168.268 450.183 167.962C449.371 167.657 448.618 167.743 447.925 168.22C447.25 168.685 446.882 169.462 446.82 170.552C446.771 171.66 447.102 174.234 447.814 178.274C448.543 182.302 448.53 185.44 447.773 187.689C447.064 189.931 445.519 191.872 443.138 193.51C439.858 195.82 436.303 196.42 432.476 195.31C428.66 194.218 425.346 191.589 422.532 187.424C420.905 185.061 419.704 182.955 418.929 181.105C418.184 179.262 417.64 177.253 417.297 175.08L425.746 169.266Z" fill="#000306"/>
<path d="M298.571 -123.055C300.597 -124.449 303.955 -126.589 308.645 -129.477L308.498 -129.69L278.422 -119.4L272.204 -128.436L292.537 -152.995L292.391 -153.209C288.447 -149.997 285.214 -147.523 282.691 -145.787L267.471 -135.313L261.693 -143.709L296.77 -167.849L305.464 -155.215L285.596 -130.779L285.724 -130.592L315.553 -140.555L324.266 -127.894L289.19 -103.755L283.192 -112.47L298.571 -123.055ZM316.336 -64.3095L309.201 -74.6778L314.61 -80.9145L306.759 -92.3223L298.965 -89.5507L291.793 -99.9723L334.872 -112.769L343.585 -100.109L316.336 -64.3095ZM315.873 -95.6878L321.009 -88.2248C327.809 -96.1513 331.969 -100.874 333.49 -102.392C331.042 -101.231 325.17 -98.9963 315.873 -95.6878ZM325.501 -50.9925L318.953 -60.5079L354.029 -84.6478L360.578 -75.1324L325.501 -50.9925ZM388.777 -34.1573L353.7 -10.0174L345.152 -22.4381L361.037 -52.2629L360.891 -52.4761C357.083 -49.4103 354.219 -47.2171 352.3 -45.8963L336.494 -35.0187L330.716 -43.4147L365.793 -67.5545L374.322 -55.1605L358.702 -25.6358L358.812 -25.4759C362.065 -28.0548 364.829 -30.127 367.103 -31.6923L382.962 -42.6065L388.777 -34.1573ZM388.252 11.9936L375.085 21.0553L368.665 11.7264L403.741 -12.4134L418.012 8.32326L410.389 13.5695L402.538 2.16161L395.848 6.76579L403.076 17.2674L395.479 22.4953L388.252 11.9936ZM408.968 53.7386L401.239 59.0582L386.913 38.2415L421.989 14.1017L436.315 34.9183L428.692 40.1645L420.896 28.8366L415.379 32.6337L422.606 43.1353L415.01 48.3632L407.783 37.8616L401.172 42.4107L408.968 53.7386ZM427.418 97.098L420.282 86.7296L425.692 80.493L417.841 69.0851L410.047 71.8568L402.875 61.4351L445.954 48.6381L454.667 61.2986L427.418 97.098ZM426.955 65.7196L432.091 73.1827C438.89 65.2562 443.051 60.5338 444.572 59.0155C442.124 60.1765 436.252 62.4112 426.955 65.7196ZM465.638 94.1339L438.318 112.936L431.787 103.447L459.108 84.6452L453.219 76.0893L460.976 70.7514L479.264 97.3253L471.508 102.663L465.638 94.1339ZM496.717 122.685L503.247 132.174L482.137 146.702C477.535 149.869 473.079 151.024 468.771 150.166C464.48 149.296 460.671 146.444 457.345 141.611C454.019 136.778 452.68 132.226 453.329 127.957C454.02 123.71 456.667 120.003 461.269 116.836L482.592 102.161L489.141 111.677L468.564 125.838C466.112 127.526 464.629 129.214 464.116 130.903C463.614 132.609 464.012 134.404 465.308 136.288C466.604 138.171 468.112 139.163 469.83 139.264C471.549 139.364 473.661 138.552 476.167 136.828L496.717 122.685ZM492.524 164.363L479.757 173.149L473.227 163.661L508.303 139.521L516.209 151.008C522.776 160.551 522.603 167.7 515.691 172.457C511.622 175.258 507.107 175.432 502.147 172.98L493.918 193.726L486.526 182.985L494.175 166.762L492.524 164.363ZM507.664 153.944L499.641 159.465L500.851 161.224C503.138 164.547 505.748 165.2 508.68 163.182C511.096 161.519 511.185 159.061 508.948 155.81L507.664 153.944ZM518.172 212.417L510.442 217.737L496.116 196.92L531.193 172.78L545.519 193.597L537.896 198.843L530.1 187.515L524.583 191.312L531.81 201.814L524.214 207.042L516.986 196.54L510.376 201.089L518.172 212.417ZM523.746 215.266C524.065 217.822 524.636 220.231 525.459 222.492C526.282 224.754 527.201 226.622 528.216 228.097C529.244 229.589 530.221 230.514 531.147 230.871C532.104 231.234 532.982 231.14 533.782 230.59C534.261 230.26 534.587 229.839 534.759 229.328C534.919 228.799 534.984 228.152 534.955 227.387C534.956 226.627 534.669 224.612 534.094 221.341C533.519 218.071 533.321 215.576 533.499 213.856C533.877 210.297 535.701 207.392 538.97 205.142C542.24 202.891 545.588 202.315 549.015 203.414C552.454 204.53 555.586 207.14 558.41 211.245C560.893 214.852 562.599 219.138 563.527 224.102L554.225 226.223C553.467 221.926 552.263 218.578 550.612 216.179C549.805 215.007 548.995 214.268 548.183 213.962C547.371 213.657 546.618 213.743 545.925 214.22C545.25 214.685 544.882 215.462 544.82 216.552C544.771 217.66 545.102 220.234 545.814 224.274C546.543 228.302 546.53 231.44 545.773 233.689C545.064 235.931 543.519 237.872 541.138 239.51C537.858 241.82 534.303 242.42 530.476 241.31C526.66 240.218 523.346 237.589 520.532 233.424C518.905 231.061 517.704 228.955 516.929 227.105C516.184 225.262 515.64 223.253 515.297 221.08L523.746 215.266Z" fill="#000306"/>
<path d="M377.571 -108.055C379.597 -109.449 382.954 -111.589 387.645 -114.477L387.498 -114.69L357.422 -104.4L351.204 -113.436L371.537 -137.995L371.391 -138.209C367.447 -134.997 364.214 -132.523 361.691 -130.787L346.471 -120.313L340.693 -128.709L375.77 -152.849L384.464 -140.215L364.596 -115.779L364.724 -115.592L394.553 -125.555L403.266 -112.894L368.19 -88.7546L362.192 -97.4704L377.571 -108.055ZM395.336 -49.3095L388.201 -59.6778L393.61 -65.9145L385.759 -77.3223L377.965 -74.5507L370.793 -84.9723L413.872 -97.7694L422.585 -85.1088L395.336 -49.3095ZM394.873 -80.6878L400.009 -73.2248C406.809 -81.1513 410.969 -85.8737 412.49 -87.392C410.042 -86.231 404.17 -83.9963 394.873 -80.6878ZM404.501 -35.9925L397.953 -45.5079L433.029 -69.6478L439.578 -60.1324L404.501 -35.9925ZM467.777 -19.1573L432.7 4.98256L424.152 -7.43813L440.037 -37.2629L439.891 -37.4761C436.083 -34.4103 433.219 -32.2171 431.3 -30.8963L415.494 -20.0187L409.716 -28.4147L444.793 -52.5545L453.322 -40.1605L437.702 -10.6358L437.812 -10.4759C441.065 -13.0548 443.829 -15.127 446.103 -16.6923L461.962 -27.6065L467.777 -19.1573ZM467.252 26.9936L454.085 36.0553L447.665 26.7264L482.741 2.58657L497.012 23.3233L489.389 28.5695L481.538 17.1616L474.848 21.7658L482.075 32.2674L474.479 37.4953L467.252 26.9936ZM487.968 68.7386L480.239 74.0582L465.913 53.2415L500.989 29.1017L515.315 49.9183L507.692 55.1645L499.896 43.8366L494.379 47.6337L501.606 58.1353L494.01 63.3632L486.783 52.8616L480.172 57.4107L487.968 68.7386ZM506.418 112.098L499.282 101.73L504.692 95.493L496.841 84.0851L489.047 86.8568L481.875 76.4351L524.954 63.6381L533.667 76.2986L506.418 112.098ZM505.955 80.7196L511.091 88.1827C517.89 80.2562 522.051 75.5338 523.572 74.0155C521.124 75.1765 515.252 77.4112 505.955 80.7196ZM544.638 109.134L517.318 127.936L510.787 118.447L538.108 99.6452L532.219 91.0893L539.976 85.7514L558.264 112.325L550.508 117.663L544.638 109.134ZM575.717 137.685L582.247 147.174L561.137 161.702C556.535 164.869 552.079 166.024 547.771 165.166C543.48 164.296 539.671 161.444 536.345 156.611C533.019 151.778 531.68 147.226 532.329 142.957C533.02 138.71 535.667 135.003 540.269 131.836L561.592 117.161L568.141 126.677L547.564 140.838C545.112 142.526 543.629 144.214 543.116 145.903C542.614 147.609 543.012 149.404 544.308 151.288C545.604 153.171 547.112 154.163 548.83 154.264C550.549 154.364 552.661 153.552 555.167 151.828L575.717 137.685ZM571.524 179.363L558.757 188.149L552.227 178.661L587.303 154.521L595.209 166.008C601.776 175.551 601.603 182.7 594.691 187.457C590.622 190.258 586.107 190.432 581.147 187.98L572.918 208.726L565.526 197.985L573.175 181.762L571.524 179.363ZM586.664 168.944L578.641 174.465L579.851 176.224C582.138 179.547 584.748 180.2 587.679 178.182C590.096 176.519 590.185 174.061 587.948 170.81L586.664 168.944ZM597.172 227.417L589.442 232.737L575.116 211.92L610.193 187.78L624.519 208.597L616.896 213.843L609.1 202.515L603.583 206.312L610.81 216.814L603.214 222.042L595.986 211.54L589.376 216.089L597.172 227.417ZM602.746 230.266C603.065 232.822 603.636 235.231 604.459 237.492C605.282 239.754 606.201 241.622 607.216 243.097C608.244 244.589 609.221 245.514 610.147 245.871C611.104 246.234 611.982 246.14 612.782 245.59C613.261 245.26 613.587 244.839 613.759 244.328C613.919 243.799 613.984 243.152 613.955 242.387C613.956 241.627 613.669 239.612 613.094 236.341C612.519 233.071 612.321 230.576 612.499 228.856C612.877 225.297 614.701 222.392 617.97 220.142C621.24 217.891 624.588 217.315 628.015 218.414C631.454 219.53 634.585 222.14 637.41 226.245C639.893 229.852 641.599 234.138 642.527 239.102L633.225 241.223C632.467 236.926 631.263 233.578 629.612 231.179C628.805 230.007 627.995 229.268 627.183 228.962C626.371 228.657 625.618 228.743 624.925 229.22C624.25 229.685 623.882 230.462 623.82 231.552C623.771 232.66 624.102 235.234 624.814 239.274C625.543 243.302 625.53 246.44 624.773 248.689C624.064 250.931 622.519 252.872 620.138 254.51C616.858 256.82 613.303 257.42 609.476 256.31C605.66 255.218 602.346 252.589 599.532 248.424C597.905 246.061 596.704 243.955 595.929 242.105C595.184 240.262 594.64 238.253 594.297 236.08L602.746 230.266Z" fill="#000306"/>
<path d="M651.571 286.945C653.597 285.551 656.954 283.411 661.645 280.523L661.498 280.31L631.422 290.6L625.204 281.564L645.537 257.005L645.391 256.791C641.447 260.003 638.214 262.477 635.691 264.213L620.471 274.687L614.693 266.291L649.77 242.151L658.464 254.785L638.596 279.221L638.724 279.408L668.553 269.445L677.266 282.106L642.19 306.245L636.192 297.53L651.571 286.945ZM669.336 345.691L662.201 335.322L667.61 329.086L659.759 317.678L651.965 320.449L644.793 310.028L687.872 297.231L696.585 309.891L669.336 345.691ZM668.873 314.312L674.009 321.775C680.809 313.849 684.969 309.126 686.49 307.608C684.042 308.769 678.17 311.004 668.873 314.312ZM678.501 359.007L671.953 349.492L707.029 325.352L713.578 334.868L678.501 359.007ZM741.777 375.843L706.7 399.983L698.152 387.562L714.037 357.737L713.891 357.524C710.083 360.59 707.219 362.783 705.3 364.104L689.494 374.981L683.716 366.585L718.793 342.445L727.322 354.839L711.702 384.364L711.812 384.524C715.065 381.945 717.829 379.873 720.103 378.308L735.962 367.393L741.777 375.843ZM741.252 421.994L728.085 431.055L721.665 421.726L756.741 397.587L771.012 418.323L763.389 423.569L755.538 412.162L748.848 416.766L756.075 427.267L748.479 432.495L741.252 421.994ZM761.968 463.739L754.239 469.058L739.913 448.242L774.989 424.102L789.315 444.918L781.692 450.165L773.896 438.837L768.379 442.634L775.606 453.135L768.01 458.363L760.783 447.862L754.172 452.411L761.968 463.739ZM780.418 507.098L773.282 496.73L778.692 490.493L770.841 479.085L763.047 481.857L755.875 471.435L798.954 458.638L807.667 471.299L780.418 507.098ZM779.955 475.72L785.091 483.183C791.89 475.256 796.051 470.534 797.572 469.016C795.124 470.177 789.252 472.411 779.955 475.72ZM818.638 504.134L791.318 522.936L784.787 513.447L812.108 494.645L806.219 486.089L813.976 480.751L832.264 507.325L824.508 512.663L818.638 504.134ZM849.717 532.685L856.247 542.174L835.137 556.702C830.535 559.869 826.079 561.024 821.771 560.166C817.48 559.296 813.671 556.444 810.345 551.611C807.019 546.778 805.68 542.226 806.329 537.957C807.02 533.71 809.667 530.003 814.269 526.836L835.592 512.161L842.141 521.677L821.564 535.838C819.112 537.526 817.629 539.214 817.116 540.903C816.614 542.609 817.012 544.404 818.308 546.288C819.604 548.171 821.112 549.163 822.83 549.264C824.549 549.364 826.661 548.552 829.167 546.828L849.717 532.685ZM845.524 574.363L832.757 583.149L826.227 573.661L861.303 549.521L869.209 561.008C875.776 570.551 875.603 577.7 868.691 582.457C864.622 585.258 860.107 585.432 855.147 582.98L846.918 603.726L839.526 592.985L847.175 576.762L845.524 574.363ZM860.664 563.944L852.641 569.465L853.851 571.224C856.138 574.547 858.748 575.2 861.679 573.182C864.096 571.519 864.185 569.061 861.948 565.81L860.664 563.944ZM871.172 622.417L863.442 627.737L849.116 606.92L884.193 582.78L898.519 603.597L890.896 608.843L883.1 597.515L877.583 601.312L884.81 611.814L877.214 617.042L869.986 606.54L863.376 611.089L871.172 622.417ZM876.746 625.266C877.065 627.822 877.636 630.231 878.459 632.492C879.282 634.754 880.201 636.622 881.216 638.097C882.244 639.589 883.221 640.514 884.147 640.871C885.104 641.234 885.982 641.14 886.782 640.59C887.261 640.26 887.587 639.839 887.759 639.328C887.919 638.799 887.984 638.152 887.955 637.387C887.956 636.627 887.669 634.612 887.094 631.341C886.519 628.071 886.321 625.576 886.499 623.856C886.877 620.297 888.701 617.392 891.97 615.142C895.24 612.891 898.588 612.315 902.015 613.414C905.454 614.53 908.585 617.14 911.41 621.245C913.893 624.852 915.599 629.138 916.527 634.102L907.225 636.223C906.467 631.926 905.263 628.578 903.612 626.179C902.805 625.007 901.995 624.268 901.183 623.962C900.371 623.657 899.618 623.743 898.925 624.22C898.25 624.685 897.882 625.462 897.82 626.552C897.771 627.66 898.102 630.234 898.814 634.274C899.543 638.302 899.53 641.44 898.773 643.689C898.064 645.931 896.519 647.872 894.138 649.51C890.858 651.82 887.303 652.42 883.476 651.31C879.66 650.218 876.346 647.589 873.532 643.424C871.905 641.061 870.704 638.955 869.929 637.105C869.184 635.262 868.64 633.253 868.297 631.08L876.746 625.266Z" fill="#000306"/>
<path d="M398.571 -169.055C400.597 -170.449 403.954 -172.589 408.645 -175.477L408.498 -175.69L378.422 -165.4L372.204 -174.436L392.537 -198.995L392.391 -199.209C388.447 -195.997 385.214 -193.523 382.691 -191.787L367.471 -181.313L361.693 -189.709L396.77 -213.849L405.464 -201.215L385.596 -176.779L385.724 -176.592L415.553 -186.555L424.266 -173.894L389.19 -149.755L383.192 -158.47L398.571 -169.055ZM416.336 -110.309L409.201 -120.678L414.61 -126.914L406.759 -138.322L398.965 -135.551L391.793 -145.972L434.872 -158.769L443.585 -146.109L416.336 -110.309ZM415.873 -141.688L421.009 -134.225C427.809 -142.151 431.969 -146.874 433.49 -148.392C431.042 -147.231 425.17 -144.996 415.873 -141.688ZM425.501 -96.9925L418.953 -106.508L454.029 -130.648L460.578 -121.132L425.501 -96.9925ZM488.777 -80.1573L453.7 -56.0174L445.152 -68.4381L461.037 -98.2629L460.891 -98.4761C457.083 -95.4103 454.219 -93.2171 452.3 -91.8963L436.494 -81.0187L430.716 -89.4147L465.793 -113.555L474.322 -101.161L458.702 -71.6358L458.812 -71.4759C462.065 -74.0548 464.829 -76.127 467.103 -77.6923L482.962 -88.6065L488.777 -80.1573ZM488.252 -34.0064L475.085 -24.9447L468.665 -34.2736L503.741 -58.4134L518.012 -37.6767L510.389 -32.4305L502.538 -43.8384L495.848 -39.2342L503.075 -28.7326L495.479 -23.5047L488.252 -34.0064ZM508.968 7.73859L501.239 13.0582L486.913 -7.75849L521.989 -31.8983L536.315 -11.0817L528.692 -5.83549L520.896 -17.1634L515.379 -13.3663L522.606 -2.86468L515.01 2.36317L507.783 -8.13844L501.172 -3.58929L508.968 7.73859ZM527.418 51.098L520.282 40.7296L525.692 34.493L517.841 23.0851L510.047 25.8568L502.875 15.4351L545.954 2.63808L554.667 15.2986L527.418 51.098ZM526.955 19.7196L532.091 27.1827C538.89 19.2562 543.051 14.5338 544.572 13.0155C542.124 14.1765 536.252 16.4112 526.955 19.7196ZM565.638 48.1339L538.318 66.9359L531.787 57.4471L559.108 38.6452L553.219 30.0893L560.976 24.7514L579.264 51.3253L571.508 56.6632L565.638 48.1339ZM596.717 76.6849L603.247 86.1737L582.137 100.702C577.535 103.869 573.079 105.024 568.771 104.166C564.48 103.296 560.671 100.444 557.345 95.6109C554.019 90.7777 552.68 86.2263 553.329 81.9566C554.02 77.7102 556.667 74.0034 561.269 70.8361L582.592 56.1615L589.141 65.6769L568.564 79.8379C566.112 81.5255 564.629 83.2138 564.116 84.9026C563.614 86.6093 564.012 88.4044 565.308 90.2879C566.604 92.1715 568.112 93.1634 569.83 93.2636C571.549 93.3639 573.661 92.5519 576.167 90.8276L596.717 76.6849ZM592.524 118.363L579.757 127.149L573.227 117.661L608.303 93.5207L616.209 105.008C622.776 114.551 622.603 121.7 615.691 126.457C611.622 129.258 607.107 129.432 602.147 126.98L593.918 147.726L586.526 136.985L594.175 120.762L592.524 118.363ZM607.664 107.944L599.641 113.465L600.851 115.224C603.138 118.547 605.748 119.2 608.679 117.182C611.096 115.519 611.185 113.061 608.948 109.81L607.664 107.944ZM618.172 166.417L610.442 171.737L596.116 150.92L631.193 126.78L645.519 147.597L637.896 152.843L630.1 141.515L624.583 145.312L631.81 155.814L624.214 161.042L616.986 150.54L610.376 155.089L618.172 166.417ZM623.746 169.266C624.065 171.822 624.636 174.231 625.459 176.492C626.282 178.754 627.201 180.622 628.216 182.097C629.244 183.589 630.221 184.514 631.147 184.871C632.104 185.234 632.982 185.14 633.782 184.59C634.261 184.26 634.587 183.839 634.759 183.328C634.919 182.799 634.984 182.152 634.955 181.387C634.956 180.627 634.669 178.612 634.094 175.341C633.519 172.071 633.321 169.576 633.499 167.856C633.877 164.297 635.701 161.392 638.97 159.142C642.24 156.891 645.588 156.315 649.015 157.414C652.454 158.53 655.585 161.14 658.41 165.245C660.893 168.852 662.599 173.138 663.527 178.102L654.225 180.223C653.467 175.926 652.263 172.578 650.612 170.179C649.805 169.007 648.995 168.268 648.183 167.962C647.371 167.657 646.618 167.743 645.925 168.22C645.25 168.685 644.882 169.462 644.82 170.552C644.771 171.66 645.102 174.234 645.814 178.274C646.543 182.302 646.53 185.44 645.773 187.689C645.064 189.931 643.519 191.872 641.138 193.51C637.858 195.82 634.303 196.42 630.476 195.31C626.66 194.218 623.346 191.589 620.532 187.424C618.905 185.061 617.704 182.955 616.929 181.105C616.184 179.262 615.64 177.253 615.297 175.08L623.746 169.266Z" fill="#000306"/>
<path d="M671.571 225.945C673.597 224.551 676.954 222.411 681.645 219.523L681.498 219.31L651.422 229.6L645.204 220.564L665.537 196.005L665.391 195.791C661.447 199.003 658.214 201.477 655.691 203.213L640.471 213.687L634.693 205.291L669.77 181.151L678.464 193.785L658.596 218.221L658.724 218.408L688.553 208.445L697.266 221.106L662.19 245.245L656.192 236.53L671.571 225.945ZM689.336 284.691L682.201 274.322L687.61 268.086L679.759 256.678L671.965 259.449L664.793 249.028L707.872 236.231L716.585 248.891L689.336 284.691ZM688.873 253.312L694.009 260.775C700.809 252.849 704.969 248.126 706.49 246.608C704.042 247.769 698.17 250.004 688.873 253.312ZM698.501 298.007L691.953 288.492L727.029 264.352L733.578 273.868L698.501 298.007ZM761.777 314.843L726.7 338.983L718.152 326.562L734.037 296.737L733.891 296.524C730.083 299.59 727.219 301.783 725.3 303.104L709.494 313.981L703.716 305.585L738.793 281.445L747.322 293.839L731.702 323.364L731.812 323.524C735.065 320.945 737.829 318.873 740.103 317.308L755.962 306.393L761.777 314.843ZM761.252 360.994L748.085 370.055L741.665 360.726L776.741 336.587L791.012 357.323L783.389 362.569L775.538 351.162L768.848 355.766L776.075 366.267L768.479 371.495L761.252 360.994ZM781.968 402.739L774.239 408.058L759.913 387.242L794.989 363.102L809.315 383.918L801.692 389.165L793.896 377.837L788.379 381.634L795.606 392.135L788.01 397.363L780.783 386.862L774.172 391.411L781.968 402.739ZM800.418 446.098L793.282 435.73L798.692 429.493L790.841 418.085L783.047 420.857L775.875 410.435L818.954 397.638L827.667 410.299L800.418 446.098ZM799.955 414.72L805.091 422.183C811.89 414.256 816.051 409.534 817.572 408.016C815.124 409.177 809.252 411.411 799.955 414.72ZM838.638 443.134L811.318 461.936L804.787 452.447L832.108 433.645L826.219 425.089L833.976 419.751L852.264 446.325L844.508 451.663L838.638 443.134ZM869.717 471.685L876.247 481.174L855.137 495.702C850.535 498.869 846.079 500.024 841.771 499.166C837.48 498.296 833.671 495.444 830.345 490.611C827.019 485.778 825.68 481.226 826.329 476.957C827.02 472.71 829.667 469.003 834.269 465.836L855.592 451.161L862.141 460.677L841.564 474.838C839.112 476.526 837.629 478.214 837.116 479.903C836.614 481.609 837.012 483.404 838.308 485.288C839.604 487.171 841.112 488.163 842.83 488.264C844.549 488.364 846.661 487.552 849.167 485.828L869.717 471.685ZM865.524 513.363L852.757 522.149L846.227 512.661L881.303 488.521L889.209 500.008C895.776 509.551 895.603 516.7 888.691 521.457C884.622 524.258 880.107 524.432 875.147 521.98L866.918 542.726L859.526 531.985L867.175 515.762L865.524 513.363ZM880.664 502.944L872.641 508.465L873.851 510.224C876.138 513.547 878.748 514.2 881.679 512.182C884.096 510.519 884.185 508.061 881.948 504.81L880.664 502.944ZM891.172 561.417L883.442 566.737L869.116 545.92L904.193 521.78L918.519 542.597L910.896 547.843L903.1 536.515L897.583 540.312L904.81 550.814L897.214 556.042L889.986 545.54L883.376 550.089L891.172 561.417ZM896.746 564.266C897.065 566.822 897.636 569.231 898.459 571.492C899.282 573.754 900.201 575.622 901.216 577.097C902.244 578.589 903.221 579.514 904.147 579.871C905.104 580.234 905.982 580.14 906.782 579.59C907.261 579.26 907.587 578.839 907.759 578.328C907.919 577.799 907.984 577.152 907.955 576.387C907.956 575.627 907.669 573.612 907.094 570.341C906.519 567.071 906.321 564.576 906.499 562.856C906.877 559.297 908.701 556.392 911.97 554.142C915.24 551.891 918.588 551.315 922.015 552.414C925.454 553.53 928.585 556.14 931.41 560.245C933.893 563.852 935.599 568.138 936.527 573.102L927.225 575.223C926.467 570.926 925.263 567.578 923.612 565.179C922.805 564.007 921.995 563.268 921.183 562.962C920.371 562.657 919.618 562.743 918.925 563.22C918.25 563.685 917.882 564.462 917.82 565.552C917.771 566.66 918.102 569.234 918.814 573.274C919.543 577.302 919.53 580.44 918.773 582.689C918.064 584.931 916.519 586.872 914.138 588.51C910.858 590.82 907.303 591.42 903.476 590.31C899.66 589.218 896.346 586.589 893.532 582.424C891.905 580.061 890.704 577.955 889.929 576.105C889.184 574.262 888.64 572.253 888.297 570.08L896.746 564.266Z" fill="#000306"/>
<path d="M542.571 -50.0545C544.597 -51.4486 547.954 -53.5893 552.645 -56.4767L552.498 -56.6899L522.422 -46.4004L516.204 -55.4361L536.537 -79.9954L536.391 -80.2087C532.447 -76.9973 529.214 -74.5233 526.691 -72.7868L511.471 -62.3128L505.693 -70.7087L540.77 -94.8486L549.464 -82.2146L529.596 -57.7788L529.724 -57.5922L559.553 -67.555L568.266 -54.8944L533.19 -30.7546L527.192 -39.4704L542.571 -50.0545ZM560.336 8.69051L553.201 -1.67783L558.61 -7.91448L550.759 -19.3223L542.965 -16.5507L535.793 -26.9723L578.872 -39.7694L587.585 -27.1088L560.336 8.69051ZM559.873 -22.6878L565.009 -15.2248C571.809 -23.1513 575.969 -27.8737 577.49 -29.392C575.042 -28.231 569.17 -25.9963 559.873 -22.6878ZM569.501 22.0075L562.953 12.4921L598.029 -11.6478L604.578 -2.13235L569.501 22.0075ZM632.777 38.8427L597.7 62.9826L589.152 50.5619L605.037 20.7371L604.891 20.5239C601.083 23.5897 598.219 25.7829 596.3 27.1037L580.494 37.9813L574.716 29.5853L609.793 5.44546L618.322 17.8395L602.702 47.3642L602.812 47.5241C606.065 44.9452 608.829 42.873 611.103 41.3077L626.962 30.3935L632.777 38.8427ZM632.252 84.9936L619.085 94.0553L612.665 84.7264L647.741 60.5866L662.012 81.3233L654.389 86.5695L646.538 75.1616L639.848 79.7658L647.075 90.2674L639.479 95.4953L632.252 84.9936ZM652.968 126.739L645.239 132.058L630.913 111.242L665.989 87.1017L680.315 107.918L672.692 113.165L664.896 101.837L659.379 105.634L666.606 116.135L659.01 121.363L651.783 110.862L645.172 115.411L652.968 126.739ZM671.418 170.098L664.282 159.73L669.692 153.493L661.841 142.085L654.047 144.857L646.875 134.435L689.954 121.638L698.667 134.299L671.418 170.098ZM670.955 138.72L676.091 146.183C682.89 138.256 687.051 133.534 688.572 132.016C686.124 133.177 680.252 135.411 670.955 138.72ZM709.638 167.134L682.318 185.936L675.787 176.447L703.108 157.645L697.219 149.089L704.976 143.751L723.264 170.325L715.508 175.663L709.638 167.134ZM740.717 195.685L747.247 205.174L726.137 219.702C721.535 222.869 717.079 224.024 712.771 223.166C708.48 222.296 704.671 219.444 701.345 214.611C698.019 209.778 696.68 205.226 697.329 200.957C698.02 196.71 700.667 193.003 705.269 189.836L726.592 175.161L733.141 184.677L712.564 198.838C710.112 200.526 708.629 202.214 708.116 203.903C707.614 205.609 708.012 207.404 709.308 209.288C710.604 211.171 712.112 212.163 713.83 212.264C715.549 212.364 717.661 211.552 720.167 209.828L740.717 195.685ZM736.524 237.363L723.757 246.149L717.227 236.661L752.303 212.521L760.209 224.008C766.776 233.551 766.603 240.7 759.691 245.457C755.622 248.258 751.107 248.432 746.147 245.98L737.918 266.726L730.526 255.985L738.175 239.762L736.524 237.363ZM751.664 226.944L743.641 232.465L744.851 234.224C747.138 237.547 749.748 238.2 752.679 236.182C755.096 234.519 755.185 232.061 752.948 228.81L751.664 226.944ZM762.172 285.417L754.442 290.737L740.116 269.92L775.193 245.78L789.519 266.597L781.896 271.843L774.1 260.515L768.583 264.312L775.81 274.814L768.214 280.042L760.986 269.54L754.376 274.089L762.172 285.417ZM767.746 288.266C768.065 290.822 768.636 293.231 769.459 295.492C770.282 297.754 771.201 299.622 772.216 301.097C773.244 302.589 774.221 303.514 775.147 303.871C776.104 304.234 776.982 304.14 777.782 303.59C778.261 303.26 778.587 302.839 778.759 302.328C778.919 301.799 778.984 301.152 778.955 300.387C778.956 299.627 778.669 297.612 778.094 294.341C777.519 291.071 777.321 288.576 777.499 286.856C777.877 283.297 779.701 280.392 782.97 278.142C786.24 275.891 789.588 275.315 793.015 276.414C796.454 277.53 799.585 280.14 802.41 284.245C804.893 287.852 806.599 292.138 807.527 297.102L798.225 299.223C797.467 294.926 796.263 291.578 794.612 289.179C793.805 288.007 792.995 287.268 792.183 286.962C791.371 286.657 790.618 286.743 789.925 287.22C789.25 287.685 788.882 288.462 788.82 289.552C788.771 290.66 789.102 293.234 789.814 297.274C790.543 301.302 790.53 304.44 789.773 306.689C789.064 308.931 787.519 310.872 785.138 312.51C781.858 314.82 778.303 315.42 774.476 314.31C770.66 313.218 767.346 310.589 764.532 306.424C762.905 304.061 761.704 301.955 760.929 300.105C760.184 298.262 759.64 296.253 759.297 294.08L767.746 288.266Z" fill="#000306"/>
<path d="M815.571 346.945C817.597 345.551 820.954 343.411 825.645 340.523L825.498 340.31L795.422 350.6L789.204 341.564L809.537 317.005L809.391 316.791C805.447 320.003 802.214 322.477 799.691 324.213L784.471 334.687L778.693 326.291L813.77 302.151L822.464 314.785L802.596 339.221L802.724 339.408L832.553 329.445L841.266 342.106L806.19 366.245L800.192 357.53L815.571 346.945ZM833.336 405.691L826.201 395.322L831.61 389.086L823.759 377.678L815.965 380.449L808.793 370.028L851.872 357.231L860.585 369.891L833.336 405.691ZM832.873 374.312L838.009 381.775C844.809 373.849 848.969 369.126 850.49 367.608C848.042 368.769 842.17 371.004 832.873 374.312ZM842.501 419.007L835.953 409.492L871.029 385.352L877.578 394.868L842.501 419.007ZM905.777 435.843L870.7 459.983L862.152 447.562L878.037 417.737L877.891 417.524C874.083 420.59 871.219 422.783 869.3 424.104L853.494 434.981L847.716 426.585L882.793 402.445L891.322 414.839L875.702 444.364L875.812 444.524C879.065 441.945 881.829 439.873 884.103 438.308L899.962 427.393L905.777 435.843ZM905.252 481.994L892.085 491.055L885.665 481.726L920.741 457.587L935.012 478.323L927.389 483.569L919.538 472.162L912.848 476.766L920.075 487.267L912.479 492.495L905.252 481.994ZM925.968 523.739L918.239 529.058L903.913 508.242L938.989 484.102L953.315 504.918L945.692 510.165L937.896 498.837L932.379 502.634L939.606 513.135L932.01 518.363L924.783 507.862L918.172 512.411L925.968 523.739ZM944.418 567.098L937.282 556.73L942.692 550.493L934.841 539.085L927.047 541.857L919.875 531.435L962.954 518.638L971.667 531.299L944.418 567.098ZM943.955 535.72L949.091 543.183C955.89 535.256 960.051 530.534 961.572 529.016C959.124 530.177 953.252 532.411 943.955 535.72ZM982.638 564.134L955.318 582.936L948.787 573.447L976.108 554.645L970.219 546.089L977.976 540.751L996.264 567.325L988.508 572.663L982.638 564.134ZM1013.72 592.685L1020.25 602.174L999.137 616.702C994.535 619.869 990.079 621.024 985.771 620.166C981.48 619.296 977.671 616.444 974.345 611.611C971.019 606.778 969.68 602.226 970.329 597.957C971.02 593.71 973.667 590.003 978.269 586.836L999.592 572.161L1006.14 581.677L985.564 595.838C983.112 597.526 981.629 599.214 981.116 600.903C980.614 602.609 981.012 604.404 982.308 606.288C983.604 608.171 985.112 609.163 986.83 609.264C988.549 609.364 990.661 608.552 993.167 606.828L1013.72 592.685ZM1009.52 634.363L996.757 643.149L990.227 633.661L1025.3 609.521L1033.21 621.008C1039.78 630.551 1039.6 637.7 1032.69 642.457C1028.62 645.258 1024.11 645.432 1019.15 642.98L1010.92 663.726L1003.53 652.985L1011.18 636.762L1009.52 634.363ZM1024.66 623.944L1016.64 629.465L1017.85 631.224C1020.14 634.547 1022.75 635.2 1025.68 633.182C1028.1 631.519 1028.19 629.061 1025.95 625.81L1024.66 623.944ZM1035.17 682.417L1027.44 687.737L1013.12 666.92L1048.19 642.78L1062.52 663.597L1054.9 668.843L1047.1 657.515L1041.58 661.312L1048.81 671.814L1041.21 677.042L1033.99 666.54L1027.38 671.089L1035.17 682.417ZM1040.75 685.266C1041.06 687.822 1041.64 690.231 1042.46 692.492C1043.28 694.754 1044.2 696.622 1045.22 698.097C1046.24 699.589 1047.22 700.514 1048.15 700.871C1049.1 701.234 1049.98 701.14 1050.78 700.59C1051.26 700.26 1051.59 699.839 1051.76 699.328C1051.92 698.799 1051.98 698.152 1051.95 697.387C1051.96 696.627 1051.67 694.612 1051.09 691.341C1050.52 688.071 1050.32 685.576 1050.5 683.856C1050.88 680.297 1052.7 677.392 1055.97 675.142C1059.24 672.891 1062.59 672.315 1066.01 673.414C1069.45 674.53 1072.59 677.14 1075.41 681.245C1077.89 684.852 1079.6 689.138 1080.53 694.102L1071.22 696.223C1070.47 691.926 1069.26 688.578 1067.61 686.179C1066.81 685.007 1066 684.268 1065.18 683.962C1064.37 683.657 1063.62 683.743 1062.93 684.22C1062.25 684.685 1061.88 685.462 1061.82 686.552C1061.77 687.66 1062.1 690.234 1062.81 694.274C1063.54 698.302 1063.53 701.44 1062.77 703.689C1062.06 705.931 1060.52 707.872 1058.14 709.51C1054.86 711.82 1051.3 712.42 1047.48 711.31C1043.66 710.218 1040.35 707.589 1037.53 703.424C1035.91 701.061 1034.7 698.955 1033.93 697.105C1033.18 695.262 1032.64 693.253 1032.3 691.08L1040.75 685.266Z" fill="#000306"/>
<path d="M721.571 120.945C723.597 119.551 726.954 117.411 731.645 114.523L731.498 114.31L701.422 124.6L695.204 115.564L715.537 91.0046L715.391 90.7913C711.447 94.0027 708.214 96.4767 705.691 98.2132L690.471 108.687L684.693 100.291L719.77 76.1514L728.464 88.7854L708.596 113.221L708.724 113.408L738.553 103.445L747.266 116.106L712.19 140.245L706.192 131.53L721.571 120.945ZM739.336 179.691L732.201 169.322L737.61 163.086L729.759 151.678L721.965 154.449L714.793 144.028L757.872 131.231L766.585 143.891L739.336 179.691ZM738.873 148.312L744.009 155.775C750.809 147.849 754.969 143.126 756.49 141.608C754.042 142.769 748.17 145.004 738.873 148.312ZM748.501 193.007L741.953 183.492L777.029 159.352L783.578 168.868L748.501 193.007ZM811.777 209.843L776.7 233.983L768.152 221.562L784.037 191.737L783.891 191.524C780.083 194.59 777.219 196.783 775.3 198.104L759.494 208.981L753.716 200.585L788.793 176.445L797.322 188.839L781.702 218.364L781.812 218.524C785.065 215.945 787.829 213.873 790.103 212.308L805.962 201.393L811.777 209.843ZM811.252 255.994L798.085 265.055L791.665 255.726L826.741 231.587L841.012 252.323L833.389 257.569L825.538 246.162L818.848 250.766L826.075 261.267L818.479 266.495L811.252 255.994ZM831.968 297.739L824.239 303.058L809.913 282.242L844.989 258.102L859.315 278.918L851.692 284.165L843.896 272.837L838.379 276.634L845.606 287.135L838.01 292.363L830.783 281.862L824.172 286.411L831.968 297.739ZM850.418 341.098L843.282 330.73L848.692 324.493L840.841 313.085L833.047 315.857L825.875 305.435L868.954 292.638L877.667 305.299L850.418 341.098ZM849.955 309.72L855.091 317.183C861.89 309.256 866.051 304.534 867.572 303.016C865.124 304.177 859.252 306.411 849.955 309.72ZM888.638 338.134L861.318 356.936L854.787 347.447L882.108 328.645L876.219 320.089L883.976 314.751L902.264 341.325L894.508 346.663L888.638 338.134ZM919.717 366.685L926.247 376.174L905.137 390.702C900.535 393.869 896.079 395.024 891.771 394.166C887.48 393.296 883.671 390.444 880.345 385.611C877.019 380.778 875.68 376.226 876.329 371.957C877.02 367.71 879.667 364.003 884.269 360.836L905.592 346.161L912.141 355.677L891.564 369.838C889.112 371.526 887.629 373.214 887.116 374.903C886.614 376.609 887.012 378.404 888.308 380.288C889.604 382.171 891.112 383.163 892.83 383.264C894.549 383.364 896.661 382.552 899.167 380.828L919.717 366.685ZM915.524 408.363L902.757 417.149L896.227 407.661L931.303 383.521L939.209 395.008C945.776 404.551 945.603 411.7 938.691 416.457C934.622 419.258 930.107 419.432 925.147 416.98L916.918 437.726L909.526 426.985L917.175 410.762L915.524 408.363ZM930.664 397.944L922.641 403.465L923.851 405.224C926.138 408.547 928.748 409.2 931.679 407.182C934.096 405.519 934.185 403.061 931.948 399.81L930.664 397.944ZM941.172 456.417L933.442 461.737L919.116 440.92L954.193 416.78L968.519 437.597L960.896 442.843L953.1 431.515L947.583 435.312L954.81 445.814L947.214 451.042L939.986 440.54L933.376 445.089L941.172 456.417ZM946.746 459.266C947.065 461.822 947.636 464.231 948.459 466.492C949.282 468.754 950.201 470.622 951.216 472.097C952.244 473.589 953.221 474.514 954.147 474.871C955.104 475.234 955.982 475.14 956.782 474.59C957.261 474.26 957.587 473.839 957.759 473.328C957.919 472.799 957.984 472.152 957.955 471.387C957.956 470.627 957.669 468.612 957.094 465.341C956.519 462.071 956.321 459.576 956.499 457.856C956.877 454.297 958.701 451.392 961.97 449.142C965.24 446.891 968.588 446.315 972.015 447.414C975.454 448.53 978.585 451.14 981.41 455.245C983.893 458.852 985.599 463.138 986.527 468.102L977.225 470.223C976.467 465.926 975.263 462.578 973.612 460.179C972.805 459.007 971.995 458.268 971.183 457.962C970.371 457.657 969.618 457.743 968.925 458.22C968.25 458.685 967.882 459.462 967.82 460.552C967.771 461.66 968.102 464.234 968.814 468.274C969.543 472.302 969.53 475.44 968.773 477.689C968.064 479.931 966.519 481.872 964.138 483.51C960.858 485.82 957.303 486.42 953.476 485.31C949.66 484.218 946.346 481.589 943.532 477.424C941.905 475.061 940.704 472.955 939.929 471.105C939.184 469.262 938.64 467.253 938.297 465.08L946.746 459.266Z" fill="#000306"/>
<path d="M721.571 28.9455C723.597 27.5514 726.954 25.4107 731.645 22.5233L731.498 22.3101L701.422 32.5996L695.204 23.5639L715.537 -0.995435L715.391 -1.20867C711.447 2.00274 708.214 4.4767 705.691 6.2132L690.471 16.6872L684.693 8.29129L719.77 -15.8486L728.464 -3.21463L708.596 21.2212L708.724 21.4078L738.553 11.445L747.266 24.1056L712.19 48.2454L706.192 39.5296L721.571 28.9455ZM739.336 87.6905L732.201 77.3222L737.61 71.0855L729.759 59.6777L721.965 62.4493L714.793 52.0277L757.872 39.2306L766.585 51.8912L739.336 87.6905ZM738.873 56.3122L744.009 63.7752C750.809 55.8487 754.969 51.1263 756.49 49.608C754.042 50.769 748.17 53.0037 738.873 56.3122ZM748.501 101.007L741.953 91.4921L777.029 67.3522L783.578 76.8676L748.501 101.007ZM811.777 117.843L776.7 141.983L768.152 129.562L784.037 99.7371L783.891 99.5239C780.083 102.59 777.219 104.783 775.3 106.104L759.494 116.981L753.716 108.585L788.793 84.4455L797.322 96.8395L781.702 126.364L781.812 126.524C785.065 123.945 787.829 121.873 790.103 120.308L805.962 109.393L811.777 117.843ZM811.252 163.994L798.085 173.055L791.665 163.726L826.741 139.587L841.012 160.323L833.389 165.569L825.538 154.162L818.848 158.766L826.075 169.267L818.479 174.495L811.252 163.994ZM831.968 205.739L824.239 211.058L809.913 190.242L844.989 166.102L859.315 186.918L851.692 192.165L843.896 180.837L838.379 184.634L845.606 195.135L838.01 200.363L830.783 189.862L824.172 194.411L831.968 205.739ZM850.418 249.098L843.282 238.73L848.692 232.493L840.841 221.085L833.047 223.857L825.875 213.435L868.954 200.638L877.667 213.299L850.418 249.098ZM849.955 217.72L855.091 225.183C861.89 217.256 866.051 212.534 867.572 211.016C865.124 212.177 859.252 214.411 849.955 217.72ZM888.638 246.134L861.318 264.936L854.787 255.447L882.108 236.645L876.219 228.089L883.976 222.751L902.264 249.325L894.508 254.663L888.638 246.134ZM919.717 274.685L926.247 284.174L905.137 298.702C900.535 301.869 896.079 303.024 891.771 302.166C887.48 301.296 883.671 298.444 880.345 293.611C877.019 288.778 875.68 284.226 876.329 279.957C877.02 275.71 879.667 272.003 884.269 268.836L905.592 254.161L912.141 263.677L891.564 277.838C889.112 279.526 887.629 281.214 887.116 282.903C886.614 284.609 887.012 286.404 888.308 288.288C889.604 290.171 891.112 291.163 892.83 291.264C894.549 291.364 896.661 290.552 899.167 288.828L919.717 274.685ZM915.524 316.363L902.757 325.149L896.227 315.661L931.303 291.521L939.209 303.008C945.776 312.551 945.603 319.7 938.691 324.457C934.622 327.258 930.107 327.432 925.147 324.98L916.918 345.726L909.526 334.985L917.175 318.762L915.524 316.363ZM930.664 305.944L922.641 311.465L923.851 313.224C926.138 316.547 928.748 317.2 931.679 315.182C934.096 313.519 934.185 311.061 931.948 307.81L930.664 305.944ZM941.172 364.417L933.442 369.737L919.116 348.92L954.193 324.78L968.519 345.597L960.896 350.843L953.1 339.515L947.583 343.312L954.81 353.814L947.214 359.042L939.986 348.54L933.376 353.089L941.172 364.417ZM946.746 367.266C947.065 369.822 947.636 372.231 948.459 374.492C949.282 376.754 950.201 378.622 951.216 380.097C952.244 381.589 953.221 382.514 954.147 382.871C955.104 383.234 955.982 383.14 956.782 382.59C957.261 382.26 957.587 381.839 957.759 381.328C957.919 380.799 957.984 380.152 957.955 379.387C957.956 378.627 957.669 376.612 957.094 373.341C956.519 370.071 956.321 367.576 956.499 365.856C956.877 362.297 958.701 359.392 961.97 357.142C965.24 354.891 968.588 354.315 972.015 355.414C975.454 356.53 978.585 359.14 981.41 363.245C983.893 366.852 985.599 371.138 986.527 376.102L977.225 378.223C976.467 373.926 975.263 370.578 973.612 368.179C972.805 367.007 971.995 366.268 971.183 365.962C970.371 365.657 969.618 365.743 968.925 366.22C968.25 366.685 967.882 367.462 967.82 368.552C967.771 369.66 968.102 372.234 968.814 376.274C969.543 380.302 969.53 383.44 968.773 385.689C968.064 387.931 966.519 389.872 964.138 391.51C960.858 393.82 957.303 394.42 953.476 393.31C949.66 392.218 946.346 389.589 943.532 385.424C941.905 383.061 940.704 380.955 939.929 379.105C939.184 377.262 938.64 375.253 938.297 373.08L946.746 367.266Z" fill="#000306"/>
<path d="M815.571 76.9455C817.597 75.5514 820.954 73.4107 825.645 70.5233L825.498 70.3101L795.422 80.5996L789.204 71.5639L809.537 47.0046L809.391 46.7913C805.447 50.0027 802.214 52.4767 799.691 54.2132L784.471 64.6872L778.693 56.2913L813.77 32.1514L822.464 44.7854L802.596 69.2212L802.724 69.4078L832.553 59.445L841.266 72.1056L806.19 96.2454L800.192 87.5296L815.571 76.9455ZM833.336 135.691L826.201 125.322L831.61 119.086L823.759 107.678L815.965 110.449L808.793 100.028L851.872 87.2306L860.585 99.8912L833.336 135.691ZM832.873 104.312L838.009 111.775C844.809 103.849 848.969 99.1263 850.49 97.608C848.042 98.769 842.17 101.004 832.873 104.312ZM842.501 149.007L835.953 139.492L871.029 115.352L877.578 124.868L842.501 149.007ZM905.777 165.843L870.7 189.983L862.152 177.562L878.037 147.737L877.891 147.524C874.083 150.59 871.219 152.783 869.3 154.104L853.494 164.981L847.716 156.585L882.793 132.445L891.322 144.839L875.702 174.364L875.812 174.524C879.065 171.945 881.829 169.873 884.103 168.308L899.962 157.393L905.777 165.843ZM905.252 211.994L892.085 221.055L885.665 211.726L920.741 187.587L935.012 208.323L927.389 213.569L919.538 202.162L912.848 206.766L920.075 217.267L912.479 222.495L905.252 211.994ZM925.968 253.739L918.239 259.058L903.913 238.242L938.989 214.102L953.315 234.918L945.692 240.165L937.896 228.837L932.379 232.634L939.606 243.135L932.01 248.363L924.783 237.862L918.172 242.411L925.968 253.739ZM944.418 297.098L937.282 286.73L942.692 280.493L934.841 269.085L927.047 271.857L919.875 261.435L962.954 248.638L971.667 261.299L944.418 297.098ZM943.955 265.72L949.091 273.183C955.89 265.256 960.051 260.534 961.572 259.016C959.124 260.177 953.252 262.411 943.955 265.72ZM982.638 294.134L955.318 312.936L948.787 303.447L976.108 284.645L970.219 276.089L977.976 270.751L996.264 297.325L988.508 302.663L982.638 294.134ZM1013.72 322.685L1020.25 332.174L999.137 346.702C994.535 349.869 990.079 351.024 985.771 350.166C981.48 349.296 977.671 346.444 974.345 341.611C971.019 336.778 969.68 332.226 970.329 327.957C971.02 323.71 973.667 320.003 978.269 316.836L999.592 302.161L1006.14 311.677L985.564 325.838C983.112 327.526 981.629 329.214 981.116 330.903C980.614 332.609 981.012 334.404 982.308 336.288C983.604 338.171 985.112 339.163 986.83 339.264C988.549 339.364 990.661 338.552 993.167 336.828L1013.72 322.685ZM1009.52 364.363L996.757 373.149L990.227 363.661L1025.3 339.521L1033.21 351.008C1039.78 360.551 1039.6 367.7 1032.69 372.457C1028.62 375.258 1024.11 375.432 1019.15 372.98L1010.92 393.726L1003.53 382.985L1011.18 366.762L1009.52 364.363ZM1024.66 353.944L1016.64 359.465L1017.85 361.224C1020.14 364.547 1022.75 365.2 1025.68 363.182C1028.1 361.519 1028.19 359.061 1025.95 355.81L1024.66 353.944ZM1035.17 412.417L1027.44 417.737L1013.12 396.92L1048.19 372.78L1062.52 393.597L1054.9 398.843L1047.1 387.515L1041.58 391.312L1048.81 401.814L1041.21 407.042L1033.99 396.54L1027.38 401.089L1035.17 412.417ZM1040.75 415.266C1041.06 417.822 1041.64 420.231 1042.46 422.492C1043.28 424.754 1044.2 426.622 1045.22 428.097C1046.24 429.589 1047.22 430.514 1048.15 430.871C1049.1 431.234 1049.98 431.14 1050.78 430.59C1051.26 430.26 1051.59 429.839 1051.76 429.328C1051.92 428.799 1051.98 428.152 1051.95 427.387C1051.96 426.627 1051.67 424.612 1051.09 421.341C1050.52 418.071 1050.32 415.576 1050.5 413.856C1050.88 410.297 1052.7 407.392 1055.97 405.142C1059.24 402.891 1062.59 402.315 1066.01 403.414C1069.45 404.53 1072.59 407.14 1075.41 411.245C1077.89 414.852 1079.6 419.138 1080.53 424.102L1071.22 426.223C1070.47 421.926 1069.26 418.578 1067.61 416.179C1066.81 415.007 1066 414.268 1065.18 413.962C1064.37 413.657 1063.62 413.743 1062.93 414.22C1062.25 414.685 1061.88 415.462 1061.82 416.552C1061.77 417.66 1062.1 420.234 1062.81 424.274C1063.54 428.302 1063.53 431.44 1062.77 433.689C1062.06 435.931 1060.52 437.872 1058.14 439.51C1054.86 441.82 1051.3 442.42 1047.48 441.31C1043.66 440.218 1040.35 437.589 1037.53 433.424C1035.91 431.061 1034.7 428.955 1033.93 427.105C1033.18 425.262 1032.64 423.253 1032.3 421.08L1040.75 415.266Z" fill="#000306"/>
<path d="M448.571 -275.055C450.597 -276.449 453.954 -278.589 458.645 -281.477L458.498 -281.69L428.422 -271.4L422.204 -280.436L442.537 -304.995L442.391 -305.209C438.447 -301.997 435.214 -299.523 432.691 -297.787L417.471 -287.313L411.693 -295.709L446.77 -319.849L455.464 -307.215L435.596 -282.779L435.724 -282.592L465.553 -292.555L474.266 -279.894L439.19 -255.755L433.192 -264.47L448.571 -275.055ZM466.336 -216.309L459.201 -226.678L464.61 -232.914L456.759 -244.322L448.965 -241.551L441.793 -251.972L484.872 -264.769L493.585 -252.109L466.336 -216.309ZM465.873 -247.688L471.009 -240.225C477.809 -248.151 481.969 -252.874 483.49 -254.392C481.042 -253.231 475.17 -250.996 465.873 -247.688ZM475.501 -202.993L468.953 -212.508L504.029 -236.648L510.578 -227.132L475.501 -202.993ZM538.777 -186.157L503.7 -162.017L495.152 -174.438L511.037 -204.263L510.891 -204.476C507.083 -201.41 504.219 -199.217 502.3 -197.896L486.494 -187.019L480.716 -195.415L515.793 -219.555L524.322 -207.161L508.702 -177.636L508.812 -177.476C512.065 -180.055 514.829 -182.127 517.103 -183.692L532.962 -194.607L538.777 -186.157ZM538.252 -140.006L525.085 -130.945L518.665 -140.274L553.741 -164.413L568.012 -143.677L560.389 -138.431L552.538 -149.838L545.848 -145.234L553.075 -134.733L545.479 -129.505L538.252 -140.006ZM558.968 -98.2614L551.239 -92.9418L536.913 -113.758L571.989 -137.898L586.315 -117.082L578.692 -111.835L570.896 -123.163L565.379 -119.366L572.606 -108.865L565.01 -103.637L557.783 -114.138L551.172 -109.589L558.968 -98.2614ZM577.418 -54.902L570.282 -65.2704L575.692 -71.507L567.841 -82.9149L560.047 -80.1432L552.875 -90.5649L595.954 -103.362L604.667 -90.7014L577.418 -54.902ZM576.955 -86.2804L582.091 -78.8173C588.89 -86.7438 593.051 -91.4662 594.572 -92.9845C592.124 -91.8235 586.252 -89.5888 576.955 -86.2804ZM615.638 -57.8661L588.318 -39.0641L581.787 -48.5529L609.108 -67.3548L603.219 -75.9107L610.976 -81.2486L629.264 -54.6747L621.508 -49.3368L615.638 -57.8661ZM646.717 -29.3151L653.247 -19.8263L632.137 -5.29839C627.535 -2.1311 623.079 -0.976362 618.771 -1.83416C614.48 -2.7042 610.671 -5.55583 607.345 -10.3891C604.019 -15.2223 602.68 -19.7737 603.329 -24.0434C604.02 -28.2898 606.667 -31.9966 611.269 -35.1639L632.592 -49.8385L639.141 -40.3231L618.564 -26.1621C616.112 -24.4745 614.629 -22.7862 614.116 -21.0974C613.614 -19.3907 614.012 -17.5956 615.308 -15.7121C616.604 -13.8285 618.112 -12.8366 619.83 -12.7364C621.549 -12.6361 623.661 -13.4481 626.167 -15.1724L646.717 -29.3151ZM642.524 12.3628L629.757 21.1493L623.227 11.6605L658.303 -12.4793L666.209 -0.991526C672.776 8.55055 672.603 15.7001 665.691 20.4571C661.622 23.2576 657.107 23.4319 652.147 20.9802L643.918 41.726L636.526 30.9845L644.175 14.7617L642.524 12.3628ZM657.664 1.9438L649.641 7.46514L650.851 9.2243C653.138 12.5471 655.748 13.1997 658.679 11.1819C661.096 9.51878 661.185 7.06133 658.948 3.80956L657.664 1.9438ZM668.172 60.4173L660.442 65.7369L646.116 44.9202L681.193 20.7804L695.519 41.597L687.896 46.8432L680.1 35.5154L674.583 39.3124L681.81 49.814L674.214 55.0419L666.986 44.5403L660.376 49.0894L668.172 60.4173ZM673.746 63.2657C674.065 65.8218 674.636 68.2306 675.459 70.4921C676.282 72.7536 677.201 74.6217 678.216 76.0966C679.244 77.5892 680.221 78.5141 681.147 78.8714C682.104 79.2342 682.982 79.1405 683.782 78.5902C684.261 78.26 684.587 77.8394 684.759 77.3282C684.919 76.7994 684.984 76.1522 684.955 75.3868C684.956 74.6269 684.669 72.6118 684.094 69.3414C683.519 66.0711 683.321 63.576 683.499 61.8562C683.877 58.2966 685.701 55.3917 688.97 53.1416C692.24 50.8914 695.588 50.3155 699.015 51.4137C702.454 52.5296 705.585 55.1399 708.41 59.2446C710.893 62.8518 712.599 67.1375 713.527 72.1019L704.225 74.2227C703.467 69.9259 702.263 66.5781 700.612 64.1793C699.805 63.0065 698.995 62.2676 698.183 61.9625C697.371 61.6573 696.618 61.7432 695.925 62.2202C695.25 62.6849 694.882 63.4622 694.82 64.552C694.771 65.6597 695.102 68.2336 695.814 72.2737C696.543 76.3016 696.53 79.4401 695.773 81.689C695.064 83.9312 693.519 85.8716 691.138 87.5103C687.858 89.8204 684.303 90.4204 680.476 89.3102C676.66 88.2177 673.346 85.5891 670.532 81.4245C668.905 79.0611 667.704 76.9548 666.929 75.1055C666.184 73.2617 665.64 71.2533 665.297 69.0805L673.746 63.2657Z" fill="#000306"/>
<path d="M1029.57 287.945C1031.6 286.551 1034.95 284.411 1039.64 281.523L1039.5 281.31L1009.42 291.6L1003.2 282.564L1023.54 258.005L1023.39 257.791C1019.45 261.003 1016.21 263.477 1013.69 265.213L998.471 275.687L992.693 267.291L1027.77 243.151L1036.46 255.785L1016.6 280.221L1016.72 280.408L1046.55 270.445L1055.27 283.106L1020.19 307.245L1014.19 298.53L1029.57 287.945ZM1047.34 346.691L1040.2 336.322L1045.61 330.086L1037.76 318.678L1029.97 321.449L1022.79 311.028L1065.87 298.231L1074.58 310.891L1047.34 346.691ZM1046.87 315.312L1052.01 322.775C1058.81 314.849 1062.97 310.126 1064.49 308.608C1062.04 309.769 1056.17 312.004 1046.87 315.312ZM1056.5 360.007L1049.95 350.492L1085.03 326.352L1091.58 335.868L1056.5 360.007ZM1119.78 376.843L1084.7 400.983L1076.15 388.562L1092.04 358.737L1091.89 358.524C1088.08 361.59 1085.22 363.783 1083.3 365.104L1067.49 375.981L1061.72 367.585L1096.79 343.445L1105.32 355.839L1089.7 385.364L1089.81 385.524C1093.06 382.945 1095.83 380.873 1098.1 379.308L1113.96 368.393L1119.78 376.843ZM1119.25 422.994L1106.08 432.055L1099.66 422.726L1134.74 398.587L1149.01 419.323L1141.39 424.569L1133.54 413.162L1126.85 417.766L1134.08 428.267L1126.48 433.495L1119.25 422.994ZM1139.97 464.739L1132.24 470.058L1117.91 449.242L1152.99 425.102L1167.32 445.918L1159.69 451.165L1151.9 439.837L1146.38 443.634L1153.61 454.135L1146.01 459.363L1138.78 448.862L1132.17 453.411L1139.97 464.739ZM1158.42 508.098L1151.28 497.73L1156.69 491.493L1148.84 480.085L1141.05 482.857L1133.87 472.435L1176.95 459.638L1185.67 472.299L1158.42 508.098ZM1157.95 476.72L1163.09 484.183C1169.89 476.256 1174.05 471.534 1175.57 470.016C1173.12 471.177 1167.25 473.411 1157.95 476.72ZM1196.64 505.134L1169.32 523.936L1162.79 514.447L1190.11 495.645L1184.22 487.089L1191.98 481.751L1210.26 508.325L1202.51 513.663L1196.64 505.134ZM1227.72 533.685L1234.25 543.174L1213.14 557.702C1208.53 560.869 1204.08 562.024 1199.77 561.166C1195.48 560.296 1191.67 557.444 1188.35 552.611C1185.02 547.778 1183.68 543.226 1184.33 538.957C1185.02 534.71 1187.67 531.003 1192.27 527.836L1213.59 513.161L1220.14 522.677L1199.56 536.838C1197.11 538.526 1195.63 540.214 1195.12 541.903C1194.61 543.609 1195.01 545.404 1196.31 547.288C1197.6 549.171 1199.11 550.163 1200.83 550.264C1202.55 550.364 1204.66 549.552 1207.17 547.828L1227.72 533.685ZM1223.52 575.363L1210.76 584.149L1204.23 574.661L1239.3 550.521L1247.21 562.008C1253.78 571.551 1253.6 578.7 1246.69 583.457C1242.62 586.258 1238.11 586.432 1233.15 583.98L1224.92 604.726L1217.53 593.985L1225.18 577.762L1223.52 575.363ZM1238.66 564.944L1230.64 570.465L1231.85 572.224C1234.14 575.547 1236.75 576.2 1239.68 574.182C1242.1 572.519 1242.19 570.061 1239.95 566.81L1238.66 564.944ZM1249.17 623.417L1241.44 628.737L1227.12 607.92L1262.19 583.78L1276.52 604.597L1268.9 609.843L1261.1 598.515L1255.58 602.312L1262.81 612.814L1255.21 618.042L1247.99 607.54L1241.38 612.089L1249.17 623.417ZM1254.75 626.266C1255.06 628.822 1255.64 631.231 1256.46 633.492C1257.28 635.754 1258.2 637.622 1259.22 639.097C1260.24 640.589 1261.22 641.514 1262.15 641.871C1263.1 642.234 1263.98 642.14 1264.78 641.59C1265.26 641.26 1265.59 640.839 1265.76 640.328C1265.92 639.799 1265.98 639.152 1265.95 638.387C1265.96 637.627 1265.67 635.612 1265.09 632.341C1264.52 629.071 1264.32 626.576 1264.5 624.856C1264.88 621.297 1266.7 618.392 1269.97 616.142C1273.24 613.891 1276.59 613.315 1280.01 614.414C1283.45 615.53 1286.59 618.14 1289.41 622.245C1291.89 625.852 1293.6 630.138 1294.53 635.102L1285.22 637.223C1284.47 632.926 1283.26 629.578 1281.61 627.179C1280.81 626.007 1280 625.268 1279.18 624.962C1278.37 624.657 1277.62 624.743 1276.93 625.22C1276.25 625.685 1275.88 626.462 1275.82 627.552C1275.77 628.66 1276.1 631.234 1276.81 635.274C1277.54 639.302 1277.53 642.44 1276.77 644.689C1276.06 646.931 1274.52 648.872 1272.14 650.51C1268.86 652.82 1265.3 653.42 1261.48 652.31C1257.66 651.218 1254.35 648.589 1251.53 644.424C1249.91 642.061 1248.7 639.955 1247.93 638.105C1247.18 636.262 1246.64 634.253 1246.3 632.08L1254.75 626.266Z" fill="#000306"/>
<path d="M756.571 -108.055C758.597 -109.449 761.954 -111.589 766.645 -114.477L766.498 -114.69L736.422 -104.4L730.204 -113.436L750.537 -137.995L750.391 -138.209C746.447 -134.997 743.214 -132.523 740.691 -130.787L725.471 -120.313L719.693 -128.709L754.77 -152.849L763.464 -140.215L743.596 -115.779L743.724 -115.592L773.553 -125.555L782.266 -112.894L747.19 -88.7546L741.192 -97.4704L756.571 -108.055ZM774.336 -49.3095L767.201 -59.6778L772.61 -65.9145L764.759 -77.3223L756.965 -74.5507L749.793 -84.9723L792.872 -97.7694L801.585 -85.1088L774.336 -49.3095ZM773.873 -80.6878L779.009 -73.2248C785.809 -81.1513 789.969 -85.8737 791.49 -87.392C789.042 -86.231 783.17 -83.9963 773.873 -80.6878ZM783.501 -35.9925L776.953 -45.5079L812.029 -69.6478L818.578 -60.1324L783.501 -35.9925ZM846.777 -19.1573L811.7 4.98256L803.152 -7.43813L819.037 -37.2629L818.891 -37.4761C815.083 -34.4103 812.219 -32.2171 810.3 -30.8963L794.494 -20.0187L788.716 -28.4147L823.793 -52.5545L832.322 -40.1605L816.702 -10.6358L816.812 -10.4759C820.065 -13.0548 822.829 -15.127 825.103 -16.6923L840.962 -27.6065L846.777 -19.1573ZM846.252 26.9936L833.085 36.0553L826.665 26.7264L861.741 2.58657L876.012 23.3233L868.389 28.5695L860.538 17.1616L853.848 21.7658L861.075 32.2674L853.479 37.4953L846.252 26.9936ZM866.968 68.7386L859.239 74.0582L844.913 53.2415L879.989 29.1017L894.315 49.9183L886.692 55.1645L878.896 43.8366L873.379 47.6337L880.606 58.1353L873.01 63.3632L865.783 52.8616L859.172 57.4107L866.968 68.7386ZM885.418 112.098L878.282 101.73L883.692 95.493L875.841 84.0851L868.047 86.8568L860.875 76.4351L903.954 63.6381L912.667 76.2986L885.418 112.098ZM884.955 80.7196L890.091 88.1827C896.89 80.2562 901.051 75.5338 902.572 74.0155C900.124 75.1765 894.252 77.4112 884.955 80.7196ZM923.638 109.134L896.318 127.936L889.787 118.447L917.108 99.6452L911.219 91.0893L918.976 85.7514L937.264 112.325L929.508 117.663L923.638 109.134ZM954.717 137.685L961.247 147.174L940.137 161.702C935.535 164.869 931.079 166.024 926.771 165.166C922.48 164.296 918.671 161.444 915.345 156.611C912.019 151.778 910.68 147.226 911.329 142.957C912.02 138.71 914.667 135.003 919.269 131.836L940.592 117.161L947.141 126.677L926.564 140.838C924.112 142.526 922.629 144.214 922.116 145.903C921.614 147.609 922.012 149.404 923.308 151.288C924.604 153.171 926.112 154.163 927.83 154.264C929.549 154.364 931.661 153.552 934.167 151.828L954.717 137.685ZM950.524 179.363L937.757 188.149L931.227 178.661L966.303 154.521L974.209 166.008C980.776 175.551 980.603 182.7 973.691 187.457C969.622 190.258 965.107 190.432 960.147 187.98L951.918 208.726L944.526 197.985L952.175 181.762L950.524 179.363ZM965.664 168.944L957.641 174.465L958.851 176.224C961.138 179.547 963.748 180.2 966.679 178.182C969.096 176.519 969.185 174.061 966.948 170.81L965.664 168.944ZM976.172 227.417L968.442 232.737L954.116 211.92L989.193 187.78L1003.52 208.597L995.896 213.843L988.1 202.515L982.583 206.312L989.81 216.814L982.214 222.042L974.986 211.54L968.376 216.089L976.172 227.417ZM981.746 230.266C982.065 232.822 982.636 235.231 983.459 237.492C984.282 239.754 985.201 241.622 986.216 243.097C987.244 244.589 988.221 245.514 989.147 245.871C990.104 246.234 990.982 246.14 991.782 245.59C992.261 245.26 992.587 244.839 992.759 244.328C992.919 243.799 992.984 243.152 992.955 242.387C992.956 241.627 992.669 239.612 992.094 236.341C991.519 233.071 991.321 230.576 991.499 228.856C991.877 225.297 993.701 222.392 996.97 220.142C1000.24 217.891 1003.59 217.315 1007.01 218.414C1010.45 219.53 1013.59 222.14 1016.41 226.245C1018.89 229.852 1020.6 234.138 1021.53 239.102L1012.22 241.223C1011.47 236.926 1010.26 233.578 1008.61 231.179C1007.81 230.007 1007 229.268 1006.18 228.962C1005.37 228.657 1004.62 228.743 1003.93 229.22C1003.25 229.685 1002.88 230.462 1002.82 231.552C1002.77 232.66 1003.1 235.234 1003.81 239.274C1004.54 243.302 1004.53 246.44 1003.77 248.689C1003.06 250.931 1001.52 252.872 999.138 254.51C995.858 256.82 992.303 257.42 988.476 256.31C984.66 255.218 981.346 252.589 978.532 248.424C976.905 246.061 975.704 243.955 974.929 242.105C974.184 240.262 973.64 238.253 973.297 236.08L981.746 230.266Z" fill="#000306"/>
<path d="M908.571 15.9455C910.597 14.5514 913.954 12.4107 918.645 9.52328L918.498 9.31005L888.422 19.5996L882.204 10.5639L902.537 -13.9954L902.391 -14.2087C898.447 -10.9973 895.214 -8.5233 892.691 -6.7868L877.471 3.68725L871.693 -4.70871L906.77 -28.8486L915.464 -16.2146L895.596 8.2212L895.724 8.40778L925.553 -1.55502L934.266 11.1056L899.19 35.2454L893.192 26.5296L908.571 15.9455ZM926.336 74.6905L919.201 64.3222L924.61 58.0855L916.759 46.6777L908.965 49.4493L901.793 39.0277L944.872 26.2306L953.585 38.8912L926.336 74.6905ZM925.873 43.3122L931.009 50.7752C937.809 42.8487 941.969 38.1263 943.49 36.608C941.042 37.769 935.17 40.0037 925.873 43.3122ZM935.501 88.0075L928.953 78.4921L964.029 54.3522L970.578 63.8676L935.501 88.0075ZM998.777 104.843L963.7 128.983L955.152 116.562L971.037 86.7371L970.891 86.5239C967.083 89.5897 964.219 91.7829 962.3 93.1037L946.494 103.981L940.716 95.5853L975.793 71.4455L984.322 83.8395L968.702 113.364L968.812 113.524C972.065 110.945 974.829 108.873 977.103 107.308L992.962 96.3935L998.777 104.843ZM998.252 150.994L985.085 160.055L978.665 150.726L1013.74 126.587L1028.01 147.323L1020.39 152.569L1012.54 141.162L1005.85 145.766L1013.08 156.267L1005.48 161.495L998.252 150.994ZM1018.97 192.739L1011.24 198.058L996.913 177.242L1031.99 153.102L1046.32 173.918L1038.69 179.165L1030.9 167.837L1025.38 171.634L1032.61 182.135L1025.01 187.363L1017.78 176.862L1011.17 181.411L1018.97 192.739ZM1037.42 236.098L1030.28 225.73L1035.69 219.493L1027.84 208.085L1020.05 210.857L1012.87 200.435L1055.95 187.638L1064.67 200.299L1037.42 236.098ZM1036.95 204.72L1042.09 212.183C1048.89 204.256 1053.05 199.534 1054.57 198.016C1052.12 199.177 1046.25 201.411 1036.95 204.72ZM1075.64 233.134L1048.32 251.936L1041.79 242.447L1069.11 223.645L1063.22 215.089L1070.98 209.751L1089.26 236.325L1081.51 241.663L1075.64 233.134ZM1106.72 261.685L1113.25 271.174L1092.14 285.702C1087.53 288.869 1083.08 290.024 1078.77 289.166C1074.48 288.296 1070.67 285.444 1067.35 280.611C1064.02 275.778 1062.68 271.226 1063.33 266.957C1064.02 262.71 1066.67 259.003 1071.27 255.836L1092.59 241.161L1099.14 250.677L1078.56 264.838C1076.11 266.526 1074.63 268.214 1074.12 269.903C1073.61 271.609 1074.01 273.404 1075.31 275.288C1076.6 277.171 1078.11 278.163 1079.83 278.264C1081.55 278.364 1083.66 277.552 1086.17 275.828L1106.72 261.685ZM1102.52 303.363L1089.76 312.149L1083.23 302.661L1118.3 278.521L1126.21 290.008C1132.78 299.551 1132.6 306.7 1125.69 311.457C1121.62 314.258 1117.11 314.432 1112.15 311.98L1103.92 332.726L1096.53 321.985L1104.18 305.762L1102.52 303.363ZM1117.66 292.944L1109.64 298.465L1110.85 300.224C1113.14 303.547 1115.75 304.2 1118.68 302.182C1121.1 300.519 1121.19 298.061 1118.95 294.81L1117.66 292.944ZM1128.17 351.417L1120.44 356.737L1106.12 335.92L1141.19 311.78L1155.52 332.597L1147.9 337.843L1140.1 326.515L1134.58 330.312L1141.81 340.814L1134.21 346.042L1126.99 335.54L1120.38 340.089L1128.17 351.417ZM1133.75 354.266C1134.06 356.822 1134.64 359.231 1135.46 361.492C1136.28 363.754 1137.2 365.622 1138.22 367.097C1139.24 368.589 1140.22 369.514 1141.15 369.871C1142.1 370.234 1142.98 370.14 1143.78 369.59C1144.26 369.26 1144.59 368.839 1144.76 368.328C1144.92 367.799 1144.98 367.152 1144.95 366.387C1144.96 365.627 1144.67 363.612 1144.09 360.341C1143.52 357.071 1143.32 354.576 1143.5 352.856C1143.88 349.297 1145.7 346.392 1148.97 344.142C1152.24 341.891 1155.59 341.315 1159.01 342.414C1162.45 343.53 1165.59 346.14 1168.41 350.245C1170.89 353.852 1172.6 358.138 1173.53 363.102L1164.22 365.223C1163.47 360.926 1162.26 357.578 1160.61 355.179C1159.81 354.007 1159 353.268 1158.18 352.962C1157.37 352.657 1156.62 352.743 1155.93 353.22C1155.25 353.685 1154.88 354.462 1154.82 355.552C1154.77 356.66 1155.1 359.234 1155.81 363.274C1156.54 367.302 1156.53 370.44 1155.77 372.689C1155.06 374.931 1153.52 376.872 1151.14 378.51C1147.86 380.82 1144.3 381.42 1140.48 380.31C1136.66 379.218 1133.35 376.589 1130.53 372.424C1128.91 370.061 1127.7 367.955 1126.93 366.105C1126.18 364.262 1125.64 362.253 1125.3 360.08L1133.75 354.266Z" fill="#000306"/>
<path d="M899.571 -95.0545C901.597 -96.4486 904.954 -98.5893 909.645 -101.477L909.498 -101.69L879.422 -91.4004L873.204 -100.436L893.537 -124.995L893.391 -125.209C889.447 -121.997 886.214 -119.523 883.691 -117.787L868.471 -107.313L862.693 -115.709L897.77 -139.849L906.464 -127.215L886.596 -102.779L886.724 -102.592L916.553 -112.555L925.266 -99.8944L890.19 -75.7546L884.192 -84.4704L899.571 -95.0545ZM917.336 -36.3095L910.201 -46.6778L915.61 -52.9145L907.759 -64.3223L899.965 -61.5507L892.793 -71.9723L935.872 -84.7694L944.585 -72.1088L917.336 -36.3095ZM916.873 -67.6878L922.009 -60.2248C928.809 -68.1513 932.969 -72.8737 934.49 -74.392C932.042 -73.231 926.17 -70.9963 916.873 -67.6878ZM926.501 -22.9925L919.953 -32.5079L955.029 -56.6478L961.578 -47.1324L926.501 -22.9925ZM989.777 -6.15728L954.7 17.9826L946.152 5.56187L962.037 -24.2629L961.891 -24.4761C958.083 -21.4103 955.219 -19.2171 953.3 -17.8963L937.494 -7.01874L931.716 -15.4147L966.793 -39.5545L975.322 -27.1605L959.702 2.36419L959.812 2.52411C963.065 -0.0548383 965.829 -2.12696 968.103 -3.69226L983.962 -14.6065L989.777 -6.15728ZM989.252 39.9936L976.085 49.0553L969.665 39.7264L1004.74 15.5866L1019.01 36.3233L1011.39 41.5695L1003.54 30.1616L996.848 34.7658L1004.08 45.2674L996.479 50.4953L989.252 39.9936ZM1009.97 81.7386L1002.24 87.0582L987.913 66.2415L1022.99 42.1017L1037.32 62.9183L1029.69 68.1645L1021.9 56.8366L1016.38 60.6337L1023.61 71.1353L1016.01 76.3632L1008.78 65.8616L1002.17 70.4107L1009.97 81.7386ZM1028.42 125.098L1021.28 114.73L1026.69 108.493L1018.84 97.0851L1011.05 99.8568L1003.87 89.4351L1046.95 76.6381L1055.67 89.2986L1028.42 125.098ZM1027.95 93.7196L1033.09 101.183C1039.89 93.2562 1044.05 88.5338 1045.57 87.0155C1043.12 88.1765 1037.25 90.4112 1027.95 93.7196ZM1066.64 122.134L1039.32 140.936L1032.79 131.447L1060.11 112.645L1054.22 104.089L1061.98 98.7514L1080.26 125.325L1072.51 130.663L1066.64 122.134ZM1097.72 150.685L1104.25 160.174L1083.14 174.702C1078.53 177.869 1074.08 179.024 1069.77 178.166C1065.48 177.296 1061.67 174.444 1058.35 169.611C1055.02 164.778 1053.68 160.226 1054.33 155.957C1055.02 151.71 1057.67 148.003 1062.27 144.836L1083.59 130.161L1090.14 139.677L1069.56 153.838C1067.11 155.526 1065.63 157.214 1065.12 158.903C1064.61 160.609 1065.01 162.404 1066.31 164.288C1067.6 166.171 1069.11 167.163 1070.83 167.264C1072.55 167.364 1074.66 166.552 1077.17 164.828L1097.72 150.685ZM1093.52 192.363L1080.76 201.149L1074.23 191.661L1109.3 167.521L1117.21 179.008C1123.78 188.551 1123.6 195.7 1116.69 200.457C1112.62 203.258 1108.11 203.432 1103.15 200.98L1094.92 221.726L1087.53 210.985L1095.18 194.762L1093.52 192.363ZM1108.66 181.944L1100.64 187.465L1101.85 189.224C1104.14 192.547 1106.75 193.2 1109.68 191.182C1112.1 189.519 1112.19 187.061 1109.95 183.81L1108.66 181.944ZM1119.17 240.417L1111.44 245.737L1097.12 224.92L1132.19 200.78L1146.52 221.597L1138.9 226.843L1131.1 215.515L1125.58 219.312L1132.81 229.814L1125.21 235.042L1117.99 224.54L1111.38 229.089L1119.17 240.417ZM1124.75 243.266C1125.06 245.822 1125.64 248.231 1126.46 250.492C1127.28 252.754 1128.2 254.622 1129.22 256.097C1130.24 257.589 1131.22 258.514 1132.15 258.871C1133.1 259.234 1133.98 259.14 1134.78 258.59C1135.26 258.26 1135.59 257.839 1135.76 257.328C1135.92 256.799 1135.98 256.152 1135.95 255.387C1135.96 254.627 1135.67 252.612 1135.09 249.341C1134.52 246.071 1134.32 243.576 1134.5 241.856C1134.88 238.297 1136.7 235.392 1139.97 233.142C1143.24 230.891 1146.59 230.315 1150.01 231.414C1153.45 232.53 1156.59 235.14 1159.41 239.245C1161.89 242.852 1163.6 247.138 1164.53 252.102L1155.22 254.223C1154.47 249.926 1153.26 246.578 1151.61 244.179C1150.81 243.007 1150 242.268 1149.18 241.962C1148.37 241.657 1147.62 241.743 1146.93 242.22C1146.25 242.685 1145.88 243.462 1145.82 244.552C1145.77 245.66 1146.1 248.234 1146.81 252.274C1147.54 256.302 1147.53 259.44 1146.77 261.689C1146.06 263.931 1144.52 265.872 1142.14 267.51C1138.86 269.82 1135.3 270.42 1131.48 269.31C1127.66 268.218 1124.35 265.589 1121.53 261.424C1119.91 259.061 1118.7 256.955 1117.93 255.105C1117.18 253.262 1116.64 251.253 1116.3 249.08L1124.75 243.266Z" fill="#000306"/>
<path d="M1044.57 15.9455C1046.6 14.5514 1049.95 12.4107 1054.64 9.52328L1054.5 9.31005L1024.42 19.5996L1018.2 10.5639L1038.54 -13.9954L1038.39 -14.2087C1034.45 -10.9973 1031.21 -8.5233 1028.69 -6.7868L1013.47 3.68725L1007.69 -4.70871L1042.77 -28.8486L1051.46 -16.2146L1031.6 8.2212L1031.72 8.40778L1061.55 -1.55502L1070.27 11.1056L1035.19 35.2454L1029.19 26.5296L1044.57 15.9455ZM1062.34 74.6905L1055.2 64.3222L1060.61 58.0855L1052.76 46.6777L1044.97 49.4493L1037.79 39.0277L1080.87 26.2306L1089.58 38.8912L1062.34 74.6905ZM1061.87 43.3122L1067.01 50.7752C1073.81 42.8487 1077.97 38.1263 1079.49 36.608C1077.04 37.769 1071.17 40.0037 1061.87 43.3122ZM1071.5 88.0075L1064.95 78.4921L1100.03 54.3522L1106.58 63.8676L1071.5 88.0075ZM1134.78 104.843L1099.7 128.983L1091.15 116.562L1107.04 86.7371L1106.89 86.5239C1103.08 89.5897 1100.22 91.7829 1098.3 93.1037L1082.49 103.981L1076.72 95.5853L1111.79 71.4455L1120.32 83.8395L1104.7 113.364L1104.81 113.524C1108.06 110.945 1110.83 108.873 1113.1 107.308L1128.96 96.3935L1134.78 104.843ZM1134.25 150.994L1121.08 160.055L1114.66 150.726L1149.74 126.587L1164.01 147.323L1156.39 152.569L1148.54 141.162L1141.85 145.766L1149.08 156.267L1141.48 161.495L1134.25 150.994ZM1154.97 192.739L1147.24 198.058L1132.91 177.242L1167.99 153.102L1182.32 173.918L1174.69 179.165L1166.9 167.837L1161.38 171.634L1168.61 182.135L1161.01 187.363L1153.78 176.862L1147.17 181.411L1154.97 192.739ZM1173.42 236.098L1166.28 225.73L1171.69 219.493L1163.84 208.085L1156.05 210.857L1148.87 200.435L1191.95 187.638L1200.67 200.299L1173.42 236.098ZM1172.95 204.72L1178.09 212.183C1184.89 204.256 1189.05 199.534 1190.57 198.016C1188.12 199.177 1182.25 201.411 1172.95 204.72ZM1211.64 233.134L1184.32 251.936L1177.79 242.447L1205.11 223.645L1199.22 215.089L1206.98 209.751L1225.26 236.325L1217.51 241.663L1211.64 233.134ZM1242.72 261.685L1249.25 271.174L1228.14 285.702C1223.53 288.869 1219.08 290.024 1214.77 289.166C1210.48 288.296 1206.67 285.444 1203.35 280.611C1200.02 275.778 1198.68 271.226 1199.33 266.957C1200.02 262.71 1202.67 259.003 1207.27 255.836L1228.59 241.161L1235.14 250.677L1214.56 264.838C1212.11 266.526 1210.63 268.214 1210.12 269.903C1209.61 271.609 1210.01 273.404 1211.31 275.288C1212.6 277.171 1214.11 278.163 1215.83 278.264C1217.55 278.364 1219.66 277.552 1222.17 275.828L1242.72 261.685ZM1238.52 303.363L1225.76 312.149L1219.23 302.661L1254.3 278.521L1262.21 290.008C1268.78 299.551 1268.6 306.7 1261.69 311.457C1257.62 314.258 1253.11 314.432 1248.15 311.98L1239.92 332.726L1232.53 321.985L1240.18 305.762L1238.52 303.363ZM1253.66 292.944L1245.64 298.465L1246.85 300.224C1249.14 303.547 1251.75 304.2 1254.68 302.182C1257.1 300.519 1257.19 298.061 1254.95 294.81L1253.66 292.944ZM1264.17 351.417L1256.44 356.737L1242.12 335.92L1277.19 311.78L1291.52 332.597L1283.9 337.843L1276.1 326.515L1270.58 330.312L1277.81 340.814L1270.21 346.042L1262.99 335.54L1256.38 340.089L1264.17 351.417ZM1269.75 354.266C1270.06 356.822 1270.64 359.231 1271.46 361.492C1272.28 363.754 1273.2 365.622 1274.22 367.097C1275.24 368.589 1276.22 369.514 1277.15 369.871C1278.1 370.234 1278.98 370.14 1279.78 369.59C1280.26 369.26 1280.59 368.839 1280.76 368.328C1280.92 367.799 1280.98 367.152 1280.95 366.387C1280.96 365.627 1280.67 363.612 1280.09 360.341C1279.52 357.071 1279.32 354.576 1279.5 352.856C1279.88 349.297 1281.7 346.392 1284.97 344.142C1288.24 341.891 1291.59 341.315 1295.01 342.414C1298.45 343.53 1301.59 346.14 1304.41 350.245C1306.89 353.852 1308.6 358.138 1309.53 363.102L1300.22 365.223C1299.47 360.926 1298.26 357.578 1296.61 355.179C1295.81 354.007 1295 353.268 1294.18 352.962C1293.37 352.657 1292.62 352.743 1291.93 353.22C1291.25 353.685 1290.88 354.462 1290.82 355.552C1290.77 356.66 1291.1 359.234 1291.81 363.274C1292.54 367.302 1292.53 370.44 1291.77 372.689C1291.06 374.931 1289.52 376.872 1287.14 378.51C1283.86 380.82 1280.3 381.42 1276.48 380.31C1272.66 379.218 1269.35 376.589 1266.53 372.424C1264.91 370.061 1263.7 367.955 1262.93 366.105C1262.18 364.262 1261.64 362.253 1261.3 360.08L1269.75 354.266Z" fill="#000306"/>
</g>
</svg>
