<svg width="1116" height="458" viewBox="0 0 1116 458" fill="none" xmlns="http://www.w3.org/2000/svg">
<rect x="-48.8506" width="1256.01" height="245.99" transform="rotate(22 -48.8506 0)" fill="#F9FCFF"/>
<mask id="mask0_47_608" style="mask-type:alpha" maskUnits="userSpaceOnUse" x="-141" y="0" width="1257" height="699">
<rect x="-48.8507" width="1256.01" height="245.99" transform="rotate(22 -48.8507 0)" fill="#F9FCFF"/>
</mask>
<g mask="url(#mask0_47_608)">
<path d="M-115.429 187.945C-113.403 186.551 -110.046 184.411 -105.355 181.523L-105.502 181.31L-135.578 191.6L-141.796 182.564L-121.463 158.005L-121.609 157.791C-125.553 161.003 -128.786 163.477 -131.309 165.213L-146.529 175.687L-152.307 167.291L-117.23 143.151L-108.536 155.785L-128.404 180.221L-128.276 180.408L-98.4467 170.445L-89.7337 183.106L-124.81 207.245L-130.808 198.53L-115.429 187.945ZM-97.6637 246.691L-104.799 236.322L-99.3898 230.086L-107.241 218.678L-115.035 221.449L-122.207 211.028L-79.1281 198.231L-70.415 210.891L-97.6637 246.691ZM-98.127 215.312L-92.9909 222.775C-86.1913 214.849 -82.0308 210.126 -80.5096 208.608C-82.9575 209.769 -88.83 212.004 -98.127 215.312ZM-88.4989 260.007L-95.0475 250.492L-59.971 226.352L-53.4224 235.868L-88.4989 260.007ZM-25.2231 276.843L-60.2996 300.983L-68.8476 288.562L-52.9626 258.737L-53.1094 258.524C-56.9173 261.59 -59.7808 263.783 -61.6999 265.104L-77.5056 275.981L-83.2838 267.585L-48.2073 243.445L-39.6777 255.839L-55.2978 285.364L-55.1878 285.524C-51.935 282.945 -49.1715 280.873 -46.897 279.308L-31.038 268.393L-25.2231 276.843ZM-25.7481 322.994L-38.9151 332.055L-45.3353 322.726L-10.2589 298.587L4.01226 319.323L-3.61074 324.569L-11.4617 313.162L-18.1518 317.766L-10.9245 328.267L-18.5209 333.495L-25.7481 322.994ZM-5.03168 364.739L-12.7613 370.058L-27.0874 349.242L7.989 325.102L22.3152 345.918L14.6922 351.165L6.89623 339.837L1.37889 343.634L8.60617 354.135L1.00982 359.363L-6.21745 348.862L-12.8276 353.411L-5.03168 364.739ZM13.418 408.098L6.28239 397.73L11.6919 391.493L3.84096 380.085L-3.95319 382.857L-11.1254 372.435L31.9536 359.638L40.6667 372.299L13.418 408.098ZM12.9546 376.72L18.0908 384.183C24.8904 376.256 29.0508 371.534 30.5721 370.016C28.1241 371.177 22.2516 373.411 12.9546 376.72ZM51.6379 405.134L24.3177 423.936L17.7875 414.447L45.1076 395.645L39.2194 387.089L46.9757 381.751L65.264 408.325L57.5077 413.663L51.6379 405.134ZM82.7167 433.685L89.2469 443.174L68.1371 457.702C63.5349 460.869 59.0794 462.024 54.7708 461.166C50.4799 460.296 46.6713 457.444 43.3451 452.611C40.0188 447.778 38.6802 443.226 39.3291 438.957C40.0203 434.71 42.667 431.003 47.2693 427.836L68.5923 413.161L75.1409 422.677L54.5641 436.838C52.112 438.526 50.6291 440.214 50.1156 441.903C49.6142 443.609 50.0117 445.404 51.308 447.288C52.6042 449.171 54.1117 450.163 55.8304 450.264C57.5491 450.364 59.6611 449.552 62.1666 447.828L82.7167 433.685ZM78.5241 475.363L65.757 484.149L59.2267 474.661L94.3032 450.521L102.209 462.008C108.776 471.551 108.603 478.7 101.691 483.457C97.622 486.258 93.1072 486.432 88.1468 483.98L79.918 504.726L72.5257 493.985L80.175 477.762L78.5241 475.363ZM93.6635 464.944L85.6407 470.465L86.8514 472.224C89.1382 475.547 91.7475 476.2 94.6795 474.182C97.0961 472.519 97.1854 470.061 94.9476 466.81L93.6635 464.944ZM104.172 523.417L96.4424 528.737L82.1163 507.92L117.193 483.78L131.519 504.597L123.896 509.843L116.1 498.515L110.583 502.312L117.81 512.814L110.214 518.042L102.986 507.54L96.3761 512.089L104.172 523.417ZM109.746 526.266C110.065 528.822 110.636 531.231 111.459 533.492C112.282 535.754 113.201 537.622 114.216 539.097C115.244 540.589 116.221 541.514 117.147 541.871C118.104 542.234 118.982 542.14 119.782 541.59C120.261 541.26 120.587 540.839 120.759 540.328C120.919 539.799 120.984 539.152 120.955 538.387C120.956 537.627 120.669 535.612 120.094 532.341C119.519 529.071 119.321 526.576 119.499 524.856C119.877 521.297 121.701 518.392 124.97 516.142C128.24 513.891 131.588 513.315 135.015 514.414C138.454 515.53 141.585 518.14 144.41 522.245C146.893 525.852 148.599 530.138 149.527 535.102L140.225 537.223C139.467 532.926 138.263 529.578 136.612 527.179C135.805 526.007 134.995 525.268 134.183 524.962C133.371 524.657 132.618 524.743 131.925 525.22C131.25 525.685 130.882 526.462 130.82 527.552C130.771 528.66 131.102 531.234 131.814 535.274C132.543 539.302 132.53 542.44 131.773 544.689C131.064 546.931 129.519 548.872 127.138 550.51C123.858 552.82 120.303 553.42 116.476 552.31C112.66 551.218 109.346 548.589 106.532 544.424C104.905 542.061 103.704 539.955 102.929 538.105C102.184 536.262 101.64 534.253 101.297 532.08L109.746 526.266Z" fill="#000306"/>
<path d="M-115.429 97.9455C-113.403 96.5514 -110.046 94.4107 -105.355 91.5233L-105.502 91.3101L-135.578 101.6L-141.796 92.5639L-121.463 68.0046L-121.609 67.7913C-125.553 71.0027 -128.786 73.4767 -131.309 75.2132L-146.529 85.6872L-152.307 77.2913L-117.23 53.1514L-108.536 65.7854L-128.404 90.2212L-128.276 90.4078L-98.4467 80.445L-89.7337 93.1056L-124.81 117.245L-130.808 108.53L-115.429 97.9455ZM-97.6637 156.691L-104.799 146.322L-99.3898 140.086L-107.241 128.678L-115.035 131.449L-122.207 121.028L-79.1281 108.231L-70.415 120.891L-97.6637 156.691ZM-98.127 125.312L-92.9909 132.775C-86.1913 124.849 -82.0308 120.126 -80.5096 118.608C-82.9575 119.769 -88.83 122.004 -98.127 125.312ZM-88.4989 170.007L-95.0475 160.492L-59.971 136.352L-53.4224 145.868L-88.4989 170.007ZM-25.2231 186.843L-60.2996 210.983L-68.8476 198.562L-52.9626 168.737L-53.1094 168.524C-56.9173 171.59 -59.7808 173.783 -61.6999 175.104L-77.5056 185.981L-83.2838 177.585L-48.2073 153.445L-39.6777 165.839L-55.2978 195.364L-55.1878 195.524C-51.935 192.945 -49.1715 190.873 -46.897 189.308L-31.038 178.393L-25.2231 186.843ZM-25.7481 232.994L-38.9151 242.055L-45.3353 232.726L-10.2589 208.587L4.01226 229.323L-3.61074 234.569L-11.4617 223.162L-18.1518 227.766L-10.9245 238.267L-18.5209 243.495L-25.7481 232.994ZM-5.03168 274.739L-12.7613 280.058L-27.0874 259.242L7.989 235.102L22.3152 255.918L14.6922 261.165L6.89623 249.837L1.37889 253.634L8.60617 264.135L1.00982 269.363L-6.21745 258.862L-12.8276 263.411L-5.03168 274.739ZM13.418 318.098L6.28239 307.73L11.6919 301.493L3.84096 290.085L-3.95319 292.857L-11.1254 282.435L31.9536 269.638L40.6667 282.299L13.418 318.098ZM12.9546 286.72L18.0908 294.183C24.8904 286.256 29.0508 281.534 30.5721 280.016C28.1241 281.177 22.2516 283.411 12.9546 286.72ZM51.6379 315.134L24.3177 333.936L17.7875 324.447L45.1076 305.645L39.2194 297.089L46.9757 291.751L65.264 318.325L57.5077 323.663L51.6379 315.134ZM82.7167 343.685L89.2469 353.174L68.1371 367.702C63.5349 370.869 59.0794 372.024 54.7708 371.166C50.4799 370.296 46.6713 367.444 43.3451 362.611C40.0188 357.778 38.6802 353.226 39.3291 348.957C40.0203 344.71 42.667 341.003 47.2693 337.836L68.5923 323.161L75.1409 332.677L54.5641 346.838C52.112 348.526 50.6291 350.214 50.1156 351.903C49.6142 353.609 50.0117 355.404 51.308 357.288C52.6042 359.171 54.1117 360.163 55.8304 360.264C57.5491 360.364 59.6611 359.552 62.1666 357.828L82.7167 343.685ZM78.5241 385.363L65.757 394.149L59.2267 384.661L94.3032 360.521L102.209 372.008C108.776 381.551 108.603 388.7 101.691 393.457C97.622 396.258 93.1072 396.432 88.1468 393.98L79.918 414.726L72.5257 403.985L80.175 387.762L78.5241 385.363ZM93.6635 374.944L85.6407 380.465L86.8514 382.224C89.1382 385.547 91.7475 386.2 94.6795 384.182C97.0961 382.519 97.1854 380.061 94.9476 376.81L93.6635 374.944ZM104.172 433.417L96.4424 438.737L82.1163 417.92L117.193 393.78L131.519 414.597L123.896 419.843L116.1 408.515L110.583 412.312L117.81 422.814L110.214 428.042L102.986 417.54L96.3761 422.089L104.172 433.417ZM109.746 436.266C110.065 438.822 110.636 441.231 111.459 443.492C112.282 445.754 113.201 447.622 114.216 449.097C115.244 450.589 116.221 451.514 117.147 451.871C118.104 452.234 118.982 452.14 119.782 451.59C120.261 451.26 120.587 450.839 120.759 450.328C120.919 449.799 120.984 449.152 120.955 448.387C120.956 447.627 120.669 445.612 120.094 442.341C119.519 439.071 119.321 436.576 119.499 434.856C119.877 431.297 121.701 428.392 124.97 426.142C128.24 423.891 131.588 423.315 135.015 424.414C138.454 425.53 141.585 428.14 144.41 432.245C146.893 435.852 148.599 440.138 149.527 445.102L140.225 447.223C139.467 442.926 138.263 439.578 136.612 437.179C135.805 436.007 134.995 435.268 134.183 434.962C133.371 434.657 132.618 434.743 131.925 435.22C131.25 435.685 130.882 436.462 130.82 437.552C130.771 438.66 131.102 441.234 131.814 445.274C132.543 449.302 132.53 452.44 131.773 454.689C131.064 456.931 129.519 458.872 127.138 460.51C123.858 462.82 120.303 463.42 116.476 462.31C112.66 461.218 109.346 458.589 106.532 454.424C104.905 452.061 103.704 449.955 102.929 448.105C102.184 446.262 101.64 444.253 101.297 442.08L109.746 436.266Z" fill="#000306"/>
<path d="M-43.4291 105.945C-41.4034 104.551 -38.0455 102.411 -33.3554 99.5233L-33.5021 99.3101L-63.5777 109.6L-69.796 100.564L-49.4626 76.0046L-49.6093 75.7913C-53.5527 79.0027 -56.7861 81.4767 -59.3093 83.2132L-74.5286 93.6872L-80.3068 85.2913L-45.2303 61.1514L-36.5356 73.7854L-56.4042 98.2212L-56.2758 98.4078L-26.4467 88.445L-17.7337 101.106L-52.8101 125.245L-58.8084 116.53L-43.4291 105.945ZM-25.6637 164.691L-32.7993 154.322L-27.3898 148.086L-35.2407 136.678L-43.0349 139.449L-50.2071 129.028L-7.1281 116.231L1.58499 128.891L-25.6637 164.691ZM-26.127 133.312L-20.9909 140.775C-14.1913 132.849 -10.0308 128.126 -8.50958 126.608C-10.9575 127.769 -16.83 130.004 -26.127 133.312ZM-16.4989 178.007L-23.0475 168.492L12.029 144.352L18.5776 153.868L-16.4989 178.007ZM46.7769 194.843L11.7004 218.983L3.15243 206.562L19.0374 176.737L18.8906 176.524C15.0827 179.59 12.2192 181.783 10.3001 183.104L-5.50563 193.981L-11.2838 185.585L23.7927 161.445L32.3223 173.839L16.7022 203.364L16.8122 203.524C20.065 200.945 22.8285 198.873 25.103 197.308L40.962 186.393L46.7769 194.843ZM46.2519 240.994L33.0849 250.055L26.6647 240.726L61.7411 216.587L76.0123 237.323L68.3893 242.569L60.5383 231.162L53.8482 235.766L61.0755 246.267L53.4791 251.495L46.2519 240.994ZM66.9683 282.739L59.2387 288.058L44.9126 267.242L79.989 243.102L94.3152 263.918L86.6922 269.165L78.8962 257.837L73.3789 261.634L80.6062 272.135L73.0098 277.363L65.7825 266.862L59.1724 271.411L66.9683 282.739ZM85.418 326.098L78.2824 315.73L83.6919 309.493L75.841 298.085L68.0468 300.857L60.8746 290.435L103.954 277.638L112.667 290.299L85.418 326.098ZM84.9546 294.72L90.0908 302.183C96.8904 294.256 101.051 289.534 102.572 288.016C100.124 289.177 94.2516 291.411 84.9546 294.72ZM123.638 323.134L96.3177 341.936L89.7875 332.447L117.108 313.645L111.219 305.089L118.976 299.751L137.264 326.325L129.508 331.663L123.638 323.134ZM154.717 351.685L161.247 361.174L140.137 375.702C135.535 378.869 131.079 380.024 126.771 379.166C122.48 378.296 118.671 375.444 115.345 370.611C112.019 365.778 110.68 361.226 111.329 356.957C112.02 352.71 114.667 349.003 119.269 345.836L140.592 331.161L147.141 340.677L126.564 354.838C124.112 356.526 122.629 358.214 122.116 359.903C121.614 361.609 122.012 363.404 123.308 365.288C124.604 367.171 126.112 368.163 127.83 368.264C129.549 368.364 131.661 367.552 134.167 365.828L154.717 351.685ZM150.524 393.363L137.757 402.149L131.227 392.661L166.303 368.521L174.209 380.008C180.776 389.551 180.603 396.7 173.691 401.457C169.622 404.258 165.107 404.432 160.147 401.98L151.918 422.726L144.526 411.985L152.175 395.762L150.524 393.363ZM165.664 382.944L157.641 388.465L158.851 390.224C161.138 393.547 163.748 394.2 166.679 392.182C169.096 390.519 169.185 388.061 166.948 384.81L165.664 382.944ZM176.172 441.417L168.442 446.737L154.116 425.92L189.193 401.78L203.519 422.597L195.896 427.843L188.1 416.515L182.583 420.312L189.81 430.814L182.214 436.042L174.986 425.54L168.376 430.089L176.172 441.417ZM181.746 444.266C182.065 446.822 182.636 449.231 183.459 451.492C184.282 453.754 185.201 455.622 186.216 457.097C187.244 458.589 188.221 459.514 189.147 459.871C190.104 460.234 190.982 460.14 191.782 459.59C192.261 459.26 192.587 458.839 192.759 458.328C192.919 457.799 192.984 457.152 192.955 456.387C192.956 455.627 192.669 453.612 192.094 450.341C191.519 447.071 191.321 444.576 191.499 442.856C191.877 439.297 193.701 436.392 196.97 434.142C200.24 431.891 203.588 431.315 207.015 432.414C210.454 433.53 213.585 436.14 216.41 440.245C218.893 443.852 220.599 448.138 221.527 453.102L212.225 455.223C211.467 450.926 210.263 447.578 208.612 445.179C207.805 444.007 206.995 443.268 206.183 442.962C205.371 442.657 204.618 442.743 203.925 443.22C203.25 443.685 202.882 444.462 202.82 445.552C202.771 446.66 203.102 449.234 203.814 453.274C204.543 457.302 204.53 460.44 203.773 462.689C203.064 464.931 201.519 466.872 199.138 468.51C195.858 470.82 192.303 471.42 188.476 470.31C184.66 469.218 181.346 466.589 178.532 462.424C176.905 460.061 175.704 457.955 174.929 456.105C174.184 454.262 173.64 452.253 173.297 450.08L181.746 444.266Z" fill="#000306"/>
<path d="M-18.4291 45.9455C-16.4034 44.5514 -13.0455 42.4107 -8.35539 39.5233L-8.50214 39.3101L-38.5777 49.5996L-44.796 40.5639L-24.4626 16.0046L-24.6093 15.7913C-28.5527 19.0027 -31.7861 21.4767 -34.3093 23.2132L-49.5286 33.6872L-55.3068 25.2913L-20.2303 1.15145L-11.5356 13.7854L-31.4042 38.2212L-31.2758 38.4078L-1.44675 28.445L7.26634 41.1056L-27.8101 65.2454L-33.8084 56.5296L-18.4291 45.9455ZM-0.663715 104.691L-7.79927 94.3222L-2.38975 88.0855L-10.2407 76.6777L-18.0349 79.4493L-25.2071 69.0277L17.8719 56.2306L26.585 68.8912L-0.663715 104.691ZM-1.12703 73.3122L4.00911 80.7752C10.8087 72.8487 14.9692 68.1263 16.4904 66.608C14.0425 67.769 8.16998 70.0037 -1.12703 73.3122ZM8.50111 118.007L1.95254 108.492L37.029 84.3522L43.5776 93.8676L8.50111 118.007ZM71.7769 134.843L36.7004 158.983L28.1524 146.562L44.0374 116.737L43.8906 116.524C40.0827 119.59 37.2192 121.783 35.3001 123.104L19.4944 133.981L13.7162 125.585L48.7927 101.445L57.3223 113.839L41.7022 143.364L41.8122 143.524C45.065 140.945 47.8285 138.873 50.103 137.308L65.962 126.393L71.7769 134.843ZM71.2519 180.994L58.0849 190.055L51.6647 180.726L86.7411 156.587L101.012 177.323L93.3893 182.569L85.5383 171.162L78.8482 175.766L86.0755 186.267L78.4791 191.495L71.2519 180.994ZM91.9683 222.739L84.2387 228.058L69.9126 207.242L104.989 183.102L119.315 203.918L111.692 209.165L103.896 197.837L98.3789 201.634L105.606 212.135L98.0098 217.363L90.7825 206.862L84.1724 211.411L91.9683 222.739ZM110.418 266.098L103.282 255.73L108.692 249.493L100.841 238.085L93.0468 240.857L85.8746 230.435L128.954 217.638L137.667 230.299L110.418 266.098ZM109.955 234.72L115.091 242.183C121.89 234.256 126.051 229.534 127.572 228.016C125.124 229.177 119.252 231.411 109.955 234.72ZM148.638 263.134L121.318 281.936L114.787 272.447L142.108 253.645L136.219 245.089L143.976 239.751L162.264 266.325L154.508 271.663L148.638 263.134ZM179.717 291.685L186.247 301.174L165.137 315.702C160.535 318.869 156.079 320.024 151.771 319.166C147.48 318.296 143.671 315.444 140.345 310.611C137.019 305.778 135.68 301.226 136.329 296.957C137.02 292.71 139.667 289.003 144.269 285.836L165.592 271.161L172.141 280.677L151.564 294.838C149.112 296.526 147.629 298.214 147.116 299.903C146.614 301.609 147.012 303.404 148.308 305.288C149.604 307.171 151.112 308.163 152.83 308.264C154.549 308.364 156.661 307.552 159.167 305.828L179.717 291.685ZM175.524 333.363L162.757 342.149L156.227 332.661L191.303 308.521L199.209 320.008C205.776 329.551 205.603 336.7 198.691 341.457C194.622 344.258 190.107 344.432 185.147 341.98L176.918 362.726L169.526 351.985L177.175 335.762L175.524 333.363ZM190.664 322.944L182.641 328.465L183.851 330.224C186.138 333.547 188.748 334.2 191.679 332.182C194.096 330.519 194.185 328.061 191.948 324.81L190.664 322.944ZM201.172 381.417L193.442 386.737L179.116 365.92L214.193 341.78L228.519 362.597L220.896 367.843L213.1 356.515L207.583 360.312L214.81 370.814L207.214 376.042L199.986 365.54L193.376 370.089L201.172 381.417ZM206.746 384.266C207.065 386.822 207.636 389.231 208.459 391.492C209.282 393.754 210.201 395.622 211.216 397.097C212.244 398.589 213.221 399.514 214.147 399.871C215.104 400.234 215.982 400.14 216.782 399.59C217.261 399.26 217.587 398.839 217.759 398.328C217.919 397.799 217.984 397.152 217.955 396.387C217.956 395.627 217.669 393.612 217.094 390.341C216.519 387.071 216.321 384.576 216.499 382.856C216.877 379.297 218.701 376.392 221.97 374.142C225.24 371.891 228.588 371.315 232.015 372.414C235.454 373.53 238.585 376.14 241.41 380.245C243.893 383.852 245.599 388.138 246.527 393.102L237.225 395.223C236.467 390.926 235.263 387.578 233.612 385.179C232.805 384.007 231.995 383.268 231.183 382.962C230.371 382.657 229.618 382.743 228.925 383.22C228.25 383.685 227.882 384.462 227.82 385.552C227.771 386.66 228.102 389.234 228.814 393.274C229.543 397.302 229.53 400.44 228.773 402.689C228.064 404.931 226.519 406.872 224.138 408.51C220.858 410.82 217.303 411.42 213.476 410.31C209.66 409.218 206.346 406.589 203.532 402.424C201.905 400.061 200.704 397.955 199.929 396.105C199.184 394.262 198.64 392.253 198.297 390.08L206.746 384.266Z" fill="#000306"/>
<path d="M59.5709 61.9455C61.5966 60.5514 64.9545 58.4107 69.6446 55.5233L69.4979 55.3101L39.4223 65.5996L33.204 56.5639L53.5374 32.0046L53.3907 31.7913C49.4473 35.0027 46.2139 37.4767 43.6907 39.2132L28.4714 49.6872L22.6932 41.2913L57.7697 17.1514L66.4644 29.7854L46.5958 54.2212L46.7242 54.4078L76.5533 44.445L85.2663 57.1056L50.1899 81.2454L44.1916 72.5296L59.5709 61.9455ZM77.3363 120.691L70.2007 110.322L75.6102 104.086L67.7593 92.6777L59.9651 95.4493L52.7929 85.0277L95.8719 72.2306L104.585 84.8912L77.3363 120.691ZM76.873 89.3122L82.0091 96.7752C88.8087 88.8487 92.9692 84.1263 94.4904 82.608C92.0425 83.769 86.17 86.0037 76.873 89.3122ZM86.5011 134.007L79.9525 124.492L115.029 100.352L121.578 109.868L86.5011 134.007ZM149.777 150.843L114.7 174.983L106.152 162.562L122.037 132.737L121.891 132.524C118.083 135.59 115.219 137.783 113.3 139.104L97.4944 149.981L91.7162 141.585L126.793 117.445L135.322 129.839L119.702 159.364L119.812 159.524C123.065 156.945 125.829 154.873 128.103 153.308L143.962 142.393L149.777 150.843ZM149.252 196.994L136.085 206.055L129.665 196.726L164.741 172.587L179.012 193.323L171.389 198.569L163.538 187.162L156.848 191.766L164.075 202.267L156.479 207.495L149.252 196.994ZM169.968 238.739L162.239 244.058L147.913 223.242L182.989 199.102L197.315 219.918L189.692 225.165L181.896 213.837L176.379 217.634L183.606 228.135L176.01 233.363L168.783 222.862L162.172 227.411L169.968 238.739ZM188.418 282.098L181.282 271.73L186.692 265.493L178.841 254.085L171.047 256.857L163.875 246.435L206.954 233.638L215.667 246.299L188.418 282.098ZM187.955 250.72L193.091 258.183C199.89 250.256 204.051 245.534 205.572 244.016C203.124 245.177 197.252 247.411 187.955 250.72ZM226.638 279.134L199.318 297.936L192.787 288.447L220.108 269.645L214.219 261.089L221.976 255.751L240.264 282.325L232.508 287.663L226.638 279.134ZM257.717 307.685L264.247 317.174L243.137 331.702C238.535 334.869 234.079 336.024 229.771 335.166C225.48 334.296 221.671 331.444 218.345 326.611C215.019 321.778 213.68 317.226 214.329 312.957C215.02 308.71 217.667 305.003 222.269 301.836L243.592 287.161L250.141 296.677L229.564 310.838C227.112 312.526 225.629 314.214 225.116 315.903C224.614 317.609 225.012 319.404 226.308 321.288C227.604 323.171 229.112 324.163 230.83 324.264C232.549 324.364 234.661 323.552 237.167 321.828L257.717 307.685ZM253.524 349.363L240.757 358.149L234.227 348.661L269.303 324.521L277.209 336.008C283.776 345.551 283.603 352.7 276.691 357.457C272.622 360.258 268.107 360.432 263.147 357.98L254.918 378.726L247.526 367.985L255.175 351.762L253.524 349.363ZM268.664 338.944L260.641 344.465L261.851 346.224C264.138 349.547 266.748 350.2 269.679 348.182C272.096 346.519 272.185 344.061 269.948 340.81L268.664 338.944ZM279.172 397.417L271.442 402.737L257.116 381.92L292.193 357.78L306.519 378.597L298.896 383.843L291.1 372.515L285.583 376.312L292.81 386.814L285.214 392.042L277.986 381.54L271.376 386.089L279.172 397.417ZM284.746 400.266C285.065 402.822 285.636 405.231 286.459 407.492C287.282 409.754 288.201 411.622 289.216 413.097C290.244 414.589 291.221 415.514 292.147 415.871C293.104 416.234 293.982 416.14 294.782 415.59C295.261 415.26 295.587 414.839 295.759 414.328C295.919 413.799 295.984 413.152 295.955 412.387C295.956 411.627 295.669 409.612 295.094 406.341C294.519 403.071 294.321 400.576 294.499 398.856C294.877 395.297 296.701 392.392 299.97 390.142C303.24 387.891 306.588 387.315 310.015 388.414C313.454 389.53 316.585 392.14 319.41 396.245C321.893 399.852 323.599 404.138 324.527 409.102L315.225 411.223C314.467 406.926 313.263 403.578 311.612 401.179C310.805 400.007 309.995 399.268 309.183 398.962C308.371 398.657 307.618 398.743 306.925 399.22C306.25 399.685 305.882 400.462 305.82 401.552C305.771 402.66 306.102 405.234 306.814 409.274C307.543 413.302 307.53 416.44 306.773 418.689C306.064 420.931 304.519 422.872 302.138 424.51C298.858 426.82 295.303 427.42 291.476 426.31C287.66 425.218 284.346 422.589 281.532 418.424C279.905 416.061 278.704 413.955 277.929 412.105C277.184 410.262 276.64 408.253 276.297 406.08L284.746 400.266Z" fill="#000306"/>
<path d="M157.571 107.945C159.597 106.551 162.954 104.411 167.645 101.523L167.498 101.31L137.422 111.6L131.204 102.564L151.537 78.0046L151.391 77.7913C147.447 81.0027 144.214 83.4767 141.691 85.2132L126.471 95.6872L120.693 87.2913L155.77 63.1514L164.464 75.7854L144.596 100.221L144.724 100.408L174.553 90.445L183.266 103.106L148.19 127.245L142.192 118.53L157.571 107.945ZM175.336 166.691L168.201 156.322L173.61 150.086L165.759 138.678L157.965 141.449L150.793 131.028L193.872 118.231L202.585 130.891L175.336 166.691ZM174.873 135.312L180.009 142.775C186.809 134.849 190.969 130.126 192.49 128.608C190.042 129.769 184.17 132.004 174.873 135.312ZM184.501 180.007L177.953 170.492L213.029 146.352L219.578 155.868L184.501 180.007ZM247.777 196.843L212.7 220.983L204.152 208.562L220.037 178.737L219.891 178.524C216.083 181.59 213.219 183.783 211.3 185.104L195.494 195.981L189.716 187.585L224.793 163.445L233.322 175.839L217.702 205.364L217.812 205.524C221.065 202.945 223.829 200.873 226.103 199.308L241.962 188.393L247.777 196.843ZM247.252 242.994L234.085 252.055L227.665 242.726L262.741 218.587L277.012 239.323L269.389 244.569L261.538 233.162L254.848 237.766L262.075 248.267L254.479 253.495L247.252 242.994ZM267.968 284.739L260.239 290.058L245.913 269.242L280.989 245.102L295.315 265.918L287.692 271.165L279.896 259.837L274.379 263.634L281.606 274.135L274.01 279.363L266.783 268.862L260.172 273.411L267.968 284.739ZM286.418 328.098L279.282 317.73L284.692 311.493L276.841 300.085L269.047 302.857L261.875 292.435L304.954 279.638L313.667 292.299L286.418 328.098ZM285.955 296.72L291.091 304.183C297.89 296.256 302.051 291.534 303.572 290.016C301.124 291.177 295.252 293.411 285.955 296.72ZM324.638 325.134L297.318 343.936L290.787 334.447L318.108 315.645L312.219 307.089L319.976 301.751L338.264 328.325L330.508 333.663L324.638 325.134ZM355.717 353.685L362.247 363.174L341.137 377.702C336.535 380.869 332.079 382.024 327.771 381.166C323.48 380.296 319.671 377.444 316.345 372.611C313.019 367.778 311.68 363.226 312.329 358.957C313.02 354.71 315.667 351.003 320.269 347.836L341.592 333.161L348.141 342.677L327.564 356.838C325.112 358.526 323.629 360.214 323.116 361.903C322.614 363.609 323.012 365.404 324.308 367.288C325.604 369.171 327.112 370.163 328.83 370.264C330.549 370.364 332.661 369.552 335.167 367.828L355.717 353.685ZM351.524 395.363L338.757 404.149L332.227 394.661L367.303 370.521L375.209 382.008C381.776 391.551 381.603 398.7 374.691 403.457C370.622 406.258 366.107 406.432 361.147 403.98L352.918 424.726L345.526 413.985L353.175 397.762L351.524 395.363ZM366.664 384.944L358.641 390.465L359.851 392.224C362.138 395.547 364.748 396.2 367.679 394.182C370.096 392.519 370.185 390.061 367.948 386.81L366.664 384.944ZM377.172 443.417L369.442 448.737L355.116 427.92L390.193 403.78L404.519 424.597L396.896 429.843L389.1 418.515L383.583 422.312L390.81 432.814L383.214 438.042L375.986 427.54L369.376 432.089L377.172 443.417ZM382.746 446.266C383.065 448.822 383.636 451.231 384.459 453.492C385.282 455.754 386.201 457.622 387.216 459.097C388.244 460.589 389.221 461.514 390.147 461.871C391.104 462.234 391.982 462.14 392.782 461.59C393.261 461.26 393.587 460.839 393.759 460.328C393.919 459.799 393.984 459.152 393.955 458.387C393.956 457.627 393.669 455.612 393.094 452.341C392.519 449.071 392.321 446.576 392.499 444.856C392.877 441.297 394.701 438.392 397.97 436.142C401.24 433.891 404.588 433.315 408.015 434.414C411.454 435.53 414.585 438.14 417.41 442.245C419.893 445.852 421.599 450.138 422.527 455.102L413.225 457.223C412.467 452.926 411.263 449.578 409.612 447.179C408.805 446.007 407.995 445.268 407.183 444.962C406.371 444.657 405.618 444.743 404.925 445.22C404.25 445.685 403.882 446.462 403.82 447.552C403.771 448.66 404.102 451.234 404.814 455.274C405.543 459.302 405.53 462.44 404.773 464.689C404.064 466.931 402.519 468.872 400.138 470.51C396.858 472.82 393.303 473.42 389.476 472.31C385.66 471.218 382.346 468.589 379.532 464.424C377.905 462.061 376.704 459.955 375.929 458.105C375.184 456.262 374.64 454.253 374.297 452.08L382.746 446.266Z" fill="#000306"/>
<path d="M-115.429 -285.055C-113.403 -286.449 -110.046 -288.589 -105.355 -291.477L-105.502 -291.69L-135.578 -281.4L-141.796 -290.436L-121.463 -314.995L-121.609 -315.209C-125.553 -311.997 -128.786 -309.523 -131.309 -307.787L-146.529 -297.313L-152.307 -305.709L-117.23 -329.849L-108.536 -317.215L-128.404 -292.779L-128.276 -292.592L-98.4467 -302.555L-89.7337 -289.894L-124.81 -265.755L-130.808 -274.47L-115.429 -285.055ZM-97.6637 -226.309L-104.799 -236.678L-99.3898 -242.914L-107.241 -254.322L-115.035 -251.551L-122.207 -261.972L-79.1281 -274.769L-70.415 -262.109L-97.6637 -226.309ZM-98.127 -257.688L-92.9909 -250.225C-86.1913 -258.151 -82.0308 -262.874 -80.5096 -264.392C-82.9575 -263.231 -88.83 -260.996 -98.127 -257.688ZM-88.4989 -212.993L-95.0475 -222.508L-59.971 -246.648L-53.4224 -237.132L-88.4989 -212.993ZM-25.2231 -196.157L-60.2996 -172.017L-68.8476 -184.438L-52.9626 -214.263L-53.1094 -214.476C-56.9173 -211.41 -59.7808 -209.217 -61.6999 -207.896L-77.5056 -197.019L-83.2838 -205.415L-48.2073 -229.555L-39.6777 -217.161L-55.2978 -187.636L-55.1878 -187.476C-51.935 -190.055 -49.1715 -192.127 -46.897 -193.692L-31.038 -204.607L-25.2231 -196.157ZM-25.7481 -150.006L-38.9151 -140.945L-45.3353 -150.274L-10.2589 -174.413L4.01226 -153.677L-3.61074 -148.431L-11.4617 -159.838L-18.1518 -155.234L-10.9245 -144.733L-18.5209 -139.505L-25.7481 -150.006ZM-5.03168 -108.261L-12.7613 -102.942L-27.0874 -123.758L7.989 -147.898L22.3152 -127.082L14.6922 -121.835L6.89623 -133.163L1.37889 -129.366L8.60617 -118.865L1.00982 -113.637L-6.21745 -124.138L-12.8276 -119.589L-5.03168 -108.261ZM13.418 -64.902L6.28239 -75.2704L11.6919 -81.507L3.84096 -92.9149L-3.95319 -90.1432L-11.1254 -100.565L31.9536 -113.362L40.6667 -100.701L13.418 -64.902ZM12.9546 -96.2804L18.0908 -88.8173C24.8904 -96.7438 29.0508 -101.466 30.5721 -102.984C28.1241 -101.823 22.2516 -99.5888 12.9546 -96.2804ZM51.6379 -67.8661L24.3177 -49.0641L17.7875 -58.5529L45.1076 -77.3548L39.2194 -85.9107L46.9757 -91.2486L65.264 -64.6747L57.5077 -59.3368L51.6379 -67.8661ZM82.7167 -39.3151L89.2469 -29.8263L68.1371 -15.2984C63.5349 -12.1311 59.0794 -10.9764 54.7708 -11.8342C50.4799 -12.7042 46.6713 -15.5558 43.3451 -20.3891C40.0188 -25.2223 38.6802 -29.7737 39.3291 -34.0434C40.0203 -38.2898 42.667 -41.9966 47.2693 -45.1639L68.5923 -59.8385L75.1409 -50.3231L54.5641 -36.1621C52.112 -34.4745 50.6291 -32.7862 50.1156 -31.0974C49.6142 -29.3907 50.0117 -27.5956 51.308 -25.7121C52.6042 -23.8285 54.1117 -22.8366 55.8304 -22.7364C57.5491 -22.6361 59.6611 -23.4481 62.1666 -25.1724L82.7167 -39.3151ZM78.5241 2.36281L65.757 11.1493L59.2267 1.66051L94.3032 -22.4793L102.209 -10.9915C108.776 -1.44945 108.603 5.7001 101.691 10.4571C97.622 13.2576 93.1072 13.4319 88.1468 10.9802L79.918 31.726L72.5257 20.9845L80.175 4.76166L78.5241 2.36281ZM93.6635 -8.0562L85.6407 -2.53486L86.8514 -0.775704C89.1382 2.54714 91.7475 3.19968 94.6795 1.18191C97.0961 -0.48122 97.1854 -2.93867 94.9476 -6.19044L93.6635 -8.0562ZM104.172 50.4173L96.4424 55.7369L82.1163 34.9202L117.193 10.7804L131.519 31.597L123.896 36.8432L116.1 25.5154L110.583 29.3124L117.81 39.814L110.214 45.0419L102.986 34.5403L96.3761 39.0894L104.172 50.4173ZM109.746 53.2657C110.065 55.8218 110.636 58.2306 111.459 60.4921C112.282 62.7536 113.201 64.6217 114.216 66.0966C115.244 67.5892 116.221 68.5141 117.147 68.8714C118.104 69.2342 118.982 69.1405 119.782 68.5902C120.261 68.26 120.587 67.8394 120.759 67.3282C120.919 66.7994 120.984 66.1522 120.955 65.3868C120.956 64.6269 120.669 62.6118 120.094 59.3414C119.519 56.0711 119.321 53.576 119.499 51.8562C119.877 48.2966 121.701 45.3917 124.97 43.1416C128.24 40.8914 131.588 40.3155 135.015 41.4137C138.454 42.5296 141.585 45.1399 144.41 49.2446C146.893 52.8518 148.599 57.1375 149.527 62.1019L140.225 64.2227C139.467 59.9259 138.263 56.5781 136.612 54.1793C135.805 53.0065 134.995 52.2676 134.183 51.9625C133.371 51.6573 132.618 51.7432 131.925 52.2202C131.25 52.6849 130.882 53.4622 130.82 54.552C130.771 55.6597 131.102 58.2336 131.814 62.2737C132.543 66.3016 132.53 69.4401 131.773 71.689C131.064 73.9312 129.519 75.8716 127.138 77.5103C123.858 79.8204 120.303 80.4204 116.476 79.3102C112.66 78.2177 109.346 75.5891 106.532 71.4245C104.905 69.0611 103.704 66.9548 102.929 65.1055C102.184 63.2617 101.64 61.2533 101.297 59.0805L109.746 53.2657Z" fill="#000306"/>
<path d="M236.571 122.945C238.597 121.551 241.954 119.411 246.645 116.523L246.498 116.31L216.422 126.6L210.204 117.564L230.537 93.0046L230.391 92.7913C226.447 96.0027 223.214 98.4767 220.691 100.213L205.471 110.687L199.693 102.291L234.77 78.1514L243.464 90.7854L223.596 115.221L223.724 115.408L253.553 105.445L262.266 118.106L227.19 142.245L221.192 133.53L236.571 122.945ZM254.336 181.691L247.201 171.322L252.61 165.086L244.759 153.678L236.965 156.449L229.793 146.028L272.872 133.231L281.585 145.891L254.336 181.691ZM253.873 150.312L259.009 157.775C265.809 149.849 269.969 145.126 271.49 143.608C269.042 144.769 263.17 147.004 253.873 150.312ZM263.501 195.007L256.953 185.492L292.029 161.352L298.578 170.868L263.501 195.007ZM326.777 211.843L291.7 235.983L283.152 223.562L299.037 193.737L298.891 193.524C295.083 196.59 292.219 198.783 290.3 200.104L274.494 210.981L268.716 202.585L303.793 178.445L312.322 190.839L296.702 220.364L296.812 220.524C300.065 217.945 302.829 215.873 305.103 214.308L320.962 203.393L326.777 211.843ZM326.252 257.994L313.085 267.055L306.665 257.726L341.741 233.587L356.012 254.323L348.389 259.569L340.538 248.162L333.848 252.766L341.075 263.267L333.479 268.495L326.252 257.994ZM346.968 299.739L339.239 305.058L324.913 284.242L359.989 260.102L374.315 280.918L366.692 286.165L358.896 274.837L353.379 278.634L360.606 289.135L353.01 294.363L345.783 283.862L339.172 288.411L346.968 299.739ZM365.418 343.098L358.282 332.73L363.692 326.493L355.841 315.085L348.047 317.857L340.875 307.435L383.954 294.638L392.667 307.299L365.418 343.098ZM364.955 311.72L370.091 319.183C376.89 311.256 381.051 306.534 382.572 305.016C380.124 306.177 374.252 308.411 364.955 311.72ZM403.638 340.134L376.318 358.936L369.787 349.447L397.108 330.645L391.219 322.089L398.976 316.751L417.264 343.325L409.508 348.663L403.638 340.134ZM434.717 368.685L441.247 378.174L420.137 392.702C415.535 395.869 411.079 397.024 406.771 396.166C402.48 395.296 398.671 392.444 395.345 387.611C392.019 382.778 390.68 378.226 391.329 373.957C392.02 369.71 394.667 366.003 399.269 362.836L420.592 348.161L427.141 357.677L406.564 371.838C404.112 373.526 402.629 375.214 402.116 376.903C401.614 378.609 402.012 380.404 403.308 382.288C404.604 384.171 406.112 385.163 407.83 385.264C409.549 385.364 411.661 384.552 414.167 382.828L434.717 368.685ZM430.524 410.363L417.757 419.149L411.227 409.661L446.303 385.521L454.209 397.008C460.776 406.551 460.603 413.7 453.691 418.457C449.622 421.258 445.107 421.432 440.147 418.98L431.918 439.726L424.526 428.985L432.175 412.762L430.524 410.363ZM445.664 399.944L437.641 405.465L438.851 407.224C441.138 410.547 443.748 411.2 446.679 409.182C449.096 407.519 449.185 405.061 446.948 401.81L445.664 399.944ZM456.172 458.417L448.442 463.737L434.116 442.92L469.193 418.78L483.519 439.597L475.896 444.843L468.1 433.515L462.583 437.312L469.81 447.814L462.214 453.042L454.986 442.54L448.376 447.089L456.172 458.417ZM461.746 461.266C462.065 463.822 462.636 466.231 463.459 468.492C464.282 470.754 465.201 472.622 466.216 474.097C467.244 475.589 468.221 476.514 469.147 476.871C470.104 477.234 470.982 477.14 471.782 476.59C472.261 476.26 472.587 475.839 472.759 475.328C472.919 474.799 472.984 474.152 472.955 473.387C472.956 472.627 472.669 470.612 472.094 467.341C471.519 464.071 471.321 461.576 471.499 459.856C471.877 456.297 473.701 453.392 476.97 451.142C480.24 448.891 483.588 448.315 487.015 449.414C490.454 450.53 493.585 453.14 496.41 457.245C498.893 460.852 500.599 465.138 501.527 470.102L492.225 472.223C491.467 467.926 490.263 464.578 488.612 462.179C487.805 461.007 486.995 460.268 486.183 459.962C485.371 459.657 484.618 459.743 483.925 460.22C483.25 460.685 482.882 461.462 482.82 462.552C482.771 463.66 483.102 466.234 483.814 470.274C484.543 474.302 484.53 477.44 483.773 479.689C483.064 481.931 481.519 483.872 479.138 485.51C475.858 487.82 472.303 488.42 468.476 487.31C464.66 486.218 461.346 483.589 458.532 479.424C456.905 477.061 455.704 474.955 454.929 473.105C454.184 471.262 453.64 469.253 453.297 467.08L461.746 461.266Z" fill="#000306"/>
<path d="M257.571 61.9455C259.597 60.5514 262.954 58.4107 267.645 55.5233L267.498 55.3101L237.422 65.5996L231.204 56.5639L251.537 32.0046L251.391 31.7913C247.447 35.0027 244.214 37.4767 241.691 39.2132L226.471 49.6872L220.693 41.2913L255.77 17.1514L264.464 29.7854L244.596 54.2212L244.724 54.4078L274.553 44.445L283.266 57.1056L248.19 81.2454L242.192 72.5296L257.571 61.9455ZM275.336 120.691L268.201 110.322L273.61 104.086L265.759 92.6777L257.965 95.4493L250.793 85.0277L293.872 72.2306L302.585 84.8912L275.336 120.691ZM274.873 89.3122L280.009 96.7752C286.809 88.8487 290.969 84.1263 292.49 82.608C290.042 83.769 284.17 86.0037 274.873 89.3122ZM284.501 134.007L277.953 124.492L313.029 100.352L319.578 109.868L284.501 134.007ZM347.777 150.843L312.7 174.983L304.152 162.562L320.037 132.737L319.891 132.524C316.083 135.59 313.219 137.783 311.3 139.104L295.494 149.981L289.716 141.585L324.793 117.445L333.322 129.839L317.702 159.364L317.812 159.524C321.065 156.945 323.829 154.873 326.103 153.308L341.962 142.393L347.777 150.843ZM347.252 196.994L334.085 206.055L327.665 196.726L362.741 172.587L377.012 193.323L369.389 198.569L361.538 187.162L354.848 191.766L362.075 202.267L354.479 207.495L347.252 196.994ZM367.968 238.739L360.239 244.058L345.913 223.242L380.989 199.102L395.315 219.918L387.692 225.165L379.896 213.837L374.379 217.634L381.606 228.135L374.01 233.363L366.783 222.862L360.172 227.411L367.968 238.739ZM386.418 282.098L379.282 271.73L384.692 265.493L376.841 254.085L369.047 256.857L361.875 246.435L404.954 233.638L413.667 246.299L386.418 282.098ZM385.955 250.72L391.091 258.183C397.89 250.256 402.051 245.534 403.572 244.016C401.124 245.177 395.252 247.411 385.955 250.72ZM424.638 279.134L397.318 297.936L390.787 288.447L418.108 269.645L412.219 261.089L419.976 255.751L438.264 282.325L430.508 287.663L424.638 279.134ZM455.717 307.685L462.247 317.174L441.137 331.702C436.535 334.869 432.079 336.024 427.771 335.166C423.48 334.296 419.671 331.444 416.345 326.611C413.019 321.778 411.68 317.226 412.329 312.957C413.02 308.71 415.667 305.003 420.269 301.836L441.592 287.161L448.141 296.677L427.564 310.838C425.112 312.526 423.629 314.214 423.116 315.903C422.614 317.609 423.012 319.404 424.308 321.288C425.604 323.171 427.112 324.163 428.83 324.264C430.549 324.364 432.661 323.552 435.167 321.828L455.717 307.685ZM451.524 349.363L438.757 358.149L432.227 348.661L467.303 324.521L475.209 336.008C481.776 345.551 481.603 352.7 474.691 357.457C470.622 360.258 466.107 360.432 461.147 357.98L452.918 378.726L445.526 367.985L453.175 351.762L451.524 349.363ZM466.664 338.944L458.641 344.465L459.851 346.224C462.138 349.547 464.748 350.2 467.679 348.182C470.096 346.519 470.185 344.061 467.948 340.81L466.664 338.944ZM477.172 397.417L469.442 402.737L455.116 381.92L490.193 357.78L504.519 378.597L496.896 383.843L489.1 372.515L483.583 376.312L490.81 386.814L483.214 392.042L475.986 381.54L469.376 386.089L477.172 397.417ZM482.746 400.266C483.065 402.822 483.636 405.231 484.459 407.492C485.282 409.754 486.201 411.622 487.216 413.097C488.244 414.589 489.221 415.514 490.147 415.871C491.104 416.234 491.982 416.14 492.782 415.59C493.261 415.26 493.587 414.839 493.759 414.328C493.919 413.799 493.984 413.152 493.955 412.387C493.956 411.627 493.669 409.612 493.094 406.341C492.519 403.071 492.321 400.576 492.499 398.856C492.877 395.297 494.701 392.392 497.97 390.142C501.24 387.891 504.588 387.315 508.015 388.414C511.454 389.53 514.585 392.14 517.41 396.245C519.893 399.852 521.599 404.138 522.527 409.102L513.225 411.223C512.467 406.926 511.263 403.578 509.612 401.179C508.805 400.007 507.995 399.268 507.183 398.962C506.371 398.657 505.618 398.743 504.925 399.22C504.25 399.685 503.882 400.462 503.82 401.552C503.771 402.66 504.102 405.234 504.814 409.274C505.543 413.302 505.53 416.44 504.773 418.689C504.064 420.931 502.519 422.872 500.138 424.51C496.858 426.82 493.303 427.42 489.476 426.31C485.66 425.218 482.346 422.589 479.532 418.424C477.905 416.061 476.704 413.955 475.929 412.105C475.184 410.262 474.64 408.253 474.297 406.08L482.746 400.266Z" fill="#000306"/>
<path d="M530.571 456.945C532.597 455.551 535.954 453.411 540.645 450.523L540.498 450.31L510.422 460.6L504.204 451.564L524.537 427.005L524.391 426.791C520.447 430.003 517.214 432.477 514.691 434.213L499.471 444.687L493.693 436.291L528.77 412.151L537.464 424.785L517.596 449.221L517.724 449.408L547.553 439.445L556.266 452.106L521.19 476.245L515.192 467.53L530.571 456.945ZM548.336 515.691L541.201 505.322L546.61 499.086L538.759 487.678L530.965 490.449L523.793 480.028L566.872 467.231L575.585 479.891L548.336 515.691ZM547.873 484.312L553.009 491.775C559.809 483.849 563.969 479.126 565.49 477.608C563.042 478.769 557.17 481.004 547.873 484.312ZM557.501 529.007L550.953 519.492L586.029 495.352L592.578 504.868L557.501 529.007ZM620.777 545.843L585.7 569.983L577.152 557.562L593.037 527.737L592.891 527.524C589.083 530.59 586.219 532.783 584.3 534.104L568.494 544.981L562.716 536.585L597.793 512.445L606.322 524.839L590.702 554.364L590.812 554.524C594.065 551.945 596.829 549.873 599.103 548.308L614.962 537.393L620.777 545.843ZM620.252 591.994L607.085 601.055L600.665 591.726L635.741 567.587L650.012 588.323L642.389 593.569L634.538 582.162L627.848 586.766L635.075 597.267L627.479 602.495L620.252 591.994ZM640.968 633.739L633.239 639.058L618.913 618.242L653.989 594.102L668.315 614.918L660.692 620.165L652.896 608.837L647.379 612.634L654.606 623.135L647.01 628.363L639.783 617.862L633.172 622.411L640.968 633.739ZM659.418 677.098L652.282 666.73L657.692 660.493L649.841 649.085L642.047 651.857L634.875 641.435L677.954 628.638L686.667 641.299L659.418 677.098ZM658.955 645.72L664.091 653.183C670.89 645.256 675.051 640.534 676.572 639.016C674.124 640.177 668.252 642.411 658.955 645.72ZM697.638 674.134L670.318 692.936L663.787 683.447L691.108 664.645L685.219 656.089L692.976 650.751L711.264 677.325L703.508 682.663L697.638 674.134ZM728.717 702.685L735.247 712.174L714.137 726.702C709.535 729.869 705.079 731.024 700.771 730.166C696.48 729.296 692.671 726.444 689.345 721.611C686.019 716.778 684.68 712.226 685.329 707.957C686.02 703.71 688.667 700.003 693.269 696.836L714.592 682.161L721.141 691.677L700.564 705.838C698.112 707.526 696.629 709.214 696.116 710.903C695.614 712.609 696.012 714.404 697.308 716.288C698.604 718.171 700.112 719.163 701.83 719.264C703.549 719.364 705.661 718.552 708.167 716.828L728.717 702.685ZM724.524 744.363L711.757 753.149L705.227 743.661L740.303 719.521L748.209 731.008C754.776 740.551 754.603 747.7 747.691 752.457C743.622 755.258 739.107 755.432 734.147 752.98L725.918 773.726L718.526 762.985L726.175 746.762L724.524 744.363ZM739.664 733.944L731.641 739.465L732.851 741.224C735.138 744.547 737.748 745.2 740.679 743.182C743.096 741.519 743.185 739.061 740.948 735.81L739.664 733.944ZM750.172 792.417L742.442 797.737L728.116 776.92L763.193 752.78L777.519 773.597L769.896 778.843L762.1 767.515L756.583 771.312L763.81 781.814L756.214 787.042L748.986 776.54L742.376 781.089L750.172 792.417ZM755.746 795.266C756.065 797.822 756.636 800.231 757.459 802.492C758.282 804.754 759.201 806.622 760.216 808.097C761.244 809.589 762.221 810.514 763.147 810.871C764.104 811.234 764.982 811.14 765.782 810.59C766.261 810.26 766.587 809.839 766.759 809.328C766.919 808.799 766.984 808.152 766.955 807.387C766.956 806.627 766.669 804.612 766.094 801.341C765.519 798.071 765.321 795.576 765.499 793.856C765.877 790.297 767.701 787.392 770.97 785.142C774.24 782.891 777.588 782.315 781.015 783.414C784.454 784.53 787.585 787.14 790.41 791.245C792.893 794.852 794.599 799.138 795.527 804.102L786.225 806.223C785.467 801.926 784.263 798.578 782.612 796.179C781.805 795.007 780.995 794.268 780.183 793.962C779.371 793.657 778.618 793.743 777.925 794.22C777.25 794.685 776.882 795.462 776.82 796.552C776.771 797.66 777.102 800.234 777.814 804.274C778.543 808.302 778.53 811.44 777.773 813.689C777.064 815.931 775.519 817.872 773.138 819.51C769.858 821.82 766.303 822.42 762.476 821.31C758.66 820.218 755.346 817.589 752.532 813.424C750.905 811.061 749.704 808.955 748.929 807.105C748.184 805.262 747.64 803.253 747.297 801.08L755.746 795.266Z" fill="#000306"/>
<path d="M401.571 180.945C403.597 179.551 406.954 177.411 411.645 174.523L411.498 174.31L381.422 184.6L375.204 175.564L395.537 151.005L395.391 150.791C391.447 154.003 388.214 156.477 385.691 158.213L370.471 168.687L364.693 160.291L399.77 136.151L408.464 148.785L388.596 173.221L388.724 173.408L418.553 163.445L427.266 176.106L392.19 200.245L386.192 191.53L401.571 180.945ZM419.336 239.691L412.201 229.322L417.61 223.086L409.759 211.678L401.965 214.449L394.793 204.028L437.872 191.231L446.585 203.891L419.336 239.691ZM418.873 208.312L424.009 215.775C430.809 207.849 434.969 203.126 436.49 201.608C434.042 202.769 428.17 205.004 418.873 208.312ZM428.501 253.007L421.953 243.492L457.029 219.352L463.578 228.868L428.501 253.007ZM491.777 269.843L456.7 293.983L448.152 281.562L464.037 251.737L463.891 251.524C460.083 254.59 457.219 256.783 455.3 258.104L439.494 268.981L433.716 260.585L468.793 236.445L477.322 248.839L461.702 278.364L461.812 278.524C465.065 275.945 467.829 273.873 470.103 272.308L485.962 261.393L491.777 269.843ZM491.252 315.994L478.085 325.055L471.665 315.726L506.741 291.587L521.012 312.323L513.389 317.569L505.538 306.162L498.848 310.766L506.075 321.267L498.479 326.495L491.252 315.994ZM511.968 357.739L504.239 363.058L489.913 342.242L524.989 318.102L539.315 338.918L531.692 344.165L523.896 332.837L518.379 336.634L525.606 347.135L518.01 352.363L510.783 341.862L504.172 346.411L511.968 357.739ZM530.418 401.098L523.282 390.73L528.692 384.493L520.841 373.085L513.047 375.857L505.875 365.435L548.954 352.638L557.667 365.299L530.418 401.098ZM529.955 369.72L535.091 377.183C541.89 369.256 546.051 364.534 547.572 363.016C545.124 364.177 539.252 366.411 529.955 369.72ZM568.638 398.134L541.318 416.936L534.787 407.447L562.108 388.645L556.219 380.089L563.976 374.751L582.264 401.325L574.508 406.663L568.638 398.134ZM599.717 426.685L606.247 436.174L585.137 450.702C580.535 453.869 576.079 455.024 571.771 454.166C567.48 453.296 563.671 450.444 560.345 445.611C557.019 440.778 555.68 436.226 556.329 431.957C557.02 427.71 559.667 424.003 564.269 420.836L585.592 406.161L592.141 415.677L571.564 429.838C569.112 431.526 567.629 433.214 567.116 434.903C566.614 436.609 567.012 438.404 568.308 440.288C569.604 442.171 571.112 443.163 572.83 443.264C574.549 443.364 576.661 442.552 579.167 440.828L599.717 426.685ZM595.524 468.363L582.757 477.149L576.227 467.661L611.303 443.521L619.209 455.008C625.776 464.551 625.603 471.7 618.691 476.457C614.622 479.258 610.107 479.432 605.147 476.98L596.918 497.726L589.526 486.985L597.175 470.762L595.524 468.363ZM610.664 457.944L602.641 463.465L603.851 465.224C606.138 468.547 608.748 469.2 611.679 467.182C614.096 465.519 614.185 463.061 611.948 459.81L610.664 457.944ZM621.172 516.417L613.442 521.737L599.116 500.92L634.193 476.78L648.519 497.597L640.896 502.843L633.1 491.515L627.583 495.312L634.81 505.814L627.214 511.042L619.986 500.54L613.376 505.089L621.172 516.417ZM626.746 519.266C627.065 521.822 627.636 524.231 628.459 526.492C629.282 528.754 630.201 530.622 631.216 532.097C632.244 533.589 633.221 534.514 634.147 534.871C635.104 535.234 635.982 535.14 636.782 534.59C637.261 534.26 637.587 533.839 637.759 533.328C637.919 532.799 637.984 532.152 637.955 531.387C637.956 530.627 637.669 528.612 637.094 525.341C636.519 522.071 636.321 519.576 636.499 517.856C636.877 514.297 638.701 511.392 641.97 509.142C645.24 506.891 648.588 506.315 652.015 507.414C655.454 508.53 658.585 511.14 661.41 515.245C663.893 518.852 665.599 523.138 666.527 528.102L657.225 530.223C656.467 525.926 655.263 522.578 653.612 520.179C652.805 519.007 651.995 518.268 651.183 517.962C650.371 517.657 649.618 517.743 648.925 518.22C648.25 518.685 647.882 519.462 647.82 520.552C647.771 521.66 648.102 524.234 648.814 528.274C649.543 532.302 649.53 535.44 648.773 537.689C648.064 539.931 646.519 541.872 644.138 543.51C640.858 545.82 637.303 546.42 633.476 545.31C629.66 544.218 626.346 541.589 623.532 537.424C621.905 535.061 620.704 532.955 619.929 531.105C619.184 529.262 618.64 527.253 618.297 525.08L626.746 519.266Z" fill="#000306"/>
<path d="M580.571 351.945C582.597 350.551 585.954 348.411 590.645 345.523L590.498 345.31L560.422 355.6L554.204 346.564L574.537 322.005L574.391 321.791C570.447 325.003 567.214 327.477 564.691 329.213L549.471 339.687L543.693 331.291L578.77 307.151L587.464 319.785L567.596 344.221L567.724 344.408L597.553 334.445L606.266 347.106L571.19 371.245L565.192 362.53L580.571 351.945ZM598.336 410.691L591.201 400.322L596.61 394.086L588.759 382.678L580.965 385.449L573.793 375.028L616.872 362.231L625.585 374.891L598.336 410.691ZM597.873 379.312L603.009 386.775C609.809 378.849 613.969 374.126 615.49 372.608C613.042 373.769 607.17 376.004 597.873 379.312ZM607.501 424.007L600.953 414.492L636.029 390.352L642.578 399.868L607.501 424.007ZM670.777 440.843L635.7 464.983L627.152 452.562L643.037 422.737L642.891 422.524C639.083 425.59 636.219 427.783 634.3 429.104L618.494 439.981L612.716 431.585L647.793 407.445L656.322 419.839L640.702 449.364L640.812 449.524C644.065 446.945 646.829 444.873 649.103 443.308L664.962 432.393L670.777 440.843ZM670.252 486.994L657.085 496.055L650.665 486.726L685.741 462.587L700.012 483.323L692.389 488.569L684.538 477.162L677.848 481.766L685.075 492.267L677.479 497.495L670.252 486.994ZM690.968 528.739L683.239 534.058L668.913 513.242L703.989 489.102L718.315 509.918L710.692 515.165L702.896 503.837L697.379 507.634L704.606 518.135L697.01 523.363L689.783 512.862L683.172 517.411L690.968 528.739ZM709.418 572.098L702.282 561.73L707.692 555.493L699.841 544.085L692.047 546.857L684.875 536.435L727.954 523.638L736.667 536.299L709.418 572.098ZM708.955 540.72L714.091 548.183C720.89 540.256 725.051 535.534 726.572 534.016C724.124 535.177 718.252 537.411 708.955 540.72ZM747.638 569.134L720.318 587.936L713.787 578.447L741.108 559.645L735.219 551.089L742.976 545.751L761.264 572.325L753.508 577.663L747.638 569.134ZM778.717 597.685L785.247 607.174L764.137 621.702C759.535 624.869 755.079 626.024 750.771 625.166C746.48 624.296 742.671 621.444 739.345 616.611C736.019 611.778 734.68 607.226 735.329 602.957C736.02 598.71 738.667 595.003 743.269 591.836L764.592 577.161L771.141 586.677L750.564 600.838C748.112 602.526 746.629 604.214 746.116 605.903C745.614 607.609 746.012 609.404 747.308 611.288C748.604 613.171 750.112 614.163 751.83 614.264C753.549 614.364 755.661 613.552 758.167 611.828L778.717 597.685ZM774.524 639.363L761.757 648.149L755.227 638.661L790.303 614.521L798.209 626.008C804.776 635.551 804.603 642.7 797.691 647.457C793.622 650.258 789.107 650.432 784.147 647.98L775.918 668.726L768.526 657.985L776.175 641.762L774.524 639.363ZM789.664 628.944L781.641 634.465L782.851 636.224C785.138 639.547 787.748 640.2 790.679 638.182C793.096 636.519 793.185 634.061 790.948 630.81L789.664 628.944ZM800.172 687.417L792.442 692.737L778.116 671.92L813.193 647.78L827.519 668.597L819.896 673.843L812.1 662.515L806.583 666.312L813.81 676.814L806.214 682.042L798.986 671.54L792.376 676.089L800.172 687.417ZM805.746 690.266C806.065 692.822 806.636 695.231 807.459 697.492C808.282 699.754 809.201 701.622 810.216 703.097C811.244 704.589 812.221 705.514 813.147 705.871C814.104 706.234 814.982 706.14 815.782 705.59C816.261 705.26 816.587 704.839 816.759 704.328C816.919 703.799 816.984 703.152 816.955 702.387C816.956 701.627 816.669 699.612 816.094 696.341C815.519 693.071 815.321 690.576 815.499 688.856C815.877 685.297 817.701 682.392 820.97 680.142C824.24 677.891 827.588 677.315 831.015 678.414C834.454 679.53 837.585 682.14 840.41 686.245C842.893 689.852 844.599 694.138 845.527 699.102L836.225 701.223C835.467 696.926 834.263 693.578 832.612 691.179C831.805 690.007 830.995 689.268 830.183 688.962C829.371 688.657 828.618 688.743 827.925 689.22C827.25 689.685 826.882 690.462 826.82 691.552C826.771 692.66 827.102 695.234 827.814 699.274C828.543 703.302 828.53 706.44 827.773 708.689C827.064 710.931 825.519 712.872 823.138 714.51C819.858 716.82 816.303 717.42 812.476 716.31C808.66 715.218 805.346 712.589 802.532 708.424C800.905 706.061 799.704 703.955 798.929 702.105C798.184 700.262 797.64 698.253 797.297 696.08L805.746 690.266Z" fill="#000306"/>
<path d="M580.571 259.945C582.597 258.551 585.954 256.411 590.645 253.523L590.498 253.31L560.422 263.6L554.204 254.564L574.537 230.005L574.391 229.791C570.447 233.003 567.214 235.477 564.691 237.213L549.471 247.687L543.693 239.291L578.77 215.151L587.464 227.785L567.596 252.221L567.724 252.408L597.553 242.445L606.266 255.106L571.19 279.245L565.192 270.53L580.571 259.945ZM598.336 318.691L591.201 308.322L596.61 302.086L588.759 290.678L580.965 293.449L573.793 283.028L616.872 270.231L625.585 282.891L598.336 318.691ZM597.873 287.312L603.009 294.775C609.809 286.849 613.969 282.126 615.49 280.608C613.042 281.769 607.17 284.004 597.873 287.312ZM607.501 332.007L600.953 322.492L636.029 298.352L642.578 307.868L607.501 332.007ZM670.777 348.843L635.7 372.983L627.152 360.562L643.037 330.737L642.891 330.524C639.083 333.59 636.219 335.783 634.3 337.104L618.494 347.981L612.716 339.585L647.793 315.445L656.322 327.839L640.702 357.364L640.812 357.524C644.065 354.945 646.829 352.873 649.103 351.308L664.962 340.393L670.777 348.843ZM670.252 394.994L657.085 404.055L650.665 394.726L685.741 370.587L700.012 391.323L692.389 396.569L684.538 385.162L677.848 389.766L685.075 400.267L677.479 405.495L670.252 394.994ZM690.968 436.739L683.239 442.058L668.913 421.242L703.989 397.102L718.315 417.918L710.692 423.165L702.896 411.837L697.379 415.634L704.606 426.135L697.01 431.363L689.783 420.862L683.172 425.411L690.968 436.739ZM709.418 480.098L702.282 469.73L707.692 463.493L699.841 452.085L692.047 454.857L684.875 444.435L727.954 431.638L736.667 444.299L709.418 480.098ZM708.955 448.72L714.091 456.183C720.89 448.256 725.051 443.534 726.572 442.016C724.124 443.177 718.252 445.411 708.955 448.72ZM747.638 477.134L720.318 495.936L713.787 486.447L741.108 467.645L735.219 459.089L742.976 453.751L761.264 480.325L753.508 485.663L747.638 477.134ZM778.717 505.685L785.247 515.174L764.137 529.702C759.535 532.869 755.079 534.024 750.771 533.166C746.48 532.296 742.671 529.444 739.345 524.611C736.019 519.778 734.68 515.226 735.329 510.957C736.02 506.71 738.667 503.003 743.269 499.836L764.592 485.161L771.141 494.677L750.564 508.838C748.112 510.526 746.629 512.214 746.116 513.903C745.614 515.609 746.012 517.404 747.308 519.288C748.604 521.171 750.112 522.163 751.83 522.264C753.549 522.364 755.661 521.552 758.167 519.828L778.717 505.685ZM774.524 547.363L761.757 556.149L755.227 546.661L790.303 522.521L798.209 534.008C804.776 543.551 804.603 550.7 797.691 555.457C793.622 558.258 789.107 558.432 784.147 555.98L775.918 576.726L768.526 565.985L776.175 549.762L774.524 547.363ZM789.664 536.944L781.641 542.465L782.851 544.224C785.138 547.547 787.748 548.2 790.679 546.182C793.096 544.519 793.185 542.061 790.948 538.81L789.664 536.944ZM800.172 595.417L792.442 600.737L778.116 579.92L813.193 555.78L827.519 576.597L819.896 581.843L812.1 570.515L806.583 574.312L813.81 584.814L806.214 590.042L798.986 579.54L792.376 584.089L800.172 595.417ZM805.746 598.266C806.065 600.822 806.636 603.231 807.459 605.492C808.282 607.754 809.201 609.622 810.216 611.097C811.244 612.589 812.221 613.514 813.147 613.871C814.104 614.234 814.982 614.14 815.782 613.59C816.261 613.26 816.587 612.839 816.759 612.328C816.919 611.799 816.984 611.152 816.955 610.387C816.956 609.627 816.669 607.612 816.094 604.341C815.519 601.071 815.321 598.576 815.499 596.856C815.877 593.297 817.701 590.392 820.97 588.142C824.24 585.891 827.588 585.315 831.015 586.414C834.454 587.53 837.585 590.14 840.41 594.245C842.893 597.852 844.599 602.138 845.527 607.102L836.225 609.223C835.467 604.926 834.263 601.578 832.612 599.179C831.805 598.007 830.995 597.268 830.183 596.962C829.371 596.657 828.618 596.743 827.925 597.22C827.25 597.685 826.882 598.462 826.82 599.552C826.771 600.66 827.102 603.234 827.814 607.274C828.543 611.302 828.53 614.44 827.773 616.689C827.064 618.931 825.519 620.872 823.138 622.51C819.858 624.82 816.303 625.42 812.476 624.31C808.66 623.218 805.346 620.589 802.532 616.424C800.905 614.061 799.704 611.955 798.929 610.105C798.184 608.262 797.64 606.253 797.297 604.08L805.746 598.266Z" fill="#000306"/>
<path d="M674.571 307.945C676.597 306.551 679.954 304.411 684.645 301.523L684.498 301.31L654.422 311.6L648.204 302.564L668.537 278.005L668.391 277.791C664.447 281.003 661.214 283.477 658.691 285.213L643.471 295.687L637.693 287.291L672.77 263.151L681.464 275.785L661.596 300.221L661.724 300.408L691.553 290.445L700.266 303.106L665.19 327.245L659.192 318.53L674.571 307.945ZM692.336 366.691L685.201 356.322L690.61 350.086L682.759 338.678L674.965 341.449L667.793 331.028L710.872 318.231L719.585 330.891L692.336 366.691ZM691.873 335.312L697.009 342.775C703.809 334.849 707.969 330.126 709.49 328.608C707.042 329.769 701.17 332.004 691.873 335.312ZM701.501 380.007L694.953 370.492L730.029 346.352L736.578 355.868L701.501 380.007ZM764.777 396.843L729.7 420.983L721.152 408.562L737.037 378.737L736.891 378.524C733.083 381.59 730.219 383.783 728.3 385.104L712.494 395.981L706.716 387.585L741.793 363.445L750.322 375.839L734.702 405.364L734.812 405.524C738.065 402.945 740.829 400.873 743.103 399.308L758.962 388.393L764.777 396.843ZM764.252 442.994L751.085 452.055L744.665 442.726L779.741 418.587L794.012 439.323L786.389 444.569L778.538 433.162L771.848 437.766L779.075 448.267L771.479 453.495L764.252 442.994ZM784.968 484.739L777.239 490.058L762.913 469.242L797.989 445.102L812.315 465.918L804.692 471.165L796.896 459.837L791.379 463.634L798.606 474.135L791.01 479.363L783.783 468.862L777.172 473.411L784.968 484.739ZM803.418 528.098L796.282 517.73L801.692 511.493L793.841 500.085L786.047 502.857L778.875 492.435L821.954 479.638L830.667 492.299L803.418 528.098ZM802.955 496.72L808.091 504.183C814.89 496.256 819.051 491.534 820.572 490.016C818.124 491.177 812.252 493.411 802.955 496.72ZM841.638 525.134L814.318 543.936L807.787 534.447L835.108 515.645L829.219 507.089L836.976 501.751L855.264 528.325L847.508 533.663L841.638 525.134ZM872.717 553.685L879.247 563.174L858.137 577.702C853.535 580.869 849.079 582.024 844.771 581.166C840.48 580.296 836.671 577.444 833.345 572.611C830.019 567.778 828.68 563.226 829.329 558.957C830.02 554.71 832.667 551.003 837.269 547.836L858.592 533.161L865.141 542.677L844.564 556.838C842.112 558.526 840.629 560.214 840.116 561.903C839.614 563.609 840.012 565.404 841.308 567.288C842.604 569.171 844.112 570.163 845.83 570.264C847.549 570.364 849.661 569.552 852.167 567.828L872.717 553.685ZM868.524 595.363L855.757 604.149L849.227 594.661L884.303 570.521L892.209 582.008C898.776 591.551 898.603 598.7 891.691 603.457C887.622 606.258 883.107 606.432 878.147 603.98L869.918 624.726L862.526 613.985L870.175 597.762L868.524 595.363ZM883.664 584.944L875.641 590.465L876.851 592.224C879.138 595.547 881.748 596.2 884.679 594.182C887.096 592.519 887.185 590.061 884.948 586.81L883.664 584.944ZM894.172 643.417L886.442 648.737L872.116 627.92L907.193 603.78L921.519 624.597L913.896 629.843L906.1 618.515L900.583 622.312L907.81 632.814L900.214 638.042L892.986 627.54L886.376 632.089L894.172 643.417ZM899.746 646.266C900.065 648.822 900.636 651.231 901.459 653.492C902.282 655.754 903.201 657.622 904.216 659.097C905.244 660.589 906.221 661.514 907.147 661.871C908.104 662.234 908.982 662.14 909.782 661.59C910.261 661.26 910.587 660.839 910.759 660.328C910.919 659.799 910.984 659.152 910.955 658.387C910.956 657.627 910.669 655.612 910.094 652.341C909.519 649.071 909.321 646.576 909.499 644.856C909.877 641.297 911.701 638.392 914.97 636.142C918.24 633.891 921.588 633.315 925.015 634.414C928.454 635.53 931.585 638.14 934.41 642.245C936.893 645.852 938.599 650.138 939.527 655.102L930.225 657.223C929.467 652.926 928.263 649.578 926.612 647.179C925.805 646.007 924.995 645.268 924.183 644.962C923.371 644.657 922.618 644.743 921.925 645.22C921.25 645.685 920.882 646.462 920.82 647.552C920.771 648.66 921.102 651.234 921.814 655.274C922.543 659.302 922.53 662.44 921.773 664.689C921.064 666.931 919.519 668.872 917.138 670.51C913.858 672.82 910.303 673.42 906.476 672.31C902.66 671.218 899.346 668.589 896.532 664.424C894.905 662.061 893.704 659.955 892.929 658.105C892.184 656.262 891.64 654.253 891.297 652.08L899.746 646.266Z" fill="#000306"/>
<path d="M307.571 -44.0545C309.597 -45.4486 312.954 -47.5893 317.645 -50.4767L317.498 -50.6899L287.422 -40.4004L281.204 -49.4361L301.537 -73.9954L301.391 -74.2087C297.447 -70.9973 294.214 -68.5233 291.691 -66.7868L276.471 -56.3128L270.693 -64.7087L305.77 -88.8486L314.464 -76.2146L294.596 -51.7788L294.724 -51.5922L324.553 -61.555L333.266 -48.8944L298.19 -24.7546L292.192 -33.4704L307.571 -44.0545ZM325.336 14.6905L318.201 4.32217L323.61 -1.91448L315.759 -13.3223L307.965 -10.5507L300.793 -20.9723L343.872 -33.7694L352.585 -21.1088L325.336 14.6905ZM324.873 -16.6878L330.009 -9.22477C336.809 -17.1513 340.969 -21.8737 342.49 -23.392C340.042 -22.231 334.17 -19.9963 324.873 -16.6878ZM334.501 28.0075L327.953 18.4921L363.029 -5.64777L369.578 3.86765L334.501 28.0075ZM397.777 44.8427L362.7 68.9826L354.152 56.5619L370.037 26.7371L369.891 26.5239C366.083 29.5897 363.219 31.7829 361.3 33.1037L345.494 43.9813L339.716 35.5853L374.793 11.4455L383.322 23.8395L367.702 53.3642L367.812 53.5241C371.065 50.9452 373.829 48.873 376.103 47.3077L391.962 36.3935L397.777 44.8427ZM397.252 90.9936L384.085 100.055L377.665 90.7264L412.741 66.5866L427.012 87.3233L419.389 92.5695L411.538 81.1616L404.848 85.7658L412.075 96.2674L404.479 101.495L397.252 90.9936ZM417.968 132.739L410.239 138.058L395.913 117.242L430.989 93.1017L445.315 113.918L437.692 119.165L429.896 107.837L424.379 111.634L431.606 122.135L424.01 127.363L416.783 116.862L410.172 121.411L417.968 132.739ZM436.418 176.098L429.282 165.73L434.692 159.493L426.841 148.085L419.047 150.857L411.875 140.435L454.954 127.638L463.667 140.299L436.418 176.098ZM435.955 144.72L441.091 152.183C447.89 144.256 452.051 139.534 453.572 138.016C451.124 139.177 445.252 141.411 435.955 144.72ZM474.638 173.134L447.318 191.936L440.787 182.447L468.108 163.645L462.219 155.089L469.976 149.751L488.264 176.325L480.508 181.663L474.638 173.134ZM505.717 201.685L512.247 211.174L491.137 225.702C486.535 228.869 482.079 230.024 477.771 229.166C473.48 228.296 469.671 225.444 466.345 220.611C463.019 215.778 461.68 211.226 462.329 206.957C463.02 202.71 465.667 199.003 470.269 195.836L491.592 181.161L498.141 190.677L477.564 204.838C475.112 206.526 473.629 208.214 473.116 209.903C472.614 211.609 473.012 213.404 474.308 215.288C475.604 217.171 477.112 218.163 478.83 218.264C480.549 218.364 482.661 217.552 485.167 215.828L505.717 201.685ZM501.524 243.363L488.757 252.149L482.227 242.661L517.303 218.521L525.209 230.008C531.776 239.551 531.603 246.7 524.691 251.457C520.622 254.258 516.107 254.432 511.147 251.98L502.918 272.726L495.526 261.985L503.175 245.762L501.524 243.363ZM516.664 232.944L508.641 238.465L509.851 240.224C512.138 243.547 514.748 244.2 517.679 242.182C520.096 240.519 520.185 238.061 517.948 234.81L516.664 232.944ZM527.172 291.417L519.442 296.737L505.116 275.92L540.193 251.78L554.519 272.597L546.896 277.843L539.1 266.515L533.583 270.312L540.81 280.814L533.214 286.042L525.986 275.54L519.376 280.089L527.172 291.417ZM532.746 294.266C533.065 296.822 533.636 299.231 534.459 301.492C535.282 303.754 536.201 305.622 537.216 307.097C538.244 308.589 539.221 309.514 540.147 309.871C541.104 310.234 541.982 310.14 542.782 309.59C543.261 309.26 543.587 308.839 543.759 308.328C543.919 307.799 543.984 307.152 543.955 306.387C543.956 305.627 543.669 303.612 543.094 300.341C542.519 297.071 542.321 294.576 542.499 292.856C542.877 289.297 544.701 286.392 547.97 284.142C551.24 281.891 554.588 281.315 558.015 282.414C561.454 283.53 564.585 286.14 567.41 290.245C569.893 293.852 571.599 298.138 572.527 303.102L563.225 305.223C562.467 300.926 561.263 297.578 559.612 295.179C558.805 294.007 557.995 293.268 557.183 292.962C556.371 292.657 555.618 292.743 554.925 293.22C554.25 293.685 553.882 294.462 553.82 295.552C553.771 296.66 554.102 299.234 554.814 303.274C555.543 307.302 555.53 310.44 554.773 312.689C554.064 314.931 552.519 316.872 550.138 318.51C546.858 320.82 543.303 321.42 539.476 320.31C535.66 319.218 532.346 316.589 529.532 312.424C527.905 310.061 526.704 307.955 525.929 306.105C525.184 304.262 524.64 302.253 524.297 300.08L532.746 294.266Z" fill="#000306"/>
<path d="M615.571 122.945C617.597 121.551 620.954 119.411 625.645 116.523L625.498 116.31L595.422 126.6L589.204 117.564L609.537 93.0046L609.391 92.7913C605.447 96.0027 602.214 98.4767 599.691 100.213L584.471 110.687L578.693 102.291L613.77 78.1514L622.464 90.7854L602.596 115.221L602.724 115.408L632.553 105.445L641.266 118.106L606.19 142.245L600.192 133.53L615.571 122.945ZM633.336 181.691L626.201 171.322L631.61 165.086L623.759 153.678L615.965 156.449L608.793 146.028L651.872 133.231L660.585 145.891L633.336 181.691ZM632.873 150.312L638.009 157.775C644.809 149.849 648.969 145.126 650.49 143.608C648.042 144.769 642.17 147.004 632.873 150.312ZM642.501 195.007L635.953 185.492L671.029 161.352L677.578 170.868L642.501 195.007ZM705.777 211.843L670.7 235.983L662.152 223.562L678.037 193.737L677.891 193.524C674.083 196.59 671.219 198.783 669.3 200.104L653.494 210.981L647.716 202.585L682.793 178.445L691.322 190.839L675.702 220.364L675.812 220.524C679.065 217.945 681.829 215.873 684.103 214.308L699.962 203.393L705.777 211.843ZM705.252 257.994L692.085 267.055L685.665 257.726L720.741 233.587L735.012 254.323L727.389 259.569L719.538 248.162L712.848 252.766L720.075 263.267L712.479 268.495L705.252 257.994ZM725.968 299.739L718.239 305.058L703.913 284.242L738.989 260.102L753.315 280.918L745.692 286.165L737.896 274.837L732.379 278.634L739.606 289.135L732.01 294.363L724.783 283.862L718.172 288.411L725.968 299.739ZM744.418 343.098L737.282 332.73L742.692 326.493L734.841 315.085L727.047 317.857L719.875 307.435L762.954 294.638L771.667 307.299L744.418 343.098ZM743.955 311.72L749.091 319.183C755.89 311.256 760.051 306.534 761.572 305.016C759.124 306.177 753.252 308.411 743.955 311.72ZM782.638 340.134L755.318 358.936L748.787 349.447L776.108 330.645L770.219 322.089L777.976 316.751L796.264 343.325L788.508 348.663L782.638 340.134ZM813.717 368.685L820.247 378.174L799.137 392.702C794.535 395.869 790.079 397.024 785.771 396.166C781.48 395.296 777.671 392.444 774.345 387.611C771.019 382.778 769.68 378.226 770.329 373.957C771.02 369.71 773.667 366.003 778.269 362.836L799.592 348.161L806.141 357.677L785.564 371.838C783.112 373.526 781.629 375.214 781.116 376.903C780.614 378.609 781.012 380.404 782.308 382.288C783.604 384.171 785.112 385.163 786.83 385.264C788.549 385.364 790.661 384.552 793.167 382.828L813.717 368.685ZM809.524 410.363L796.757 419.149L790.227 409.661L825.303 385.521L833.209 397.008C839.776 406.551 839.603 413.7 832.691 418.457C828.622 421.258 824.107 421.432 819.147 418.98L810.918 439.726L803.526 428.985L811.175 412.762L809.524 410.363ZM824.664 399.944L816.641 405.465L817.851 407.224C820.138 410.547 822.748 411.2 825.679 409.182C828.096 407.519 828.185 405.061 825.948 401.81L824.664 399.944ZM835.172 458.417L827.442 463.737L813.116 442.92L848.193 418.78L862.519 439.597L854.896 444.843L847.1 433.515L841.583 437.312L848.81 447.814L841.214 453.042L833.986 442.54L827.376 447.089L835.172 458.417ZM840.746 461.266C841.065 463.822 841.636 466.231 842.459 468.492C843.282 470.754 844.201 472.622 845.216 474.097C846.244 475.589 847.221 476.514 848.147 476.871C849.104 477.234 849.982 477.14 850.782 476.59C851.261 476.26 851.587 475.839 851.759 475.328C851.919 474.799 851.984 474.152 851.955 473.387C851.956 472.627 851.669 470.612 851.094 467.341C850.519 464.071 850.321 461.576 850.499 459.856C850.877 456.297 852.701 453.392 855.97 451.142C859.24 448.891 862.588 448.315 866.015 449.414C869.454 450.53 872.585 453.14 875.41 457.245C877.893 460.852 879.599 465.138 880.527 470.102L871.225 472.223C870.467 467.926 869.263 464.578 867.612 462.179C866.805 461.007 865.995 460.268 865.183 459.962C864.371 459.657 863.618 459.743 862.925 460.22C862.25 460.685 861.882 461.462 861.82 462.552C861.771 463.66 862.102 466.234 862.814 470.274C863.543 474.302 863.53 477.44 862.773 479.689C862.064 481.931 860.519 483.872 858.138 485.51C854.858 487.82 851.303 488.42 847.476 487.31C843.66 486.218 840.346 483.589 837.532 479.424C835.905 477.061 834.704 474.955 833.929 473.105C833.184 471.262 832.64 469.253 832.297 467.08L840.746 461.266Z" fill="#000306"/>
<path d="M767.571 246.945C769.597 245.551 772.954 243.411 777.645 240.523L777.498 240.31L747.422 250.6L741.204 241.564L761.537 217.005L761.391 216.791C757.447 220.003 754.214 222.477 751.691 224.213L736.471 234.687L730.693 226.291L765.77 202.151L774.464 214.785L754.596 239.221L754.724 239.408L784.553 229.445L793.266 242.106L758.19 266.245L752.192 257.53L767.571 246.945ZM785.336 305.691L778.201 295.322L783.61 289.086L775.759 277.678L767.965 280.449L760.793 270.028L803.872 257.231L812.585 269.891L785.336 305.691ZM784.873 274.312L790.009 281.775C796.809 273.849 800.969 269.126 802.49 267.608C800.042 268.769 794.17 271.004 784.873 274.312ZM794.501 319.007L787.953 309.492L823.029 285.352L829.578 294.868L794.501 319.007ZM857.777 335.843L822.7 359.983L814.152 347.562L830.037 317.737L829.891 317.524C826.083 320.59 823.219 322.783 821.3 324.104L805.494 334.981L799.716 326.585L834.793 302.445L843.322 314.839L827.702 344.364L827.812 344.524C831.065 341.945 833.829 339.873 836.103 338.308L851.962 327.393L857.777 335.843ZM857.252 381.994L844.085 391.055L837.665 381.726L872.741 357.587L887.012 378.323L879.389 383.569L871.538 372.162L864.848 376.766L872.075 387.267L864.479 392.495L857.252 381.994ZM877.968 423.739L870.239 429.058L855.913 408.242L890.989 384.102L905.315 404.918L897.692 410.165L889.896 398.837L884.379 402.634L891.606 413.135L884.01 418.363L876.783 407.862L870.172 412.411L877.968 423.739ZM896.418 467.098L889.282 456.73L894.692 450.493L886.841 439.085L879.047 441.857L871.875 431.435L914.954 418.638L923.667 431.299L896.418 467.098ZM895.955 435.72L901.091 443.183C907.89 435.256 912.051 430.534 913.572 429.016C911.124 430.177 905.252 432.411 895.955 435.72ZM934.638 464.134L907.318 482.936L900.787 473.447L928.108 454.645L922.219 446.089L929.976 440.751L948.264 467.325L940.508 472.663L934.638 464.134ZM965.717 492.685L972.247 502.174L951.137 516.702C946.535 519.869 942.079 521.024 937.771 520.166C933.48 519.296 929.671 516.444 926.345 511.611C923.019 506.778 921.68 502.226 922.329 497.957C923.02 493.71 925.667 490.003 930.269 486.836L951.592 472.161L958.141 481.677L937.564 495.838C935.112 497.526 933.629 499.214 933.116 500.903C932.614 502.609 933.012 504.404 934.308 506.288C935.604 508.171 937.112 509.163 938.83 509.264C940.549 509.364 942.661 508.552 945.167 506.828L965.717 492.685ZM961.524 534.363L948.757 543.149L942.227 533.661L977.303 509.521L985.209 521.008C991.776 530.551 991.603 537.7 984.691 542.457C980.622 545.258 976.107 545.432 971.147 542.98L962.918 563.726L955.526 552.985L963.175 536.762L961.524 534.363ZM976.664 523.944L968.641 529.465L969.851 531.224C972.138 534.547 974.748 535.2 977.679 533.182C980.096 531.519 980.185 529.061 977.948 525.81L976.664 523.944ZM987.172 582.417L979.442 587.737L965.116 566.92L1000.19 542.78L1014.52 563.597L1006.9 568.843L999.1 557.515L993.583 561.312L1000.81 571.814L993.214 577.042L985.986 566.54L979.376 571.089L987.172 582.417ZM992.746 585.266C993.065 587.822 993.636 590.231 994.459 592.492C995.282 594.754 996.201 596.622 997.216 598.097C998.244 599.589 999.221 600.514 1000.15 600.871C1001.1 601.234 1001.98 601.14 1002.78 600.59C1003.26 600.26 1003.59 599.839 1003.76 599.328C1003.92 598.799 1003.98 598.152 1003.95 597.387C1003.96 596.627 1003.67 594.612 1003.09 591.341C1002.52 588.071 1002.32 585.576 1002.5 583.856C1002.88 580.297 1004.7 577.392 1007.97 575.142C1011.24 572.891 1014.59 572.315 1018.01 573.414C1021.45 574.53 1024.59 577.14 1027.41 581.245C1029.89 584.852 1031.6 589.138 1032.53 594.102L1023.22 596.223C1022.47 591.926 1021.26 588.578 1019.61 586.179C1018.81 585.007 1018 584.268 1017.18 583.962C1016.37 583.657 1015.62 583.743 1014.93 584.22C1014.25 584.685 1013.88 585.462 1013.82 586.552C1013.77 587.66 1014.1 590.234 1014.81 594.274C1015.54 598.302 1015.53 601.44 1014.77 603.689C1014.06 605.931 1012.52 607.872 1010.14 609.51C1006.86 611.82 1003.3 612.42 999.476 611.31C995.66 610.218 992.346 607.589 989.532 603.424C987.905 601.061 986.704 598.955 985.929 597.105C985.184 595.262 984.64 593.253 984.297 591.08L992.746 585.266Z" fill="#000306"/>
<path d="M758.571 135.945C760.597 134.551 763.954 132.411 768.645 129.523L768.498 129.31L738.422 139.6L732.204 130.564L752.537 106.005L752.391 105.791C748.447 109.003 745.214 111.477 742.691 113.213L727.471 123.687L721.693 115.291L756.77 91.1514L765.464 103.785L745.596 128.221L745.724 128.408L775.553 118.445L784.266 131.106L749.19 155.245L743.192 146.53L758.571 135.945ZM776.336 194.691L769.201 184.322L774.61 178.086L766.759 166.678L758.965 169.449L751.793 159.028L794.872 146.231L803.585 158.891L776.336 194.691ZM775.873 163.312L781.009 170.775C787.809 162.849 791.969 158.126 793.49 156.608C791.042 157.769 785.17 160.004 775.873 163.312ZM785.501 208.007L778.953 198.492L814.029 174.352L820.578 183.868L785.501 208.007ZM848.777 224.843L813.7 248.983L805.152 236.562L821.037 206.737L820.891 206.524C817.083 209.59 814.219 211.783 812.3 213.104L796.494 223.981L790.716 215.585L825.793 191.445L834.322 203.839L818.702 233.364L818.812 233.524C822.065 230.945 824.829 228.873 827.103 227.308L842.962 216.393L848.777 224.843ZM848.252 270.994L835.085 280.055L828.665 270.726L863.741 246.587L878.012 267.323L870.389 272.569L862.538 261.162L855.848 265.766L863.075 276.267L855.479 281.495L848.252 270.994ZM868.968 312.739L861.239 318.058L846.913 297.242L881.989 273.102L896.315 293.918L888.692 299.165L880.896 287.837L875.379 291.634L882.606 302.135L875.01 307.363L867.783 296.862L861.172 301.411L868.968 312.739ZM887.418 356.098L880.282 345.73L885.692 339.493L877.841 328.085L870.047 330.857L862.875 320.435L905.954 307.638L914.667 320.299L887.418 356.098ZM886.955 324.72L892.091 332.183C898.89 324.256 903.051 319.534 904.572 318.016C902.124 319.177 896.252 321.411 886.955 324.72ZM925.638 353.134L898.318 371.936L891.787 362.447L919.108 343.645L913.219 335.089L920.976 329.751L939.264 356.325L931.508 361.663L925.638 353.134ZM956.717 381.685L963.247 391.174L942.137 405.702C937.535 408.869 933.079 410.024 928.771 409.166C924.48 408.296 920.671 405.444 917.345 400.611C914.019 395.778 912.68 391.226 913.329 386.957C914.02 382.71 916.667 379.003 921.269 375.836L942.592 361.161L949.141 370.677L928.564 384.838C926.112 386.526 924.629 388.214 924.116 389.903C923.614 391.609 924.012 393.404 925.308 395.288C926.604 397.171 928.112 398.163 929.83 398.264C931.549 398.364 933.661 397.552 936.167 395.828L956.717 381.685ZM952.524 423.363L939.757 432.149L933.227 422.661L968.303 398.521L976.209 410.008C982.776 419.551 982.603 426.7 975.691 431.457C971.622 434.258 967.107 434.432 962.147 431.98L953.918 452.726L946.526 441.985L954.175 425.762L952.524 423.363ZM967.664 412.944L959.641 418.465L960.851 420.224C963.138 423.547 965.748 424.2 968.679 422.182C971.096 420.519 971.185 418.061 968.948 414.81L967.664 412.944ZM978.172 471.417L970.442 476.737L956.116 455.92L991.193 431.78L1005.52 452.597L997.896 457.843L990.1 446.515L984.583 450.312L991.81 460.814L984.214 466.042L976.986 455.54L970.376 460.089L978.172 471.417ZM983.746 474.266C984.065 476.822 984.636 479.231 985.459 481.492C986.282 483.754 987.201 485.622 988.216 487.097C989.244 488.589 990.221 489.514 991.147 489.871C992.104 490.234 992.982 490.14 993.782 489.59C994.261 489.26 994.587 488.839 994.759 488.328C994.919 487.799 994.984 487.152 994.955 486.387C994.956 485.627 994.669 483.612 994.094 480.341C993.519 477.071 993.321 474.576 993.499 472.856C993.877 469.297 995.701 466.392 998.97 464.142C1002.24 461.891 1005.59 461.315 1009.01 462.414C1012.45 463.53 1015.59 466.14 1018.41 470.245C1020.89 473.852 1022.6 478.138 1023.53 483.102L1014.22 485.223C1013.47 480.926 1012.26 477.578 1010.61 475.179C1009.81 474.007 1009 473.268 1008.18 472.962C1007.37 472.657 1006.62 472.743 1005.93 473.22C1005.25 473.685 1004.88 474.462 1004.82 475.552C1004.77 476.66 1005.1 479.234 1005.81 483.274C1006.54 487.302 1006.53 490.44 1005.77 492.689C1005.06 494.931 1003.52 496.872 1001.14 498.51C997.858 500.82 994.303 501.42 990.476 500.31C986.66 499.218 983.346 496.589 980.532 492.424C978.905 490.061 977.704 487.955 976.929 486.105C976.184 484.262 975.64 482.253 975.297 480.08L983.746 474.266Z" fill="#000306"/>
<path d="M903.571 246.945C905.597 245.551 908.954 243.411 913.645 240.523L913.498 240.31L883.422 250.6L877.204 241.564L897.537 217.005L897.391 216.791C893.447 220.003 890.214 222.477 887.691 224.213L872.471 234.687L866.693 226.291L901.77 202.151L910.464 214.785L890.596 239.221L890.724 239.408L920.553 229.445L929.266 242.106L894.19 266.245L888.192 257.53L903.571 246.945ZM921.336 305.691L914.201 295.322L919.61 289.086L911.759 277.678L903.965 280.449L896.793 270.028L939.872 257.231L948.585 269.891L921.336 305.691ZM920.873 274.312L926.009 281.775C932.809 273.849 936.969 269.126 938.49 267.608C936.042 268.769 930.17 271.004 920.873 274.312ZM930.501 319.007L923.953 309.492L959.029 285.352L965.578 294.868L930.501 319.007ZM993.777 335.843L958.7 359.983L950.152 347.562L966.037 317.737L965.891 317.524C962.083 320.59 959.219 322.783 957.3 324.104L941.494 334.981L935.716 326.585L970.793 302.445L979.322 314.839L963.702 344.364L963.812 344.524C967.065 341.945 969.829 339.873 972.103 338.308L987.962 327.393L993.777 335.843ZM993.252 381.994L980.085 391.055L973.665 381.726L1008.74 357.587L1023.01 378.323L1015.39 383.569L1007.54 372.162L1000.85 376.766L1008.08 387.267L1000.48 392.495L993.252 381.994ZM1013.97 423.739L1006.24 429.058L991.913 408.242L1026.99 384.102L1041.32 404.918L1033.69 410.165L1025.9 398.837L1020.38 402.634L1027.61 413.135L1020.01 418.363L1012.78 407.862L1006.17 412.411L1013.97 423.739ZM1032.42 467.098L1025.28 456.73L1030.69 450.493L1022.84 439.085L1015.05 441.857L1007.87 431.435L1050.95 418.638L1059.67 431.299L1032.42 467.098ZM1031.95 435.72L1037.09 443.183C1043.89 435.256 1048.05 430.534 1049.57 429.016C1047.12 430.177 1041.25 432.411 1031.95 435.72ZM1070.64 464.134L1043.32 482.936L1036.79 473.447L1064.11 454.645L1058.22 446.089L1065.98 440.751L1084.26 467.325L1076.51 472.663L1070.64 464.134ZM1101.72 492.685L1108.25 502.174L1087.14 516.702C1082.53 519.869 1078.08 521.024 1073.77 520.166C1069.48 519.296 1065.67 516.444 1062.35 511.611C1059.02 506.778 1057.68 502.226 1058.33 497.957C1059.02 493.71 1061.67 490.003 1066.27 486.836L1087.59 472.161L1094.14 481.677L1073.56 495.838C1071.11 497.526 1069.63 499.214 1069.12 500.903C1068.61 502.609 1069.01 504.404 1070.31 506.288C1071.6 508.171 1073.11 509.163 1074.83 509.264C1076.55 509.364 1078.66 508.552 1081.17 506.828L1101.72 492.685ZM1097.52 534.363L1084.76 543.149L1078.23 533.661L1113.3 509.521L1121.21 521.008C1127.78 530.551 1127.6 537.7 1120.69 542.457C1116.62 545.258 1112.11 545.432 1107.15 542.98L1098.92 563.726L1091.53 552.985L1099.18 536.762L1097.52 534.363ZM1112.66 523.944L1104.64 529.465L1105.85 531.224C1108.14 534.547 1110.75 535.2 1113.68 533.182C1116.1 531.519 1116.19 529.061 1113.95 525.81L1112.66 523.944ZM1123.17 582.417L1115.44 587.737L1101.12 566.92L1136.19 542.78L1150.52 563.597L1142.9 568.843L1135.1 557.515L1129.58 561.312L1136.81 571.814L1129.21 577.042L1121.99 566.54L1115.38 571.089L1123.17 582.417ZM1128.75 585.266C1129.06 587.822 1129.64 590.231 1130.46 592.492C1131.28 594.754 1132.2 596.622 1133.22 598.097C1134.24 599.589 1135.22 600.514 1136.15 600.871C1137.1 601.234 1137.98 601.14 1138.78 600.59C1139.26 600.26 1139.59 599.839 1139.76 599.328C1139.92 598.799 1139.98 598.152 1139.95 597.387C1139.96 596.627 1139.67 594.612 1139.09 591.341C1138.52 588.071 1138.32 585.576 1138.5 583.856C1138.88 580.297 1140.7 577.392 1143.97 575.142C1147.24 572.891 1150.59 572.315 1154.01 573.414C1157.45 574.53 1160.59 577.14 1163.41 581.245C1165.89 584.852 1167.6 589.138 1168.53 594.102L1159.22 596.223C1158.47 591.926 1157.26 588.578 1155.61 586.179C1154.81 585.007 1154 584.268 1153.18 583.962C1152.37 583.657 1151.62 583.743 1150.93 584.22C1150.25 584.685 1149.88 585.462 1149.82 586.552C1149.77 587.66 1150.1 590.234 1150.81 594.274C1151.54 598.302 1151.53 601.44 1150.77 603.689C1150.06 605.931 1148.52 607.872 1146.14 609.51C1142.86 611.82 1139.3 612.42 1135.48 611.31C1131.66 610.218 1128.35 607.589 1125.53 603.424C1123.91 601.061 1122.7 598.955 1121.93 597.105C1121.18 595.262 1120.64 593.253 1120.3 591.08L1128.75 585.266Z" fill="#000306"/>
</g>
</svg>
