<svg width="28" height="28" viewBox="0 0 28 28" fill="none" xmlns="http://www.w3.org/2000/svg">
<path d="M23.2568 0.00683594C25.8988 0.140671 28 2.32482 28 5V23L27.9932 23.2568C27.8638 25.8137 25.8137 27.8636 23.2568 27.9932L23 28H5C2.32486 27.9998 0.140524 25.8988 0.00683594 23.2568L0 23V5C0 2.23868 2.23872 0.000164988 5 0H23L23.2568 0.00683594ZM9.68262 2C10.4554 2.94206 10.9199 4.14646 10.9199 5.45996V22.54L10.9131 22.8213C10.852 24.0253 10.4 25.1256 9.68262 26H23C24.6567 25.9998 26 24.6568 26 23V5C26 3.34324 24.6567 2.00015 23 2H9.68262ZM5.45996 2C3.54923 2.00016 2 3.54919 2 5.45996V22.54C2 24.4508 3.54923 25.9998 5.45996 26C7.37083 26 8.91992 24.4509 8.91992 22.54V5.45996C8.91992 3.54909 7.37083 2.00001 5.45996 2Z" fill="#F9FCFF" fill-opacity="0.5"/>
</svg>
