<svg width="600" height="600" viewBox="0 0 600 600" fill="none" xmlns="http://www.w3.org/2000/svg">
<path d="M300 441.211C300 523.937 232.843 591 150 591C67.1573 591 0 523.937 0 441.211C0 358.485 67.1573 291.422 150 291.422C232.843 291.422 300 358.485 300 441.211Z" fill="#57AEF5"/>
<path d="M600 159.789C600 242.515 532.843 309.578 450 309.578C367.157 309.578 300 242.515 300 159.789C300 77.0628 367.157 10 450 10C532.843 10 600 77.0628 600 159.789Z" fill="#F55757"/>
<path d="M372.727 373.125H536.364V591H372.727V373.125Z" fill="#F9FCFF"/>
</svg>
