<svg width="269" height="76" viewBox="0 0 269 76" fill="none" xmlns="http://www.w3.org/2000/svg">
<circle cx="91.5" cy="56.5" r="16.5" fill="#57AEF5"/>
<path d="M67.7048 9.12943V73H45.088L21.7432 28.0091H21.3549C21.905 35.3215 22.18 40.725 22.18 44.2194V73H6.89181V9.12943H29.4601L52.6593 53.5379H52.9505C52.5298 47.3256 52.3195 42.1486 52.3195 38.0071V9.12943H67.7048Z" fill="#000306"/>
<path d="M261.705 9.12943V73H239.088L215.743 28.0091H215.355C215.905 35.3215 216.18 40.725 216.18 44.2194V73H200.892V9.12943H223.46L246.659 53.5379H246.95C246.53 47.3256 246.32 42.1486 246.32 38.0071V9.12943H261.705Z" fill="#000306"/>
<path d="M134.09 23.2528V73H116.812V23.2528H101.233V9.12943H149.621V23.2528H134.09Z" fill="#000306"/>
<circle cx="174.5" cy="25.5" r="16.5" fill="#F55757"/>
<rect x="166" y="49" width="18" height="24" fill="#000306"/>
</svg>
